<svg width="109" height="38" viewBox="0 0 109 38" fill="none" xmlns="http://www.w3.org/2000/svg">
<path fill-rule="evenodd" clip-rule="evenodd" d="M6.20904 11.5043V15.6364H0.000488281V7.83676L12.2199 0.619418C13.4697 -0.111129 15.36 -0.24908 16.6541 0.495791L29.0827 7.83676V15.6364H22.8747V11.5043L14.5417 6.58197L6.20904 11.5043Z" fill="#6E8889"/>
<path fill-rule="evenodd" clip-rule="evenodd" d="M14.5412 28.0763L22.8742 23.1541V19.0215H29.0822V26.8215L16.6305 34.1762C15.3595 34.9075 13.4692 34.7694 12.2194 34.0392L0 26.8215V19.0215H6.20856V23.1541L14.5412 28.0763Z" fill="#6E8889"/>
<path d="M75.7542 26.3876C74.5154 26.0609 73.4212 25.3815 72.4787 24.3436C71.7221 23.4961 71.173 22.5295 70.8318 21.4426C70.4892 20.3541 70.2826 19.2445 70.21 18.1065C70.21 17.9874 70.21 17.8677 70.21 17.7459C70.21 17.6254 70.21 17.5043 70.21 17.3822C70.21 17.2164 70.21 17.0512 70.21 16.8963C70.21 16.7345 70.2226 16.5752 70.2474 16.4049C70.3171 15.3187 70.5236 14.2489 70.8671 13.1988C71.2075 12.1479 71.7475 11.2118 72.4787 10.3894C73.4212 9.32627 74.5154 8.63293 75.7542 8.30487C76.995 7.97868 78.276 7.81364 79.5965 7.81364L86.7869 7.78125L84.5484 11.7662H80.2703C78.8999 11.7908 77.7987 11.9062 76.9781 12.3989C76.1892 12.875 75.7139 13.7967 75.6667 15.3892L86.7869 15.3533L84.5484 19.3414H75.6667C75.7139 21.0083 76.1469 21.9797 76.9055 22.3845C77.6865 22.7992 78.7957 22.9284 80.2358 22.9284L86.7869 22.8901L84.5484 26.8781H79.5965C78.276 26.8781 76.995 26.7152 75.7542 26.3876Z" fill="#6E8889"/>
<path d="M58.0265 7.78208V3.15139L62.9489 0.858398V7.78208H69.0522L66.8138 11.5863H62.9489V19.3061C62.9263 21.2146 63.3515 22.324 64.2249 22.6371C65.0998 22.953 66.3011 23.1105 67.838 23.1105C67.8854 23.1105 67.9382 23.1105 67.9974 23.1105C68.0573 23.1105 68.1095 23.1105 68.1567 23.1105L65.9184 26.8768H63.6574C61.792 26.8768 60.3896 26.3475 59.4443 25.2843C58.4995 24.2203 58.0265 22.7727 58.0265 20.9356V11.5863H54.1074L56.3479 7.78208H58.0265Z" fill="#6E8889"/>
<path d="M106.364 9.26749C104.995 8.30246 103.081 7.80625 100.626 7.7832H91.3455H90.4213L88.1807 11.9921H91.3455V26.8779H96.2693V11.9921H97.0132L100.236 12.0229C101.559 12.0229 102.431 12.2516 102.857 12.7097C103.281 13.1706 103.494 14.0635 103.494 15.3915V26.8779H108.419V14.8123C108.419 12.0836 107.733 10.2333 106.364 9.26749Z" fill="#6E8889"/>
<path d="M45.6585 22.9972C45.7035 23.0231 48.382 23.1019 48.382 21.0434C48.382 19.0221 45.7953 19.1932 45.7262 19.1932L41.4728 19.1577C39.491 19.1831 37.9267 18.9062 36.7823 18.3225C35.6354 17.7449 35.0509 16.272 35.0291 13.9031C35.0037 11.6816 35.5958 10.1114 36.7993 9.19044C38.0034 8.27431 39.6073 7.81421 41.6173 7.81421L53.1026 7.78027L50.8346 11.9203C50.8346 11.9203 42.7488 11.9566 42.5973 11.9566C42.4429 11.9566 40.1276 11.8749 40.1276 13.5447C40.1276 15.2166 41.7464 15.2442 42.4302 15.2442L46.895 15.2081C48.6407 15.2311 50.1056 15.6485 51.2873 16.458C52.466 17.2667 53.0927 18.6629 53.1647 20.6435C53.1647 20.6688 53.1647 20.687 53.1647 20.6991C53.1647 20.7122 53.1647 20.7281 53.1647 20.7525C53.1872 22.3005 52.7573 23.7047 51.8717 24.9741C50.9863 26.2415 49.7151 26.8777 48.064 26.8777H35.347L37.5184 22.9972H45.6585Z" fill="#6E8889"/>
<path d="M38.6339 30.9082V31.5396H36.0713V33.2107H38.513V33.8346H36.0713V35.6185H38.6945V36.2709H35.3477V30.9082H38.6339ZM40.5675 30.9157V36.2709H39.8838V30.9157H40.5675ZM44.9184 34.5328H42.3025V34.5897C42.3025 34.9921 42.3932 35.3066 42.5748 35.5331C42.7562 35.7608 43.014 35.8747 43.3467 35.8747C43.5886 35.8747 43.7859 35.809 43.9371 35.6779C44.0884 35.5467 44.1767 35.3549 44.2021 35.1048H44.8821C44.8591 35.4835 44.7055 35.7905 44.4235 36.027C44.1417 36.2634 43.7726 36.3823 43.3176 36.3823C42.7598 36.3823 42.3387 36.2151 42.0532 35.8822C41.7677 35.5479 41.625 35.0688 41.625 34.4425C41.625 33.7975 41.7749 33.3037 42.075 32.9606C42.3751 32.6178 42.7986 32.4457 43.3467 32.4457C43.8682 32.4457 44.2602 32.5955 44.524 32.8951C44.7865 33.1947 44.9184 33.6415 44.9184 34.2357V34.5328ZM44.2239 34.0426V33.9881C44.2239 33.6576 44.1501 33.4014 44.0012 33.2169C43.8524 33.0337 43.6275 32.9421 43.3249 32.9421C43.0297 32.9421 42.7901 33.0436 42.6061 33.2442C42.4223 33.446 42.3304 33.7121 42.3304 34.0426H44.2239ZM48.0002 33.7381C47.9857 33.4782 47.9142 33.2825 47.7861 33.1539C47.6566 33.0251 47.486 32.9606 47.2743 32.9606C46.9669 32.9606 46.7334 33.0784 46.5724 33.3122C46.4115 33.5462 46.3316 33.8991 46.3316 34.3707C46.3316 34.8683 46.4079 35.2372 46.5604 35.4774C46.7116 35.7175 46.9378 35.8375 47.2379 35.8375C47.4678 35.8375 47.6529 35.767 47.7944 35.6259C47.9361 35.4847 48.0134 35.2867 48.028 35.0305H48.719C48.6911 35.4242 48.5423 35.746 48.2725 35.9948C48.0038 36.2436 47.6626 36.3674 47.2525 36.3674C46.7273 36.3674 46.3233 36.2016 46.0388 35.8685C45.7545 35.5367 45.6118 35.0663 45.6118 34.4574C45.6118 33.8223 45.7666 33.3272 46.0764 32.9744C46.3849 32.6215 46.7794 32.4457 47.2597 32.4457C47.6747 32.4457 48.0134 32.5633 48.2761 32.7973C48.5386 33.0313 48.6765 33.3445 48.6911 33.7381H48.0002ZM50.3148 32.5275H51.129V33.0387H50.3148V35.3214C50.3148 35.4885 50.3559 35.6062 50.4406 35.6742C50.524 35.741 50.6438 35.7757 50.7999 35.7757C50.8616 35.7757 50.9197 35.772 50.9766 35.7658C51.0334 35.7595 51.0842 35.751 51.129 35.7385V36.2796C51.0673 36.2919 50.9874 36.3018 50.8894 36.3104C50.7914 36.3191 50.685 36.3229 50.5688 36.3229C50.2458 36.3229 50.0098 36.2646 49.8622 36.1483C49.7146 36.032 49.6407 35.8327 49.6407 35.5504V33.0387H48.9947V32.5275H49.6407V31.7488L50.3148 31.5248V32.5275ZM54.0184 32.5125V33.1947C53.9785 33.1799 53.935 33.1699 53.8876 33.1649C53.8405 33.1599 53.7825 33.1575 53.7135 33.1575C53.3699 33.1575 53.1145 33.2442 52.9476 33.4175C52.7819 33.5908 52.6983 33.8706 52.6983 34.2569V36.2709H52.0074V33.1439L52.0002 32.9669L51.9724 32.5423H52.6633L52.6741 32.9879C52.6741 33.1092 52.6753 33.2009 52.6778 33.264C52.7359 33.0201 52.8665 32.832 53.0661 32.7008C53.267 32.5708 53.5187 32.5052 53.8199 32.5052L54.0184 32.5125ZM56.3801 36.3971C55.8067 36.3971 55.3541 36.2201 55.0238 35.866C54.6935 35.512 54.5277 35.0206 54.5277 34.3929C54.5277 33.8 54.6886 33.3284 55.0092 32.9756C55.3311 32.6228 55.7679 32.4457 56.3197 32.4457C56.8799 32.4457 57.3263 32.6265 57.6603 32.9879C57.9954 33.3494 58.1624 33.8323 58.1624 34.4362C58.1624 35.0428 58.0052 35.5207 57.6904 35.871C57.3771 36.2213 56.9403 36.3971 56.3801 36.3971ZM55.2404 34.4499C55.2404 34.8906 55.3468 35.2396 55.5586 35.4984C55.7715 35.7559 56.045 35.8858 56.3801 35.8858C56.7105 35.8858 56.9694 35.7595 57.1569 35.5071C57.3445 35.2546 57.4389 34.9068 57.4389 34.4647C57.4389 34.0031 57.3396 33.639 57.1412 33.3705C56.9428 33.1019 56.6717 32.9681 56.3269 32.9681C55.9942 32.9681 55.7304 33.1006 55.5344 33.3642C55.3384 33.6292 55.2404 33.9919 55.2404 34.4499ZM62.4226 36.2709H61.7282V33.8273C61.7282 33.566 61.6483 33.3655 61.4875 33.2244C61.3264 33.0832 61.1268 33.0114 60.886 33.0114C60.6113 33.0114 60.3852 33.1142 60.2061 33.3185C60.0269 33.5227 59.9362 33.7838 59.9362 34.1033V36.2709H59.2526V32.8146C59.2526 32.7416 59.2502 32.6513 59.2453 32.5423H59.9302C59.9338 32.6946 59.9362 32.8208 59.9362 32.9199V33.1439C60.0499 32.9174 60.2048 32.7478 60.4009 32.6363C60.5969 32.5238 60.8315 32.468 61.105 32.468C61.4897 32.468 61.8057 32.5807 62.0524 32.8048C62.2992 33.0301 62.4226 33.3395 62.4226 33.7331V36.2709ZM64.4216 30.9231V31.6881H63.6001V30.9231H64.4216ZM64.3563 32.5423V36.2709H63.6727V32.5423H64.3563ZM67.7586 33.7381C67.7441 33.4782 67.6726 33.2825 67.5444 33.1539C67.4149 33.0251 67.2443 32.9606 67.0326 32.9606C66.7252 32.9606 66.4918 33.0784 66.3308 33.3122C66.1699 33.5462 66.09 33.8991 66.09 34.3707C66.09 34.8683 66.1663 35.2372 66.3187 35.4774C66.47 35.7175 66.6962 35.8375 66.9963 35.8375C67.2262 35.8375 67.4113 35.767 67.5528 35.6259C67.6945 35.4847 67.7718 35.2867 67.7864 35.0305H68.4773C68.4495 35.4242 68.3006 35.746 68.0308 35.9948C67.7622 36.2436 67.421 36.3674 67.0109 36.3674C66.4857 36.3674 66.0816 36.2016 65.7972 35.8685C65.5129 35.5367 65.3702 35.0663 65.3702 34.4574C65.3702 33.8223 65.5249 33.3272 65.8348 32.9744C66.1433 32.6215 66.5377 32.4457 67.018 32.4457C67.433 32.4457 67.7718 32.5633 68.0345 32.7973C68.297 33.0313 68.4349 33.3445 68.4495 33.7381H67.7586ZM74.4288 32.5423L74.4144 33.3729L74.4071 35.4069V35.9688C74.4022 36.4789 74.3502 36.8427 74.2522 37.0582C74.1541 37.2748 73.9823 37.4469 73.7355 37.5731C73.49 37.7007 73.1511 37.7637 72.718 37.7637C72.3587 37.7637 72.0695 37.7229 71.8517 37.6424C71.6338 37.5619 71.4717 37.4406 71.3641 37.2798C71.2564 37.1188 71.197 36.88 71.185 36.5605H71.9122C71.9315 36.8242 72.0089 37.0111 72.1468 37.1225C72.2836 37.2328 72.4882 37.2884 72.7603 37.2884C73.1039 37.2884 73.3495 37.1918 73.4972 36.9988C73.6448 36.8057 73.721 36.4764 73.7259 36.0121L73.7296 35.569C73.6448 35.7658 73.4996 35.9205 73.2963 36.0333C73.0943 36.1471 72.839 36.2041 72.5317 36.2041C72.0041 36.2041 71.6169 36.032 71.3689 35.689C71.1208 35.3461 70.9963 34.9055 70.9963 34.3694C70.9963 33.7913 71.1439 33.3332 71.4402 32.9966C71.7367 32.6586 72.1287 32.4903 72.6139 32.4903C72.8668 32.4903 73.0882 32.5361 73.2782 32.6265C73.4681 32.7168 73.6291 32.8591 73.7621 33.0536L73.7694 32.5423H74.4288ZM73.7477 34.2494C73.7477 33.8025 73.6424 33.4794 73.4331 33.2825C73.2225 33.0857 72.9697 32.9867 72.6757 32.9867C72.366 32.9867 72.1263 33.1056 71.9569 33.342C71.7863 33.5797 71.7017 33.9163 71.7017 34.3546C71.7017 34.7805 71.7851 35.1073 71.9532 35.3374C72.1203 35.5665 72.3707 35.6817 72.7035 35.6817C72.9345 35.6817 73.1245 35.6322 73.2733 35.5319C73.4221 35.4304 73.5384 35.2929 73.6218 35.1159C73.7054 34.9401 73.7477 34.6505 73.7477 34.2494ZM78.4762 35.3424C78.4762 35.4612 78.4811 35.6135 78.4919 35.8017C78.5016 35.9886 78.5161 36.1446 78.5319 36.2709H77.916C77.8894 36.1866 77.8725 36.1025 77.8628 36.0183C77.853 35.9353 77.8483 35.8327 77.8483 35.7125C77.7369 35.9243 77.5905 36.0913 77.4103 36.2101C77.2287 36.3303 76.9976 36.3897 76.7157 36.3897C76.3322 36.3897 76.0236 36.2881 75.7889 36.0863C75.5553 35.8846 75.438 35.6197 75.438 35.2916C75.438 34.9043 75.5868 34.5848 75.8857 34.3324C76.1834 34.0798 76.6492 33.9536 77.2844 33.9536H77.5071C77.6098 33.9536 77.7176 33.9609 77.8337 33.9758V33.7245C77.8337 33.5005 77.8107 33.3395 77.7635 33.2417C77.7164 33.1439 77.6317 33.0634 77.5106 33.0004C77.3908 32.9371 77.2348 32.9063 77.0425 32.9063C76.8306 32.9063 76.6612 32.9594 76.5378 33.0671C76.4132 33.1749 76.3467 33.3322 76.3369 33.5375H75.6558C75.68 33.1501 75.8168 32.8691 76.0673 32.6946C76.3176 32.5188 76.6576 32.431 77.0848 32.431C77.4756 32.431 77.8095 32.515 78.0878 32.6833C78.365 32.8506 78.5041 33.1304 78.5041 33.5227L78.4762 35.3424ZM77.8204 34.8448L77.8337 34.4574L77.7562 34.4462L77.6462 34.44L77.4429 34.4362C77.0073 34.4362 76.6794 34.4994 76.4581 34.6257C76.2367 34.7532 76.1253 34.9401 76.1253 35.1864C76.1253 35.3821 76.1942 35.5392 76.3298 35.6593C76.4665 35.7782 76.6504 35.8388 76.8827 35.8388C77.1706 35.8388 77.3969 35.7472 77.5602 35.5665C77.7237 35.3857 77.8107 35.1456 77.8204 34.8448ZM82.3081 33.5747H81.6124V33.5277C81.6124 33.3469 81.5531 33.2082 81.4358 33.1129C81.3184 33.0164 81.1417 32.9681 80.9058 32.9681C80.6686 32.9681 80.486 33.0139 80.3565 33.1044C80.2282 33.1947 80.1629 33.3272 80.1629 33.5005C80.1629 33.7307 80.3117 33.8818 80.607 33.9536L81.4514 34.1676C81.7733 34.2494 82.0118 34.3707 82.1678 34.5304C82.3239 34.69 82.4026 34.9055 82.4026 35.1791C82.4026 35.5319 82.2719 35.819 82.0106 36.0418C81.7491 36.2634 81.3619 36.3749 80.8489 36.3749C80.3867 36.3749 80.0299 36.2709 79.7794 36.0616C79.5289 35.8525 79.403 35.5529 79.403 35.1641H80.123C80.123 35.3771 80.1907 35.5417 80.3286 35.6605C80.4654 35.7795 80.6651 35.8375 80.9276 35.8375C81.1659 35.8375 81.3499 35.7855 81.4805 35.6829C81.61 35.5789 81.6753 35.4352 81.6753 35.2509C81.6753 35.0726 81.6076 34.9488 81.4709 34.8795C81.3353 34.8113 81.1369 34.7495 80.8768 34.6962C80.6167 34.643 80.3807 34.5787 80.1678 34.5007C79.9548 34.4239 79.7867 34.3124 79.662 34.1676C79.5374 34.0228 79.4756 33.8285 79.4756 33.5833C79.4756 33.2554 79.6051 32.9842 79.864 32.7726C80.123 32.5596 80.4679 32.4532 80.8985 32.4532C81.2991 32.4532 81.633 32.5361 81.9028 32.7008C82.1726 32.8666 82.3081 33.1229 82.3081 33.4695V33.5747ZM88.388 33.1439C88.5198 32.9099 88.6892 32.7354 88.8925 32.619C89.0971 32.504 89.3354 32.4457 89.6077 32.4457C90.0202 32.4457 90.348 32.5608 90.5889 32.7923C90.8297 33.0226 90.9495 33.3432 90.9495 33.7543V36.2709H90.2622V33.805C90.2622 33.54 90.1872 33.337 90.0359 33.1984C89.8846 33.0597 89.6863 32.9891 89.4407 32.9891C89.1914 32.9891 88.9724 33.0746 88.786 33.2429C88.5997 33.4125 88.5066 33.6848 88.5066 34.0587V36.2709H87.8157V33.7988C87.8157 33.5537 87.7443 33.358 87.6015 33.2107C87.4576 33.0634 87.264 32.9891 87.0184 32.9891C86.7715 32.9891 86.5513 33.0759 86.3553 33.2467C86.1581 33.4187 86.0601 33.68 86.0601 34.0303V36.2709H85.3691V33.0387C85.3691 32.9979 85.3679 32.9346 85.3655 32.8506L85.3547 32.5423H86.0467V33.0832C86.1762 32.8629 86.3348 32.702 86.5222 32.5993C86.711 32.4965 86.936 32.4457 87.1973 32.4457C87.5023 32.4457 87.7504 32.5027 87.9415 32.6178C88.1327 32.7318 88.2815 32.9074 88.388 33.1439ZM95.2606 34.5328H92.6447V34.5897C92.6447 34.9921 92.7354 35.3066 92.9169 35.5331C93.0983 35.7608 93.3561 35.8747 93.6888 35.8747C93.9308 35.8747 94.128 35.809 94.2793 35.6779C94.4306 35.5467 94.5188 35.3549 94.5442 35.1048H95.2242C95.2012 35.4835 95.0477 35.7905 94.7657 36.027C94.4838 36.2634 94.1148 36.3823 93.6597 36.3823C93.102 36.3823 92.6809 36.2151 92.3954 35.8822C92.1099 35.5479 91.9671 35.0688 91.9671 34.4425C91.9671 33.7975 92.117 33.3037 92.4171 32.9606C92.7173 32.6178 93.1408 32.4457 93.6888 32.4457C94.2103 32.4457 94.6024 32.5955 94.8661 32.8951C95.1286 33.1947 95.2606 33.6415 95.2606 34.2357V34.5328ZM94.566 34.0426V33.9881C94.566 33.6576 94.4922 33.4014 94.3434 33.2169C94.1945 33.0337 93.9696 32.9421 93.667 32.9421C93.3718 32.9421 93.1323 33.0436 92.9483 33.2442C92.7644 33.446 92.6725 33.7121 92.6725 34.0426H94.566ZM97.0271 32.5275H97.8413V33.0387H97.0271V35.3214C97.0271 35.4885 97.0682 35.6062 97.153 35.6742C97.2364 35.741 97.3562 35.7757 97.5123 35.7757C97.5739 35.7757 97.6321 35.772 97.689 35.7658C97.7458 35.7595 97.7966 35.751 97.8413 35.7385V36.2796C97.7797 36.2919 97.6998 36.3018 97.6018 36.3104C97.5038 36.3191 97.3974 36.3229 97.2811 36.3229C96.9582 36.3229 96.7222 36.2646 96.5745 36.1483C96.4269 36.032 96.3531 35.8327 96.3531 35.5504V33.0387H95.7071V32.5275H96.3531V31.7488L97.0271 31.5248V32.5275ZM101.716 34.5328H99.0998V34.5897C99.0998 34.9921 99.1905 35.3066 99.372 35.5331C99.5534 35.7608 99.8112 35.8747 100.144 35.8747C100.386 35.8747 100.583 35.809 100.734 35.6779C100.886 35.5467 100.974 35.3549 100.999 35.1048H101.679C101.656 35.4835 101.503 35.7905 101.221 36.027C100.939 36.2634 100.57 36.3823 100.115 36.3823C99.5571 36.3823 99.136 36.2151 98.8505 35.8822C98.565 35.5479 98.4222 35.0688 98.4222 34.4425C98.4222 33.7975 98.5721 33.3037 98.8722 32.9606C99.1723 32.6178 99.5959 32.4457 100.144 32.4457C100.665 32.4457 101.057 32.5955 101.321 32.8951C101.584 33.1947 101.716 33.6415 101.716 34.2357V34.5328ZM101.021 34.0426V33.9881C101.021 33.6576 100.947 33.4014 100.798 33.2169C100.65 33.0337 100.425 32.9421 100.122 32.9421C99.8269 32.9421 99.5874 33.0436 99.4034 33.2442C99.2195 33.446 99.1276 33.7121 99.1276 34.0426H101.021ZM104.768 32.5125V33.1947C104.728 33.1799 104.685 33.1699 104.638 33.1649C104.59 33.1599 104.532 33.1575 104.464 33.1575C104.12 33.1575 103.865 33.2442 103.698 33.4175C103.532 33.5908 103.448 33.8706 103.448 34.2569V36.2709H102.757V33.1439L102.75 32.9669L102.722 32.5423H103.413L103.424 32.9879C103.424 33.1092 103.425 33.2009 103.428 33.264C103.486 33.0201 103.616 32.832 103.816 32.7008C104.017 32.5708 104.269 32.5052 104.57 32.5052L104.768 32.5125ZM108.125 33.5747H107.429V33.5277C107.429 33.3469 107.37 33.2082 107.252 33.1129C107.135 33.0164 106.958 32.9681 106.722 32.9681C106.485 32.9681 106.303 33.0139 106.173 33.1044C106.045 33.1947 105.979 33.3272 105.979 33.5005C105.979 33.7307 106.128 33.8818 106.424 33.9536L107.268 34.1676C107.59 34.2494 107.828 34.3707 107.984 34.5304C108.14 34.69 108.219 34.9055 108.219 35.1791C108.219 35.5319 108.088 35.819 107.827 36.0418C107.566 36.2634 107.179 36.3749 106.665 36.3749C106.203 36.3749 105.846 36.2709 105.596 36.0616C105.345 35.8525 105.22 35.5529 105.22 35.1641H105.94C105.94 35.3771 106.007 35.5417 106.145 35.6605C106.282 35.7795 106.482 35.8375 106.744 35.8375C106.982 35.8375 107.166 35.7855 107.297 35.6829C107.427 35.5789 107.492 35.4352 107.492 35.2509C107.492 35.0726 107.424 34.9488 107.287 34.8795C107.152 34.8113 106.953 34.7495 106.693 34.6962C106.433 34.643 106.197 34.5787 105.984 34.5007C105.771 34.4239 105.603 34.3124 105.479 34.1676C105.354 34.0228 105.292 33.8285 105.292 33.5833C105.292 33.2554 105.422 32.9842 105.681 32.7726C105.94 32.5596 106.284 32.4532 106.715 32.4532C107.116 32.4532 107.45 32.5361 107.719 32.7008C107.989 32.8666 108.125 33.1229 108.125 33.4695V33.5747Z" fill="#6E8889"/>
</svg>
