<svg width="60" height="60" viewBox="0 0 60 60" fill="none" xmlns="http://www.w3.org/2000/svg">
<path d="M43.6365 37.9087V22.091L30.0006 14.1816L16.3638 22.091V37.9087L30.0006 45.818L43.6365 37.9087Z" fill="#036063"/>
<path d="M54.8169 25.9079C52.7911 25.9079 51.1162 27.3916 50.793 29.3272H44.0027V21.9156L40.8513 20.0961L45.1745 15.7719C46.8208 16.9543 49.0336 16.7526 50.4413 15.3449C52.0367 13.7495 52.0367 11.1535 50.4413 9.55809C48.8425 7.95933 46.2545 7.95852 44.6549 9.55809C43.223 10.99 43.0873 13.2221 44.2257 14.8192L39.6463 19.4002L30.6683 14.2163V9.20689C32.606 8.88535 34.0915 7.21033 34.0915 5.18286C34.0915 2.92652 32.2562 1.09082 29.9999 1.09082C27.7436 1.09082 25.9079 2.92652 25.9079 5.18286C25.9079 7.20765 27.3899 8.88136 29.3237 9.20607V14.2209L20.3498 19.4022L15.7706 14.8229C16.9121 13.2256 16.7775 10.9912 15.3445 9.55809C13.7457 7.95933 11.1576 7.95852 9.55808 9.55809C7.96267 11.1535 7.96267 13.7495 9.55808 15.3449C10.9601 16.7469 13.1702 16.9575 14.8212 15.775L19.1446 20.0982L15.9966 21.9156V29.3272H9.20639C8.88315 27.3916 7.20831 25.9079 5.18242 25.9079C2.92609 25.9079 1.09082 27.7436 1.09082 29.9999C1.09082 32.2562 2.92609 34.0919 5.18242 34.0919C7.20875 34.0919 8.8836 32.6078 9.20662 30.6718H15.9966V38.0842L19.1485 39.904L14.8256 44.2283C13.1753 43.043 10.963 43.25 9.55809 44.6549C7.96268 46.2503 7.96268 48.8463 9.55809 50.4417C11.1568 52.0405 13.7449 52.0413 15.3445 50.4417C16.7762 49.01 16.9121 46.7783 15.7741 45.1811L20.3539 40.5999L29.3237 45.7789V50.7938C27.3899 51.1185 25.9079 52.7922 25.9079 54.817C25.9079 57.0733 27.7436 58.909 29.9999 58.909C32.2562 58.909 34.0915 57.0733 34.0915 54.817C34.0915 52.7895 32.606 51.1145 30.6683 50.7929V45.7835L39.6459 40.5998L44.2262 45.18C43.0873 46.7771 43.2228 49.0096 44.6549 50.4417C46.2537 52.0405 48.8417 52.0413 50.4413 50.4417C52.0367 48.8463 52.0367 46.2503 50.4413 44.6549C49.0574 43.271 46.8477 43.0269 45.1749 44.2274L40.8513 39.9038L44.0028 38.0842V30.6718H50.7928C51.1158 32.6078 52.7906 34.0919 54.817 34.0919C57.0733 34.0919 58.909 32.2562 58.909 29.9999C58.909 27.7436 57.0733 25.9079 54.8169 25.9079ZM42.2099 37.0495L29.9999 44.099L17.7894 37.0495V22.9504L29.9999 15.9008L42.2099 22.9504V37.0495Z" fill="#036063"/>
<path d="M30.0002 26.8784C31.386 26.8784 32.5093 25.7551 32.5093 24.3694C32.5093 22.9837 31.386 21.8604 30.0002 21.8604C28.6145 21.8604 27.4912 22.9837 27.4912 24.3694C27.4912 25.7551 28.6145 26.8784 30.0002 26.8784Z" stroke="white" stroke-width="2" stroke-miterlimit="10" stroke-linecap="round" stroke-linejoin="round"/>
<path d="M35.732 33.0352V36.2832H24.2686V33.0352C24.2686 30.9986 25.9186 29.3486 27.9551 29.3486H32.0455C34.082 29.3486 35.732 30.9986 35.732 33.0352Z" stroke="white" stroke-miterlimit="10" stroke-linecap="round" stroke-linejoin="round"/>
<path d="M30.0002 26.8784C31.386 26.8784 32.5093 25.7551 32.5093 24.3694C32.5093 22.9837 31.386 21.8604 30.0002 21.8604C28.6145 21.8604 27.4912 22.9837 27.4912 24.3694C27.4912 25.7551 28.6145 26.8784 30.0002 26.8784Z" fill="white" stroke="white" stroke-width="2" stroke-miterlimit="10" stroke-linecap="round" stroke-linejoin="round"/>
<path d="M35.732 33.0352V36.2832H24.2686V33.0352C24.2686 30.9986 25.9186 29.3486 27.9551 29.3486H32.0455C34.082 29.3486 35.732 30.9986 35.732 33.0352Z" fill="white" stroke="white" stroke-miterlimit="10" stroke-linecap="round" stroke-linejoin="round"/>
</svg>
