<svg width="500" height="77" viewBox="0 0 500 77" fill="none" xmlns="http://www.w3.org/2000/svg">
<g filter="url(#filter0_d_129_31969)">
<path fill-rule="evenodd" clip-rule="evenodd" d="M5 5.83008V71.9328H29.1327V60.391H54.3147C58.5117 59.5166 66.6236 56.1136 72.1519 50.9478C82.2334 41.5273 81.0706 27.8643 75.2997 19.9949C68.0636 10.1276 60.6102 6.87933 53.2655 5.83008H5ZM29.1303 38.3588V26.8171H49.066C50.8148 27.5166 54.3123 29.755 54.3123 33.1126C54.3123 36.4702 50.8148 38.0091 49.066 38.3588H29.1303Z" fill="white"/>
<path fill-rule="evenodd" clip-rule="evenodd" d="M86.8403 5.83203V71.9347H110.973V60.393H129.86L136.68 71.9347H160.812L150.845 54.6221C150.67 54.2724 150.425 53.4679 150.845 53.0482C150.892 53.0008 151.016 52.9149 151.203 52.7861C153.081 51.4899 161.242 45.8553 160.288 31.5386C159.239 15.7999 147.172 8.45515 136.68 5.83203H86.8403ZM110.974 38.3587H131.959C133.358 38.009 136.156 36.4701 136.156 33.1125C136.156 29.7549 133.358 27.8662 131.959 27.3416H110.974V38.3587Z" fill="white"/>
<path fill-rule="evenodd" clip-rule="evenodd" d="M206.455 71.9343C218.521 71.4097 242.759 63.7502 243.179 37.3091C242.654 11.0779 215.374 5.30701 206.455 5.83164C206.348 5.83791 206.24 5.84426 206.129 5.85073C196.962 6.38548 173.347 7.76309 168.682 37.3091C168.682 61.4418 190.716 72.9836 206.455 71.9343ZM206.633 49.8772C210.712 49.6943 218.905 47.0235 219.047 37.8036C218.869 28.657 209.648 26.6448 206.633 26.8277C206.597 26.8299 206.56 26.8321 206.523 26.8344C203.424 27.0208 195.442 27.5012 193.865 37.8036C193.865 46.2186 201.313 50.2431 206.633 49.8772Z" fill="white"/>
<path d="M251.574 71.9347V5.83203H276.232V49.9005H313.48V71.9347H251.574Z" fill="white"/>
<path d="M320.823 71.9347V5.83203H347.054V71.9347H320.823Z" fill="white"/>
<path d="M354.399 5.83203V71.9347H376.434V44.6542L424.699 71.9347V5.83203H402.665V32.5879L354.399 5.83203Z" fill="white"/>
<path d="M433.095 71.9347V5.83203H495V26.817H458.277V32.0633H471.917V28.9155L481.36 38.8834L471.917 47.802V44.6542H458.277V49.9005H495V71.9347H433.095Z" fill="white"/>
</g>
<defs>
<filter id="filter0_d_129_31969" x="0" y="0.799805" width="500" height="76.2002" filterUnits="userSpaceOnUse" color-interpolation-filters="sRGB">
<feFlood flood-opacity="0" result="BackgroundImageFix"/>
<feColorMatrix in="SourceAlpha" type="matrix" values="0 0 0 0 0 0 0 0 0 0 0 0 0 0 0 0 0 0 127 0" result="hardAlpha"/>
<feOffset/>
<feGaussianBlur stdDeviation="2.5"/>
<feComposite in2="hardAlpha" operator="out"/>
<feColorMatrix type="matrix" values="0 0 0 0 1 0 0 0 0 1 0 0 0 0 1 0 0 0 0.35 0"/>
<feBlend mode="normal" in2="BackgroundImageFix" result="effect1_dropShadow_129_31969"/>
<feBlend mode="normal" in="SourceGraphic" in2="effect1_dropShadow_129_31969" result="shape"/>
</filter>
</defs>
</svg>
