<svg width="20" height="20" viewBox="0 0 20 20" fill="none" xmlns="http://www.w3.org/2000/svg">
<path d="M10.0001 7.39707C8.5665 7.39707 7.39658 8.56699 7.39658 10.0006C7.39658 11.4342 8.5665 12.6041 10.0001 12.6041C11.4337 12.6041 12.6036 11.4342 12.6036 10.0006C12.6036 8.56699 11.4337 7.39707 10.0001 7.39707ZM17.8087 10.0006C17.8087 8.92246 17.8185 7.8541 17.7579 6.77792C17.6974 5.52792 17.4122 4.41855 16.4981 3.50449C15.5821 2.58847 14.4747 2.30527 13.2247 2.24472C12.1466 2.18417 11.0782 2.19394 10.002 2.19394C8.92392 2.19394 7.85556 2.18417 6.77939 2.24472C5.52939 2.30527 4.42001 2.59042 3.50595 3.50449C2.58994 4.4205 2.30673 5.52792 2.24619 6.77792C2.18564 7.85605 2.19541 8.92441 2.19541 10.0006C2.19541 11.0768 2.18564 12.1471 2.24619 13.2232C2.30673 14.4732 2.59189 15.5826 3.50595 16.4967C4.42197 17.4127 5.52939 17.6959 6.77939 17.7564C7.85752 17.817 8.92587 17.8072 10.002 17.8072C11.0802 17.8072 12.1485 17.817 13.2247 17.7564C14.4747 17.6959 15.5841 17.4107 16.4981 16.4967C17.4142 15.5807 17.6974 14.4732 17.7579 13.2232C17.8204 12.1471 17.8087 11.0787 17.8087 10.0006ZM10.0001 14.0064C7.7833 14.0064 5.99423 12.2174 5.99423 10.0006C5.99423 7.78378 7.7833 5.99472 10.0001 5.99472C12.2169 5.99472 14.006 7.78378 14.006 10.0006C14.006 12.2174 12.2169 14.0064 10.0001 14.0064ZM14.17 6.76621C13.6524 6.76621 13.2345 6.34824 13.2345 5.83066C13.2345 5.31308 13.6524 4.89511 14.17 4.89511C14.6876 4.89511 15.1056 5.31308 15.1056 5.83066C15.1057 5.95356 15.0816 6.07528 15.0347 6.18886C14.9877 6.30243 14.9188 6.40563 14.8319 6.49253C14.745 6.57944 14.6418 6.64834 14.5282 6.69531C14.4146 6.74227 14.2929 6.76636 14.17 6.76621Z" fill="#036063"/>
</svg>
