<svg width="75" height="38" viewBox="0 0 75 38" fill="none" xmlns="http://www.w3.org/2000/svg">
<path d="M48.6206 7.87618C49.7814 8.88325 50.9246 10.0817 51.7961 11.3055V11.3415L51.6549 11.3055C45.3675 6.57672 38.0675 4.01025 29.7444 4.62735C25.3693 5.20863 20.8531 6.75355 18.5244 11.0888C17.1236 9.03849 16.1217 6.81845 15.9136 4.26645C24.1503 -4.20111 41.176 1.49724 48.6206 7.87618Z" fill="#6E8889"/>
<path d="M12.0313 9.71701L6.80938 9.78914C6.20244 9.92279 5.51438 10.0853 5.22163 10.7639C4.67824 12.0633 4.93585 13.7021 4.86876 15.2039L4.93938 15.3122H10.761V18.5969H4.93938L4.86876 18.6691V37.6921H0.0350084L-0.000244141 12.1356C0.0985552 10.2477 0.723067 8.14687 2.64589 7.47899C3.39042 7.21555 4.19839 7.10349 5.00989 7.00977H12.0313V9.71701Z" fill="#6E8889"/>
<path d="M66.6499 28.5596C66.7135 28.9026 66.9075 29.2166 67.2145 29.4259C67.5814 29.5379 67.9483 29.6569 68.3789 29.6064V32.1332L64.7447 32.0971C63.8627 31.9528 62.9806 31.498 62.522 30.6171C62.289 30.1262 62.1303 29.6064 62.0986 29.0289L62.0632 7.00977H66.6147L66.6499 28.5596Z" fill="#6E8889"/>
<path d="M74.8707 11.3053L70.3192 11.3414L70.2839 7.04595L70.3192 7.00977H74.8707V11.3053Z" fill="#6E8889"/>
<path d="M23.2166 14.5177C24.6491 16.8316 24.5714 19.7842 24.5574 22.7117H17.8183L17.7476 22.784C17.8218 24.6827 17.6913 26.6717 18.1359 28.4151C18.3229 28.8483 18.7004 29.3357 19.1944 29.3898C19.7589 29.4151 20.3341 29.3176 20.6056 28.7762C20.7962 28.3755 20.8209 27.9099 20.8526 27.4405L24.0634 27.4044C24.1375 28.9819 23.7211 30.5412 22.405 31.4834C20.5881 32.516 17.7265 32.6964 15.9483 31.4474C13.4397 29.4403 13.1998 26.2709 13.0198 23.1811C12.9987 19.9179 13.1821 16.745 15.1721 14.3374C16.7104 12.5649 19.4272 12.2472 21.523 13.0738C22.1686 13.3626 22.8108 13.8716 23.2166 14.5177Z" fill="#6E8889"/>
<path d="M35.7059 13.0024L35.7412 16.9009C35.7553 16.9333 35.7235 16.9514 35.7059 16.973C34.4922 16.417 32.6893 16.345 31.4367 16.8648L31.2956 17.0092V32.1337H26.744L26.7087 12.894H30.484C30.5687 13.19 30.6251 13.4969 30.8016 13.7605C32.0929 12.6593 34.1217 12.2984 35.7059 13.0024Z" fill="#6E8889"/>
<path d="M46.2204 13.0019L46.2557 16.9004C46.2698 16.9329 46.2381 16.951 46.2204 16.9726C44.996 16.4095 43.1297 16.3265 41.8806 16.9004L41.8101 16.9726V32.0972L37.2586 32.1333L37.2234 12.8936H40.9985C41.0373 13.1896 41.1892 13.4495 41.2808 13.7238C41.5242 13.6553 41.6866 13.3989 41.9159 13.2907C43.1084 12.594 44.929 12.3701 46.2204 13.0019Z" fill="#6E8889"/>
<path d="M58.2876 15.131C59.2756 16.9901 59.5754 19.1378 59.6636 21.3758L59.6284 21.4119C59.6777 24.4477 59.6213 27.5303 58.1465 29.9669C56.9079 31.9307 54.8051 32.4793 52.607 32.2772C50.5994 32.14 48.7364 30.3641 48.1613 28.4509C47.1946 25.6857 47.1875 22.2926 47.491 19.21C47.8402 16.7591 48.6729 13.976 51.231 13.0013C53.7572 12.1963 56.8516 12.626 58.2876 15.131Z" fill="#6E8889"/>
<path d="M74.8707 32.1333H70.3192L70.2839 12.9657L70.3192 12.8936H74.8707V32.1333Z" fill="#6E8889"/>
<path d="M54.4419 16.1425C54.8864 17.5935 54.756 19.2973 54.8301 20.9073L54.7948 26.1775C54.6218 27.2929 54.8265 28.6573 53.8068 29.3179C53.4328 29.3938 53.0128 29.3685 52.7483 29.0652C52.4271 28.762 52.3601 28.3577 52.2896 27.9462L52.1485 25.8886L52.0779 21.2682C52.1625 19.5499 51.9932 17.72 52.5013 16.1786C52.6707 15.8718 52.9742 15.6046 53.3128 15.5649C53.7892 15.5145 54.1878 15.7274 54.4419 16.1425Z" fill="#001817"/>
<path d="M20.147 15.926C20.588 16.4387 20.6056 17.1318 20.6761 17.8032C20.6974 18.5251 20.7785 19.2253 20.7468 19.9689C19.8047 20.0376 18.8203 19.9905 17.8536 20.005L17.783 19.9329C17.8499 18.6839 17.7512 17.3664 18.1358 16.251C18.2628 15.9081 18.6156 15.6626 18.9473 15.6013C19.3919 15.6013 19.8576 15.547 20.147 15.926Z" fill="#001817"/>
</svg>
