<svg width="180" height="39" viewBox="0 0 180 39" fill="none" xmlns="http://www.w3.org/2000/svg">
<path d="M25.5312 32.4746H29.2148V36.623H28.1172V33.3613H26.6289V36.623H25.5312V32.4746ZM32.3789 32.4746H33.4023V33.084C33.5352 32.8757 33.7148 32.7064 33.9414 32.5762C34.168 32.446 34.4193 32.3809 34.6953 32.3809C35.1771 32.3809 35.5859 32.5697 35.9219 32.9473C36.2578 33.3249 36.4258 33.8509 36.4258 34.5254C36.4258 35.2181 36.2565 35.7572 35.918 36.1426C35.5794 36.5254 35.1693 36.7168 34.6875 36.7168C34.4583 36.7168 34.25 36.6712 34.0625 36.5801C33.8776 36.4889 33.6823 36.3327 33.4766 36.1113V38.2012H32.3789V32.4746ZM33.4648 34.4785C33.4648 34.9447 33.5573 35.2897 33.7422 35.5137C33.9271 35.735 34.1523 35.8457 34.418 35.8457C34.6732 35.8457 34.8854 35.7441 35.0547 35.541C35.224 35.3353 35.3086 34.9993 35.3086 34.5332C35.3086 34.0983 35.2214 33.7754 35.0469 33.5645C34.8724 33.3535 34.6562 33.248 34.3984 33.248C34.1302 33.248 33.9076 33.3522 33.7305 33.5605C33.5534 33.7663 33.4648 34.0723 33.4648 34.4785ZM39.0469 34.4902C39.0469 34.1257 39.1367 33.7728 39.3164 33.4316C39.4961 33.0905 39.75 32.8301 40.0781 32.6504C40.4089 32.4707 40.7773 32.3809 41.1836 32.3809C41.8112 32.3809 42.3255 32.5853 42.7266 32.9941C43.1276 33.4004 43.3281 33.9147 43.3281 34.5371C43.3281 35.1647 43.125 35.6855 42.7188 36.0996C42.3151 36.5111 41.806 36.7168 41.1914 36.7168C40.8112 36.7168 40.4479 36.6309 40.1016 36.459C39.7578 36.2871 39.4961 36.0358 39.3164 35.7051C39.1367 35.3717 39.0469 34.9668 39.0469 34.4902ZM40.1719 34.5488C40.1719 34.9603 40.2695 35.2754 40.4648 35.4941C40.6602 35.7129 40.901 35.8223 41.1875 35.8223C41.474 35.8223 41.7135 35.7129 41.9062 35.4941C42.1016 35.2754 42.1992 34.9577 42.1992 34.541C42.1992 34.1348 42.1016 33.8223 41.9062 33.6035C41.7135 33.3848 41.474 33.2754 41.1875 33.2754C40.901 33.2754 40.6602 33.3848 40.4648 33.6035C40.2695 33.8223 40.1719 34.1374 40.1719 34.5488ZM46.1133 32.4746H47.4727L48.5039 35.3652L49.543 32.4746H50.8984V36.623H49.9648V33.8926L48.9531 36.623H48.0156L47.0508 33.8926V36.623H46.1133V32.4746ZM54.0117 32.4746H55.1094V34.1973H56.2109C56.6432 34.1973 56.9727 34.2285 57.1992 34.291C57.4284 34.3509 57.6211 34.4837 57.7773 34.6895C57.9362 34.8952 58.0156 35.1374 58.0156 35.416C58.0156 35.8171 57.8776 36.1191 57.6016 36.3223C57.3255 36.5228 56.9115 36.623 56.3594 36.623H54.0117V32.4746ZM55.1094 35.9277H56.1289C56.3945 35.9277 56.5872 35.8861 56.707 35.8027C56.8268 35.7194 56.8867 35.584 56.8867 35.3965C56.8867 35.196 56.8086 35.0592 56.6523 34.9863C56.4987 34.9108 56.2214 34.873 55.8203 34.873H55.1094V35.9277ZM58.6406 32.4746H59.7383V36.623H58.6406V32.4746ZM62.8125 32.4746H63.8203V35.7363H65.0938V32.4746H66.1055V35.7363H67.375V32.4746H68.3867V36.623H62.8125V32.4746ZM71.8086 32.4746H75.4844V36.623H74.3906V33.3652H72.8945V35.2285C72.8945 35.7025 72.8398 36.0358 72.7305 36.2285C72.6211 36.4186 72.5 36.5436 72.3672 36.6035C72.2344 36.6634 72.0208 36.6934 71.7266 36.6934C71.5521 36.6934 71.3216 36.6699 71.0352 36.623V35.8145C71.0586 35.8145 71.1198 35.8171 71.2188 35.8223C71.3333 35.8301 71.4219 35.834 71.4844 35.834C71.6328 35.834 71.724 35.7858 71.7578 35.6895C71.7917 35.5905 71.8086 35.3184 71.8086 34.873V32.4746ZM80.8906 35.3027L81.9844 35.4863C81.8438 35.8874 81.6211 36.1934 81.3164 36.4043C81.0143 36.6126 80.6354 36.7168 80.1797 36.7168C79.4583 36.7168 78.9245 36.4811 78.5781 36.0098C78.3047 35.6322 78.168 35.1556 78.168 34.5801C78.168 33.8926 78.3477 33.3548 78.707 32.9668C79.0664 32.5762 79.5208 32.3809 80.0703 32.3809C80.6875 32.3809 81.1745 32.5853 81.5312 32.9941C81.888 33.4004 82.0586 34.0241 82.043 34.8652H79.293C79.3008 35.1908 79.3893 35.4447 79.5586 35.627C79.7279 35.8066 79.9388 35.8965 80.1914 35.8965C80.3633 35.8965 80.5078 35.8496 80.625 35.7559C80.7422 35.6621 80.8307 35.5111 80.8906 35.3027ZM80.9531 34.1934C80.9453 33.8757 80.8633 33.6348 80.707 33.4707C80.5508 33.304 80.3607 33.2207 80.1367 33.2207C79.8971 33.2207 79.6992 33.3079 79.543 33.4824C79.3867 33.6569 79.3099 33.8939 79.3125 34.1934H80.9531ZM84.8984 32.4746H85.9961V33.9941H87.5664V32.4746H88.668V36.623H87.5664V34.8809H85.9961V36.623H84.8984V32.4746ZM91.7344 32.4746H92.832V33.9941H94.4023V32.4746H95.5039V36.623H94.4023V34.8809H92.832V36.623H91.7344V32.4746ZM98.6211 32.4746H99.7188V34.1973H100.82C101.253 34.1973 101.582 34.2285 101.809 34.291C102.038 34.3509 102.23 34.4837 102.387 34.6895C102.546 34.8952 102.625 35.1374 102.625 35.416C102.625 35.8171 102.487 36.1191 102.211 36.3223C101.935 36.5228 101.521 36.623 100.969 36.623H98.6211V32.4746ZM99.7188 35.9277H100.738C101.004 35.9277 101.197 35.8861 101.316 35.8027C101.436 35.7194 101.496 35.584 101.496 35.3965C101.496 35.196 101.418 35.0592 101.262 34.9863C101.108 34.9108 100.831 34.873 100.43 34.873H99.7188V35.9277ZM103.25 32.4746H104.348V36.623H103.25V32.4746ZM107.422 32.4746H108.477V35.0801L110.164 32.4746H111.242V36.623H110.188V33.9707L108.477 36.623H107.422V32.4746ZM110.051 30.791H110.586C110.555 31.1452 110.43 31.4238 110.211 31.627C109.995 31.8275 109.714 31.9277 109.367 31.9277C109.021 31.9277 108.738 31.8275 108.52 31.627C108.303 31.4238 108.18 31.1452 108.148 30.791H108.684C108.702 30.9759 108.767 31.1165 108.879 31.2129C108.991 31.3066 109.154 31.3535 109.367 31.3535C109.581 31.3535 109.743 31.3066 109.855 31.2129C109.967 31.1165 110.033 30.9759 110.051 30.791ZM122.215 33.7012L121.133 33.8965C121.096 33.6803 121.013 33.5176 120.883 33.4082C120.755 33.2988 120.589 33.2441 120.383 33.2441C120.109 33.2441 119.891 33.3392 119.727 33.5293C119.565 33.7168 119.484 34.0319 119.484 34.4746C119.484 34.9668 119.566 35.3145 119.73 35.5176C119.897 35.7207 120.12 35.8223 120.398 35.8223C120.607 35.8223 120.777 35.7637 120.91 35.6465C121.043 35.5267 121.137 35.3223 121.191 35.0332L122.27 35.2168C122.158 35.7116 121.943 36.0853 121.625 36.3379C121.307 36.5905 120.882 36.7168 120.348 36.7168C119.741 36.7168 119.257 36.5254 118.895 36.1426C118.535 35.7598 118.355 35.2298 118.355 34.5527C118.355 33.8678 118.536 33.3353 118.898 32.9551C119.26 32.5723 119.75 32.3809 120.367 32.3809C120.872 32.3809 121.273 32.4902 121.57 32.709C121.87 32.9251 122.085 33.2559 122.215 33.7012ZM127.453 35.3027L128.547 35.4863C128.406 35.8874 128.184 36.1934 127.879 36.4043C127.577 36.6126 127.198 36.7168 126.742 36.7168C126.021 36.7168 125.487 36.4811 125.141 36.0098C124.867 35.6322 124.73 35.1556 124.73 34.5801C124.73 33.8926 124.91 33.3548 125.27 32.9668C125.629 32.5762 126.083 32.3809 126.633 32.3809C127.25 32.3809 127.737 32.5853 128.094 32.9941C128.451 33.4004 128.621 34.0241 128.605 34.8652H125.855C125.863 35.1908 125.952 35.4447 126.121 35.627C126.29 35.8066 126.501 35.8965 126.754 35.8965C126.926 35.8965 127.07 35.8496 127.188 35.7559C127.305 35.6621 127.393 35.5111 127.453 35.3027ZM127.516 34.1934C127.508 33.8757 127.426 33.6348 127.27 33.4707C127.113 33.304 126.923 33.2207 126.699 33.2207C126.46 33.2207 126.262 33.3079 126.105 33.4824C125.949 33.6569 125.872 33.8939 125.875 34.1934H127.516ZM131.461 32.4746H132.555V34.1699C132.737 34.1491 132.866 34.0931 132.941 34.002C133.017 33.9108 133.108 33.7116 133.215 33.4043C133.355 32.9954 133.509 32.7337 133.676 32.6191C133.842 32.5046 134.061 32.4473 134.332 32.4473C134.415 32.4473 134.56 32.4538 134.766 32.4668L134.77 33.1934C134.48 33.1934 134.296 33.2207 134.215 33.2754C134.134 33.3327 134.047 33.5033 133.953 33.7871C133.826 34.1699 133.642 34.4056 133.402 34.4941C133.749 34.5905 134.042 34.8913 134.281 35.3965C134.294 35.4225 134.309 35.4499 134.324 35.4785L134.938 36.623H133.758L133.211 35.4238C133.099 35.1816 133.001 35.0267 132.918 34.959C132.837 34.8887 132.716 34.8535 132.555 34.8535V36.623H131.461V32.4746ZM137.02 32.4746H140.773V33.3613H139.445V36.623H138.348V33.3613H137.02V32.4746ZM143.07 34.4902C143.07 34.1257 143.16 33.7728 143.34 33.4316C143.52 33.0905 143.773 32.8301 144.102 32.6504C144.432 32.4707 144.801 32.3809 145.207 32.3809C145.835 32.3809 146.349 32.5853 146.75 32.9941C147.151 33.4004 147.352 33.9147 147.352 34.5371C147.352 35.1647 147.148 35.6855 146.742 36.0996C146.339 36.5111 145.829 36.7168 145.215 36.7168C144.835 36.7168 144.471 36.6309 144.125 36.459C143.781 36.2871 143.52 36.0358 143.34 35.7051C143.16 35.3717 143.07 34.9668 143.07 34.4902ZM144.195 34.5488C144.195 34.9603 144.293 35.2754 144.488 35.4941C144.684 35.7129 144.924 35.8223 145.211 35.8223C145.497 35.8223 145.737 35.7129 145.93 35.4941C146.125 35.2754 146.223 34.9577 146.223 34.541C146.223 34.1348 146.125 33.8223 145.93 33.6035C145.737 33.3848 145.497 33.2754 145.211 33.2754C144.924 33.2754 144.684 33.3848 144.488 33.6035C144.293 33.8223 144.195 34.1374 144.195 34.5488ZM150.184 32.4746H151.207V33.084C151.34 32.8757 151.52 32.7064 151.746 32.5762C151.973 32.446 152.224 32.3809 152.5 32.3809C152.982 32.3809 153.391 32.5697 153.727 32.9473C154.062 33.3249 154.23 33.8509 154.23 34.5254C154.23 35.2181 154.061 35.7572 153.723 36.1426C153.384 36.5254 152.974 36.7168 152.492 36.7168C152.263 36.7168 152.055 36.6712 151.867 36.5801C151.682 36.4889 151.487 36.3327 151.281 36.1113V38.2012H150.184V32.4746ZM151.27 34.4785C151.27 34.9447 151.362 35.2897 151.547 35.5137C151.732 35.735 151.957 35.8457 152.223 35.8457C152.478 35.8457 152.69 35.7441 152.859 35.541C153.029 35.3353 153.113 34.9993 153.113 34.5332C153.113 34.0983 153.026 33.7754 152.852 33.5645C152.677 33.3535 152.461 33.248 152.203 33.248C151.935 33.248 151.712 33.3522 151.535 33.5605C151.358 33.7663 151.27 34.0723 151.27 34.4785Z" fill="white"/>
<path fill-rule="evenodd" clip-rule="evenodd" d="M0 0.0107422V24.2933H8.86506V20.0535H18.1156C19.6573 19.7323 22.7984 18.6412 24.668 16.5846C26.5952 14.4647 27.9442 8.10493 25.8243 5.21415C23.1662 1.58941 20.4282 0.39618 17.7301 0.0107422H0ZM8.86452 11.9599V7.72008H16.1878C16.8302 7.97703 18.115 8.7993 18.115 10.0327C18.115 11.2661 16.8302 11.8314 16.1878 11.9599H8.86452Z" fill="white"/>
<path fill-rule="evenodd" clip-rule="evenodd" d="M30.0635 0.0117188V24.2943H38.9285V20.0545H45.8664L48.3718 24.2943H57.2368L53.5752 17.9346C53.5109 17.8061 53.421 17.5106 53.5752 17.3564C53.5926 17.339 53.6383 17.3074 53.7068 17.2601C54.3966 16.784 57.3947 14.7141 57.0441 9.45494C56.6587 3.67338 52.2261 0.975313 48.3718 0.0117188H30.0635ZM38.9291 11.9603H46.6379C47.1518 11.8318 48.1796 11.2665 48.1796 10.0331C48.1796 8.7997 47.1518 8.10591 46.6379 7.9132H38.9291V11.9603Z" fill="white"/>
<path fill-rule="evenodd" clip-rule="evenodd" d="M74.0037 24.2943C78.4362 24.1015 87.3398 21.2878 87.494 11.5748C87.3013 1.93888 77.2799 -0.181026 74.0037 0.0116927C73.9645 0.0139973 73.9245 0.0163293 73.8838 0.0187067C70.5165 0.215145 61.8417 0.721207 60.1279 11.5748C60.1279 20.4399 68.2221 24.6797 74.0037 24.2943ZM74.0692 16.1917C75.5676 16.1245 78.5772 15.1434 78.6293 11.7565C78.5642 8.39651 75.1767 7.65732 74.0692 7.72452C74.056 7.72532 74.0425 7.72613 74.0287 7.72696C72.8905 7.79546 69.9581 7.97192 69.3788 11.7565C69.3788 14.8477 72.1149 16.3261 74.0692 16.1917Z" fill="white"/>
<path d="M90.5781 24.2943V0.0117188H99.6359V16.2001H113.319V24.2943H90.5781Z" fill="white"/>
<path d="M116.016 24.2943V0.0117188H125.652V24.2943H116.016Z" fill="white"/>
<path d="M128.351 0.0117188V24.2943H136.445V14.2729L154.175 24.2943V0.0117188H146.081V9.84038L128.351 0.0117188Z" fill="white"/>
<path d="M157.259 24.2943V0.0117188H180V7.72047H166.509V9.64766H171.52V8.49135L174.989 12.153L171.52 15.4292V14.2729H166.509V16.2001H180V24.2943H157.259Z" fill="white"/>
</svg>
