<svg width="265" height="45" viewBox="0 0 265 45" fill="none" xmlns="http://www.w3.org/2000/svg">
<g filter="url(#filter0_d_129_32289)">
<path fill-rule="evenodd" clip-rule="evenodd" d="M5 5.01562V39.416H17.5589V33.4096H30.6638C32.8479 32.9546 37.0694 31.1836 39.9464 28.4952C45.1929 23.5928 44.5877 16.4824 41.5845 12.3871C37.8188 7.25208 33.94 5.56166 30.1177 5.01562H5ZM17.5569 21.9438V15.9374H27.9316C28.8416 16.3014 30.6618 17.4663 30.6618 19.2136C30.6618 20.961 28.8416 21.7618 27.9316 21.9438H17.5569Z" fill="#036063"/>
<path fill-rule="evenodd" clip-rule="evenodd" d="M47.5903 5.0166V39.417H60.1492V33.4106H69.9779L73.5271 39.417H86.086L80.8986 30.4074C80.8076 30.2253 80.6802 29.8067 80.8986 29.5883C80.9233 29.5636 80.9881 29.5189 81.0852 29.4519C82.0623 28.7773 86.3097 25.845 85.813 18.3945C85.2669 10.204 78.9875 6.3817 73.5271 5.0166H47.5903ZM60.1495 21.9441H71.0703C71.7983 21.7621 73.2544 20.9612 73.2544 19.2139C73.2544 17.4666 71.7983 16.4837 71.0703 16.2107H60.1495V21.9441Z" fill="#036063"/>
<path fill-rule="evenodd" clip-rule="evenodd" d="M109.839 39.4169C116.118 39.1439 128.732 35.1579 128.95 21.3977C128.677 7.74675 114.48 4.74355 109.839 5.01656C109.784 5.01983 109.727 5.02313 109.669 5.0265C104.899 5.30479 92.6094 6.02171 90.1816 21.3977C90.1816 33.9566 101.648 39.963 109.839 39.4169ZM109.932 27.9374C112.055 27.8422 116.319 26.4523 116.393 21.6542C116.3 16.8942 111.501 15.847 109.932 15.9422C109.914 15.9434 109.894 15.9445 109.875 15.9457C108.262 16.0427 104.108 16.2927 103.288 21.6542C103.288 26.0334 107.164 28.1278 109.932 27.9374Z" fill="#036063"/>
<path d="M133.319 39.417V5.0166H146.151V27.9502H165.536V39.417H133.319Z" fill="#6D6E70"/>
<path d="M169.357 39.417V5.0166H183.008V39.417H169.357Z" fill="#7C7D7E"/>
<path d="M186.831 5.0166V39.417H198.297V25.22L223.415 39.417V5.0166H211.948V18.9406L186.831 5.0166Z" fill="#6D6E70"/>
<path d="M227.784 39.417V5.0166H260V15.9374H240.889V18.6675H247.988V17.0294L252.902 22.2168L247.988 26.8581V25.22H240.889V27.9502H260V39.417H227.784Z" fill="#6D6E70"/>
</g>
<defs>
<filter id="filter0_d_129_32289" x="0" y="0" width="265" height="44.4512" filterUnits="userSpaceOnUse" color-interpolation-filters="sRGB">
<feFlood flood-opacity="0" result="BackgroundImageFix"/>
<feColorMatrix in="SourceAlpha" type="matrix" values="0 0 0 0 0 0 0 0 0 0 0 0 0 0 0 0 0 0 127 0" result="hardAlpha"/>
<feOffset/>
<feGaussianBlur stdDeviation="2.5"/>
<feComposite in2="hardAlpha" operator="out"/>
<feColorMatrix type="matrix" values="0 0 0 0 1 0 0 0 0 1 0 0 0 0 1 0 0 0 0.35 0"/>
<feBlend mode="normal" in2="BackgroundImageFix" result="effect1_dropShadow_129_32289"/>
<feBlend mode="normal" in="SourceGraphic" in2="effect1_dropShadow_129_32289" result="shape"/>
</filter>
</defs>
</svg>
