<svg width="72" height="80" viewBox="0 0 72 80" xmlns="http://www.w3.org/2000/svg">
<path d="M56.2028 79.4811V46.2264M56.2028 79.4811H65.5141M56.2028 79.4811H51.5472M1 46.2264V79.4811H44.2311M1 46.2264V42.9009M1 46.2264H4.99057M56.2028 46.2264V38.2453M56.2028 46.2264L37.5802 29.5991M56.2028 46.2264H52.8774M56.2028 38.2453L46.8915 29.5991H37.5802M56.2028 38.2453V4.32547M37.5802 29.5991V32.9245M37.5802 46.2264V42.9009M37.5802 46.2264H41.5708M37.5802 46.2264L19.2901 29.5991M37.5802 46.2264H34.2547M19.2901 46.2264V42.9009M19.2901 46.2264H22.9481M19.2901 46.2264L1 29.5991M19.2901 46.2264H15.6321M19.2901 29.5991H28.2689L37.5802 37.9127M19.2901 29.5991V32.9245M37.5802 37.9127V36.25M37.5802 37.9127V39.5755M1 29.5991H9.64623L19.2901 38.2453M1 29.5991V32.9245M19.2901 38.2453V36.25M19.2901 38.2453V39.5755M65.5141 79.4811H70.8349L71.5 1H65.5141M65.5141 79.4811V8.31604M65.5141 1H56.2028V4.32547M65.5141 1V2.99528M56.2028 4.32547H65.5141M65.5141 4.32547V2.99528M65.5141 4.32547V5.65566M65.5141 2.99528H68.8396M65.5141 5.65566H68.1745M65.5141 5.65566V8.31604M65.5141 8.31604H66.8443M37.5802 32.9245L52.8774 46.2264M37.5802 32.9245V36.25M52.8774 46.2264H48.8868M37.5802 36.25L48.8868 46.2264M48.8868 46.2264H45.5613M37.5802 39.5755L45.5613 46.2264M37.5802 39.5755V42.9009M45.5613 46.2264H41.5708M37.5802 42.9009L41.5708 46.2264M19.2901 32.9245L34.2547 46.2264M19.2901 32.9245V36.25M34.2547 46.2264H30.9292M19.2901 36.25L30.9292 46.2264M30.9292 46.2264H26.9387M19.2901 39.5755L26.9387 46.2264M19.2901 39.5755V42.9009M26.9387 46.2264H22.9481M19.2901 42.9009L22.9481 46.2264M1 32.9245L15.6321 46.2264M1 32.9245V36.25M15.6321 46.2264H11.6415M1 36.25L11.6415 46.2264M1 36.25V39.5755M11.6415 46.2264H8.31604M1 39.5755L8.31604 46.2264M1 39.5755V42.9009M8.31604 46.2264H4.99057M1 42.9009L4.99057 46.2264M51.5472 79.4811H44.2311M51.5472 79.4811V74.1604M44.2311 79.4811V70.8349H51.5472V74.1604M51.5472 74.1604H49.5519M52.2123 68.8396H43.566" fill="#036063" stroke-linecap="round" stroke-linejoin="round"/>
<path d="M50.8818 59.528H44.896M50.8818 57.5327H44.896V52.2119H50.8818V57.5327Z" fill="#036063" stroke-linecap="round" stroke-linejoin="round"/>
<path d="M25.6084 59.528H19.6226M25.6084 57.5327H19.6226V52.2119H25.6084V57.5327Z" fill="#036063" stroke-linecap="round" stroke-linejoin="round"/>
<path d="M25.6084 74.1608H19.6226M25.6084 72.1655H19.6226V66.8447H25.6084V72.1655Z" fill="#036063" stroke-linecap="round" stroke-linejoin="round"/>
<path d="M38.2451 59.528H32.2593M38.2451 57.5327H32.2593V52.2119H38.2451V57.5327Z" fill="#036063" stroke-linecap="round" stroke-linejoin="round"/>
<path d="M38.2451 74.1608H32.2593M38.2451 72.1655H32.2593V66.8447H38.2451V72.1655Z" fill="#036063" stroke-linecap="round" stroke-linejoin="round"/>
<path d="M12.9717 59.528H6.98584M12.9717 57.5327H6.98584V52.2119H12.9717V57.5327Z" fill="#036063" stroke-linecap="round" stroke-linejoin="round"/>
<path d="M12.9717 74.1608H6.98584M12.9717 72.1655H6.98584V66.8447H12.9717V72.1655Z" fill="#036063" stroke-linecap="round" stroke-linejoin="round"/>
</svg>
