<svg width="20" height="20" viewBox="0 0 20 20" fill="none" xmlns="http://www.w3.org/2000/svg">
<path fill-rule="evenodd" clip-rule="evenodd" d="M3.35333 7.5L3.33333 7.4425C2.88333 6.15333 2.5 4.39167 2.5 3.33333C2.5 2.875 2.875 2.5 3.33333 2.5H5.83333C6.27536 2.5 6.69928 2.67559 7.01184 2.98816C7.3244 3.30072 7.5 3.72464 7.5 4.16667V5.83333C7.5 6.27536 7.3244 6.69928 7.01184 7.01184C6.69928 7.3244 6.27536 7.5 5.83333 7.5H5.13583C5.80864 9.15748 6.80702 10.6632 8.07191 11.9281C9.3368 13.193 10.8425 14.1914 12.5 14.8642V14.1667C12.5 13.7246 12.6756 13.3007 12.9882 12.9882C13.3007 12.6756 13.7246 12.5 14.1667 12.5H15.8333C16.2754 12.5 16.6993 12.6756 17.0118 12.9882C17.3244 13.3007 17.5 13.7246 17.5 14.1667V16.6667C17.5 17.0417 17.0417 17.5 16.6667 17.5C15.2292 17.5 13.8 17.12 12.5 16.6667C8.23833 15.14 4.86 11.7617 3.35333 7.5Z" fill="white"/>
</svg>
