<svg width="171" height="64" viewBox="0 0 171 64" fill="none" xmlns="http://www.w3.org/2000/svg">
<path d="M52.5404 53.343C52.0071 53.343 51.5747 52.81 51.5747 52.1526C51.5747 51.4949 52.0071 50.9619 52.5404 50.9619H169.641C170.174 50.9619 170.606 51.4949 170.606 52.1526C170.606 52.81 170.174 53.343 169.641 53.343H52.5404Z" fill="#6E8889"/>
<path fill-rule="evenodd" clip-rule="evenodd" d="M28.1356 14.1667L22.9138 17.2522V23.4601L25.5251 21.9173L28.1356 20.376V23.921L22.9138 27.0063L19.9112 25.2339L6.76806 17.4684C4.37282 21.7031 3.00227 26.6204 3.00227 31.8653C3.00227 34.9147 3.46549 37.8528 4.32363 40.6119L1.66826 42.181C0.587415 38.9451 0 35.4749 0 31.8653C0 26.0611 1.51721 20.6194 4.16729 15.9332L4.17129 15.9353C4.67828 15.0381 5.22102 14.1759 5.7963 13.3487L7.16556 14.1567L19.9112 21.6866V15.5167L17.4537 14.0645L14.6775 12.4241C15.4907 11.7061 16.3576 11.0321 17.2753 10.4123L19.9112 11.97V12.1593V8.8494C20.8789 8.35435 21.8808 7.92177 22.9138 7.55762V13.7051L28.1356 10.6197V14.1667Z" fill="#6E8889"/>
<path fill-rule="evenodd" clip-rule="evenodd" d="M44.6198 20.3561L39.3967 17.2706L34.1412 20.3763L36.7524 21.9176L39.3629 23.4604L36.3621 25.2342L31.1392 22.1488V18.6017L31.1405 9.11128e-06L31.1392 3.07189C26.3576 3.0678 21.5101 4.3115 17.0713 6.9347C14.4899 8.45908 12.2347 10.3386 10.3293 12.4795L7.67383 10.911C9.87076 8.3344 12.5144 6.07972 15.571 4.27413C20.483 1.37184 25.8472 -0.0040855 31.1405 9.11128e-06C32.1384 9.11128e-06 33.1405 0.0490124 34.1412 0.147019V16.8293L38.9434 13.9916L39.3643 13.7442V7.55985C40.3802 7.92005 41.3815 8.3521 42.3649 8.85547L42.3663 11.9703L42.2054 12.0653L45.0065 10.4106C45.9094 11.0197 46.7763 11.6924 47.602 12.4244L44.8277 14.062L42.3977 15.4983L47.6207 18.5836L44.6198 20.3561Z" fill="#6E8889"/>
<path fill-rule="evenodd" clip-rule="evenodd" d="M47.6204 38.0546V31.8856H47.6214L42.3659 28.7805V34.9494L39.3639 33.1766V27.0067L42.3645 25.2343L58.1104 15.9336L55.5093 17.4688C53.1229 13.2295 49.6467 9.55708 45.207 6.93481C42.6264 5.40911 39.9066 4.35138 37.1431 3.73323V0.595703C40.4216 1.25546 43.653 2.46918 46.7082 4.27424C51.6211 7.17679 55.4674 11.2414 58.1104 15.9336C58.6122 16.8241 59.0687 17.7373 59.4824 18.6682L45.3669 27.0067L50.169 29.8445L50.5898 30.0926L53.0479 28.6389L55.8248 26.9997C56.0262 28.08 56.1629 29.184 56.2278 30.3067L53.5922 31.8657L53.4311 31.77L56.2329 33.4253C56.1682 34.5299 56.0329 35.6339 55.8269 36.7323L53.0513 35.0929L50.6224 33.6578V39.8284L47.6204 38.0546Z" fill="#6E8889"/>
<path fill-rule="evenodd" clip-rule="evenodd" d="M34.1406 49.5655L39.3637 46.4787V40.2703L36.7518 41.8121L34.142 43.3554V39.8084L39.3637 36.7237L42.3657 38.4979L55.5091 46.2617C57.9049 42.0264 59.2748 37.1103 59.2748 31.866C59.2748 28.8159 58.8114 25.8773 57.9532 23.1188L60.6082 21.5508C61.6898 24.7857 62.2769 28.2555 62.2769 31.866C62.2769 37.6692 60.7599 43.1114 58.1102 47.7975L58.1043 47.7949C57.5979 48.6925 57.0565 49.555 56.4808 50.3824L51.6917 47.5542L42.3643 42.0441L42.3657 47.7176V48.2144L44.8238 49.6669L47.5994 51.306C46.7862 52.0246 45.9194 52.698 45.0022 53.3171L42.3657 51.7603V51.5712V54.88C41.399 55.3751 40.3956 55.8084 39.3637 56.1739V50.0255L34.1406 53.111V49.5655Z" fill="#6E8889"/>
<path fill-rule="evenodd" clip-rule="evenodd" d="M14.6577 25.6764V31.8449L19.9125 34.9489V28.7799L22.9152 30.5536V36.7228L19.9125 38.4969L6.76943 46.2607C9.1564 50.5008 12.6325 54.1734 17.0714 56.7954C19.6526 58.3203 22.3721 59.3783 25.1356 59.9967V63.1346C21.8569 62.4757 18.6267 61.2606 15.5711 59.4555C10.6581 56.554 6.81022 52.489 4.16867 47.7966C3.66633 46.9062 3.2097 45.9936 2.79541 45.0613L7.58458 42.2323L16.9116 36.7228L12.1103 33.8865L11.6886 33.6375L9.22986 35.0901L6.45377 36.7304C6.25225 35.6501 6.11656 34.5469 6.0502 33.4228L8.68659 31.8651L8.84758 31.9588L6.0462 30.3041C6.11049 29.201 6.24553 28.0965 6.45184 26.9971L9.22598 28.6363L11.6561 30.0725V23.9033L14.6577 25.6764Z" fill="#6E8889"/>
<path fill-rule="evenodd" clip-rule="evenodd" d="M45.2064 56.7955C40.7676 59.4185 35.9203 60.6622 31.1394 60.6572V45.1272L31.1381 41.5815L25.9165 38.4971L22.9149 40.2695L25.5253 41.8113L28.1359 43.3546L22.8804 46.4598L17.6587 43.3742L14.6572 45.1474L19.8797 48.2329L17.4493 49.6671L14.6757 51.3065C15.5017 52.0388 16.3685 52.7102 17.2712 53.3197L20.0725 51.6654L19.9114 51.7596V54.874C20.8962 55.3791 21.8983 55.8095 22.9141 56.1712V49.9861L23.3351 49.7373L28.1365 46.9016V63.5839C29.138 63.6822 30.1393 63.7302 31.1381 63.7288C36.4315 63.7351 41.7955 62.3574 46.7076 59.4557C49.7633 57.6508 52.4063 55.3952 54.6041 52.8193L51.9484 51.251C50.0431 53.3911 47.7878 55.2705 45.2064 56.7955Z" fill="#6E8889"/>
<path fill-rule="evenodd" clip-rule="evenodd" d="M86.4147 43.2114L86.3472 31.0371H90.5946V35.5207H98.6176V31.0717H102.663V43.246H98.6176V38.8315H90.5609V43.2114H86.4147Z" fill="#6E8889"/>
<path fill-rule="evenodd" clip-rule="evenodd" d="M104.229 43.2283H108.274V30.9854H104.229V43.2283Z" fill="#6E8889"/>
<path fill-rule="evenodd" clip-rule="evenodd" d="M116.161 43.263C113.706 43.0332 111.285 35.0779 108.846 30.9854H113.363L117.678 39.8486L121.926 30.9854H126.477L120.476 43.263H116.161Z" fill="#6E8889"/>
<path fill-rule="evenodd" clip-rule="evenodd" d="M132.209 31.0547C134.664 31.2845 137.085 39.2399 139.524 43.3325H135.007L130.692 34.469L126.445 43.3325H121.894L127.894 31.0547H132.209Z" fill="#6E8889"/>
<path fill-rule="evenodd" clip-rule="evenodd" d="M127.035 40.9699L128.097 38.2969H133.153L134.451 40.9699H127.035Z" fill="#6E8889"/>
<path fill-rule="evenodd" clip-rule="evenodd" d="M140.03 43.2283H144.075V30.9854H140.03V43.2283Z" fill="#6E8889"/>
<path fill-rule="evenodd" clip-rule="evenodd" d="M158.03 43.2979H162.075V31.0547H158.03V43.2979Z" fill="#6E8889"/>
<path fill-rule="evenodd" clip-rule="evenodd" d="M143.619 35.4179L145.777 35.4352L150.362 31.0381H156.277L150.075 36.6768L157.474 43.2642H151.71L146.164 38.4012H143.619V35.4179Z" fill="#6E8889"/>
<path fill-rule="evenodd" clip-rule="evenodd" d="M85.1158 34.0728C85.1664 33.8945 85.1664 33.5612 85.0764 33.2566C84.9864 32.9516 84.807 32.6761 84.5652 32.4059C84.3236 32.1356 84.0205 31.871 83.6605 31.6411C83.3012 31.4111 82.8854 31.2156 82.5594 31.101C82.2337 30.9857 81.9977 30.9515 80.5257 30.934C79.0535 30.917 76.3455 30.917 74.969 30.917C73.5926 30.917 73.5478 30.917 73.3397 30.9688C73.1321 31.0205 72.761 31.1241 72.3903 31.2962C72.0194 31.4687 71.6488 31.7103 71.3565 32.0148C71.0646 32.3196 70.851 32.6875 70.7106 33.0611C70.57 33.4348 70.5028 33.814 70.4577 34.2796C70.4129 34.7451 70.3901 35.2969 70.4352 35.7798C70.48 36.2626 70.5924 36.6764 70.7947 37.0556C70.9971 37.4354 71.2892 37.7801 71.66 38.0444C72.0309 38.3091 72.4804 38.4929 72.778 38.5963C73.0757 38.6997 73.222 38.7228 74.5085 38.7344C75.7949 38.7459 78.2222 38.7459 79.4805 38.7401C80.7392 38.7344 80.8291 38.7228 80.9361 38.7804C81.0426 38.8376 81.1662 38.9644 81.2337 39.1079C81.3008 39.2517 81.312 39.4128 81.2672 39.5447C81.2226 39.677 81.1212 39.7806 81.0257 39.8552C80.9302 39.9298 80.8403 39.9759 79.0763 39.9989C77.3119 40.0219 73.8737 40.0219 72.1263 40.0334C70.3789 40.0449 70.3229 40.0681 70.3453 40.269C70.3677 40.4702 70.4688 40.8498 70.6711 41.235C70.8735 41.6201 71.1769 42.0106 71.5646 42.3212C71.9521 42.6318 72.424 42.8616 72.7951 42.9995C73.1657 43.1371 73.4355 43.1833 75.0197 43.2063C76.6042 43.2293 79.5033 43.2293 81.0201 43.2123C82.5371 43.1948 82.6719 43.1601 82.9302 43.051C83.1888 42.942 83.5707 42.758 83.9023 42.5167C84.2336 42.2754 84.5147 41.9765 84.717 41.66C84.9193 41.3439 85.0428 41.0104 85.1047 40.3782C85.1664 39.746 85.1664 38.8146 85.1552 38.2976C85.1439 37.7801 85.1216 37.6767 85.0258 37.4927C84.9304 37.3089 84.7618 37.0443 84.5428 36.7915C84.3236 36.5387 84.054 36.2972 83.7111 36.0846C83.3684 35.8719 82.9529 35.688 82.6102 35.5903C82.2673 35.4923 81.9977 35.4809 80.7168 35.4754C79.4357 35.4696 77.1436 35.4696 75.9355 35.4581C74.7277 35.4466 74.6039 35.4235 74.5085 35.372C74.4131 35.3202 74.3456 35.2395 74.3008 35.1186C74.2556 34.9982 74.2332 34.837 74.2839 34.7051C74.3343 34.5728 74.4579 34.4693 74.592 34.3978C74.7264 34.3262 74.871 34.2866 76.5115 34.2665C78.152 34.2466 81.2883 34.2466 82.9182 34.2552C84.5484 34.2634 84.6722 34.28 84.7451 34.2883C84.8182 34.2967 84.8405 34.2967 84.9022 34.2853C84.9641 34.2738 85.0653 34.2508 85.1158 34.0728Z" fill="#6E8889"/>
<path d="M78.6056 19.3301L77.1292 21.2914H72.634V22.2722H78.1869L76.7987 24.1095H72.634V26.8715H70.3423V19.3301H78.6056ZM89.4689 26.8715H86.417L84.7754 24.8763H81.2718V26.8715H78.9911V23.0163H85.4033C85.7559 23.0163 86.0535 22.941 86.2958 22.7907C86.5383 22.6405 86.6595 22.4339 86.6595 22.1707C86.6595 21.8777 86.5492 21.6578 86.3289 21.5114C86.1086 21.3648 85.8001 21.2914 85.4033 21.2914H78.9911L80.4786 19.3301H85.2161C85.6348 19.3301 86.0682 19.3696 86.5162 19.4483C86.9642 19.5273 87.3719 19.6682 87.7391 19.8712C88.1064 20.074 88.4093 20.3482 88.6481 20.694C88.8868 21.0398 89.0061 21.4832 89.0061 22.0242C89.0061 22.3173 88.9622 22.5953 88.874 22.8584C88.7858 23.1213 88.6592 23.3581 88.4938 23.5687C88.3285 23.7791 88.1266 23.9576 87.8879 24.1041C87.6492 24.2506 87.3792 24.3538 87.0781 24.414C87.2029 24.5119 87.3426 24.6358 87.4967 24.7861C87.651 24.9362 87.8567 25.1431 88.1137 25.4059L89.4689 26.8715ZM92.5978 26.8715H90.3172V19.3301H92.5978V26.8715ZM98.5694 22.1593H103.285V26.8715H98.2279C97.5889 26.8715 96.9976 26.7738 96.4541 26.5783C95.9106 26.383 95.4423 26.1142 95.0493 25.7723C94.6563 25.4305 94.3479 25.0246 94.1239 24.5549C93.8998 24.0852 93.7879 23.576 93.7879 23.0275C93.7879 22.4788 93.8998 21.9773 94.1239 21.5227C94.3479 21.0679 94.6563 20.6771 95.0493 20.35C95.4423 20.0231 95.9106 19.7715 96.4541 19.595C96.9976 19.4182 97.5889 19.3301 98.2279 19.3301H103.505L102.029 21.2914H98.2279C97.9194 21.2914 97.6329 21.3366 97.3685 21.4266C97.1041 21.5169 96.8746 21.6446 96.68 21.8101C96.4852 21.9755 96.3329 22.1688 96.2226 22.3906C96.1126 22.6124 96.0575 22.8584 96.0575 23.1288C96.0575 23.3995 96.1107 23.6455 96.2172 23.8674C96.3237 24.0889 96.4742 24.2787 96.6689 24.4366C96.8636 24.5943 97.0931 24.7166 97.3575 24.8028C97.6219 24.8892 97.912 24.9325 98.2279 24.9325H101.015V23.839H97.2033L98.5694 22.1593ZM109.752 19.2061C111.545 19.2061 112.89 19.5178 113.79 20.1416C114.69 20.7653 115.14 21.75 115.14 23.0951C115.14 24.4479 114.692 25.4361 113.796 26.0599C112.9 26.6837 111.552 26.9954 109.752 26.9954C107.945 26.9954 106.596 26.6837 105.703 26.0599C104.811 25.4361 104.365 24.4479 104.365 23.0951C104.365 21.75 104.813 20.7653 105.709 20.1416C106.605 19.5178 107.953 19.2061 109.752 19.2061ZM109.752 25.0341C110.325 25.0341 110.81 25.0096 111.207 24.9607C111.603 24.9119 111.925 24.8162 112.171 24.6733C112.417 24.5306 112.595 24.3332 112.705 24.0815C112.815 23.8296 112.87 23.501 112.87 23.0951C112.87 22.6894 112.815 22.3605 112.705 22.1089C112.595 21.857 112.417 21.6616 112.171 21.5227C111.925 21.3836 111.603 21.2895 111.207 21.2407C110.81 21.1919 110.325 21.1675 109.752 21.1675C109.179 21.1675 108.695 21.1919 108.298 21.2407C107.901 21.2895 107.58 21.3836 107.334 21.5227C107.088 21.6616 106.91 21.857 106.8 22.1089C106.689 22.3605 106.634 22.6894 106.634 23.0951C106.634 23.501 106.689 23.8296 106.8 24.0815C106.91 24.3332 107.088 24.5306 107.334 24.6733C107.58 24.8162 107.901 24.9119 108.298 24.9607C108.695 25.0096 109.179 25.0341 109.752 25.0341ZM129.893 24.9325L128.427 26.8715H124.725C124.086 26.8715 123.495 26.7738 122.951 26.5783C122.408 26.383 121.94 26.1142 121.547 25.7723C121.154 25.4305 120.845 25.0246 120.621 24.5549C120.397 24.0852 120.285 23.576 120.285 23.0275C120.285 22.4788 120.397 21.9773 120.621 21.5227C120.845 21.0679 121.154 20.6771 121.547 20.35C121.94 20.0231 122.408 19.7715 122.951 19.595C123.495 19.4182 124.086 19.3301 124.725 19.3301H129.893L128.427 21.2914H124.725C124.417 21.2914 124.13 21.3366 123.866 21.4266C123.602 21.5169 123.374 21.6429 123.183 21.8044C122.992 21.9659 122.841 22.1593 122.731 22.385C122.621 22.6104 122.566 22.8584 122.566 23.1288C122.566 23.3995 122.619 23.6455 122.726 23.8674C122.832 24.0889 122.983 24.2787 123.177 24.4366C123.372 24.5943 123.602 24.7166 123.866 24.8028C124.13 24.8892 124.417 24.9325 124.725 24.9325H129.893ZM135.842 19.2061C137.634 19.2061 138.98 19.5178 139.88 20.1416C140.78 20.7653 141.23 21.75 141.23 23.0951C141.23 24.4479 140.782 25.4361 139.885 26.0599C138.989 26.6837 137.642 26.9954 135.842 26.9954C134.035 26.9954 132.685 26.6837 131.793 26.0599C130.901 25.4361 130.454 24.4479 130.454 23.0951C130.454 21.75 130.902 20.7653 131.799 20.1416C132.695 19.5178 134.043 19.2061 135.842 19.2061ZM135.842 25.0341C136.415 25.0341 136.9 25.0096 137.296 24.9607C137.693 24.9119 138.014 24.8162 138.26 24.6733C138.507 24.5306 138.685 24.3332 138.795 24.0815C138.905 23.8296 138.96 23.501 138.96 23.0951C138.96 22.6894 138.905 22.3605 138.795 22.1089C138.685 21.857 138.507 21.6616 138.26 21.5227C138.014 21.3836 137.693 21.2895 137.296 21.2407C136.9 21.1919 136.415 21.1675 135.842 21.1675C135.269 21.1675 134.784 21.1919 134.388 21.2407C133.991 21.2895 133.67 21.3836 133.424 21.5227C133.178 21.6616 133 21.857 132.889 22.1089C132.779 22.3605 132.724 22.6894 132.724 23.0951C132.724 23.501 132.779 23.8296 132.889 24.0815C133 24.3332 133.178 24.5306 133.424 24.6733C133.67 24.8162 133.991 24.9119 134.388 24.9607C134.784 25.0096 135.269 25.0341 135.842 25.0341ZM147.543 19.2061C149.335 19.2061 150.681 19.5178 151.581 20.1416C152.481 20.7653 152.93 21.75 152.93 23.0951C152.93 24.4479 152.482 25.4361 151.586 26.0599C150.69 26.6837 149.342 26.9954 147.543 26.9954C145.736 26.9954 144.386 26.6837 143.494 26.0599C142.601 25.4361 142.155 24.4479 142.155 23.0951C142.155 21.75 142.603 20.7653 143.499 20.1416C144.395 19.5178 145.743 19.2061 147.543 19.2061ZM147.543 25.0341C148.116 25.0341 148.6 25.0096 148.997 24.9607C149.394 24.9119 149.715 24.8162 149.961 24.6733C150.207 24.5306 150.385 24.3332 150.495 24.0815C150.606 23.8296 150.661 23.501 150.661 23.0951C150.661 22.6894 150.606 22.3605 150.495 22.1089C150.385 21.857 150.207 21.6616 149.961 21.5227C149.715 21.3836 149.394 21.2895 148.997 21.2407C148.6 21.1919 148.116 21.1675 147.543 21.1675C146.97 21.1675 146.485 21.1919 146.088 21.2407C145.692 21.2895 145.37 21.3836 145.124 21.5227C144.878 21.6616 144.7 21.857 144.59 22.1089C144.48 22.3605 144.425 22.6894 144.425 23.0951C144.425 23.501 144.48 23.8296 144.59 24.0815C144.7 24.3332 144.878 24.5306 145.124 24.6733C145.37 24.8162 145.692 24.9119 146.088 24.9607C146.485 25.0096 146.97 25.0341 147.543 25.0341ZM162.075 24.9325L160.599 26.8715H154.087V19.3301H156.368V24.9325H162.075Z" fill="#6E8889"/>
</svg>
