<svg width="619" height="619" viewBox="0 0 619 619" fill="none" xmlns="http://www.w3.org/2000/svg">
<rect x="257.707" y="53.7109" width="74" height="74" rx="2.5" transform="rotate(-45 257.707 53.7109)" stroke="#036063"/>
<rect x="257.707" y="309.777" width="74" height="74" rx="2.5" transform="rotate(-45 257.707 309.777)" stroke="#036063"/>
<rect x="289" y="310.213" width="30" height="30" rx="3" transform="rotate(-45 289 310.213)" fill="#036063"/>
<rect x="257.707" y="565.843" width="74" height="74" rx="2.5" transform="rotate(-45 257.707 565.843)" stroke="#036063"/>
<rect x="383.707" y="181.033" width="74" height="74" rx="2.5" transform="rotate(-45 383.707 181.033)" stroke="#036063"/>
<rect x="-0.707107" width="74" height="74" rx="2.5" transform="matrix(-0.707107 -0.707107 -0.707107 0.707107 233.859 180.533)" stroke="#036063"/>
<rect x="385.707" y="437.033" width="74" height="74" rx="2.5" transform="rotate(-45 385.707 437.033)" stroke="#036063"/>
<rect x="-0.707107" width="74" height="74" rx="2.5" transform="matrix(-0.707107 -0.707107 -0.707107 0.707107 231.859 436.533)" stroke="#036063"/>
<rect x="512.707" y="310.033" width="74" height="74" rx="2.5" transform="rotate(-45 512.707 310.033)" stroke="#036063"/>
<rect x="-0.707107" width="74" height="74" rx="2.5" transform="matrix(-0.707107 -0.707107 -0.707107 0.707107 104.859 309.533)" stroke="#036063"/>
</svg>
