<svg width="99" height="38" viewBox="0 0 99 38" fill="none" xmlns="http://www.w3.org/2000/svg">
<path d="M9.10111 32.3717V33.2196H6.84522V34.4527H8.95499V35.3007H6.84522V36.6976H9.17412V37.5599H5.78516V32.3717H9.10111ZM11.0158 32.3789V36.6772H13.137V37.5599H9.93291V32.3789H11.0158ZM17.0908 32.3717V33.2196H14.8349V34.4527H16.9447V35.3007H14.8349V36.6976H17.1639V37.5599H13.7749V32.3717H17.0908ZM18.6895 32.3932L19.9835 36.4632L21.2854 32.3932H22.3318L20.5095 37.5599H19.3525L17.5324 32.3932H18.6895ZM25.0988 32.3717L26.8163 37.5599H25.7471L25.3922 36.4416H23.434L23.0633 37.5599H22.051L23.8391 32.3717H25.0988ZM23.7079 35.6009H25.1251L24.4406 33.3907L23.7079 35.6009ZM30.5544 32.3717V33.2339H29.0813V37.5599H28.0144V33.2339H26.5424V32.3717H30.5544ZM35.3915 34.9167C35.3915 35.4429 35.3001 35.9225 35.1186 36.3567C34.9373 36.792 34.6634 37.1221 34.2981 37.3494C33.933 37.5754 33.5086 37.6891 33.0248 37.6891C32.2762 37.6891 31.6932 37.457 31.2755 36.9918C30.8579 36.5266 30.6491 35.8735 30.6491 35.0328C30.6491 34.1705 30.8579 33.4935 31.2744 33.002C31.6909 32.5105 32.2739 32.2641 33.0248 32.2641C33.811 32.2641 34.4021 32.5152 34.798 33.0163C35.1929 33.5174 35.3915 34.1501 35.3915 34.9167ZM33.0054 36.8686C33.4618 36.8686 33.7893 36.6916 33.9867 36.3364C34.1852 35.9812 34.2845 35.4992 34.2845 34.8892C34.2845 34.3379 34.1772 33.8941 33.9616 33.5605C33.7471 33.2269 33.4389 33.0593 33.0385 33.0593C32.622 33.0593 32.3048 33.2232 32.0869 33.5497C31.8677 33.8775 31.7594 34.3439 31.7594 34.949C31.7594 35.5841 31.8643 36.0626 32.0743 36.3854C32.2854 36.7083 32.5957 36.8686 33.0054 36.8686ZM38.3138 32.3717C38.8717 32.3717 39.2779 32.5044 39.5346 32.7699C39.7903 33.0342 39.9192 33.3512 39.9192 33.7207C39.9192 34.0413 39.8348 34.308 39.6659 34.5197C39.497 34.7325 39.237 34.8905 38.8855 34.9933C39.1627 35.0232 39.3658 35.1081 39.4936 35.2457C39.6214 35.3832 39.7069 35.6235 39.7481 35.968C39.7892 36.3124 39.8325 36.6365 39.8792 36.9415C39.926 37.2466 39.9922 37.4523 40.0767 37.5599H38.906L38.7826 36.6246C38.7381 36.2777 38.6915 35.9968 38.6434 35.7851C38.5955 35.5722 38.4313 35.4657 38.1506 35.4657H37.1704V37.5599H36.0909V32.3717H38.3138ZM38.0638 34.6392C38.2932 34.6392 38.4746 34.57 38.6081 34.4312C38.7417 34.2912 38.8091 34.1119 38.8091 33.893C38.8091 33.6658 38.7473 33.4923 38.6252 33.3715C38.5021 33.252 38.3194 33.1909 38.0764 33.1909H37.1373V34.6392H38.0638ZM57.7656 32.3717V33.2196H55.5097V34.4527H57.6196V35.3007H55.5097V36.6976H57.8387V37.5599H54.4498V32.3717H57.7656ZM62.2546 33.8224V33.8571H61.2345V33.8224C61.2139 33.5832 61.1352 33.3979 60.9983 33.265C60.8615 33.1336 60.672 33.0665 60.4312 33.0665C60.1951 33.0665 59.9998 33.13 59.8458 33.2543C59.6918 33.3798 59.6154 33.5521 59.6154 33.771C59.6154 34.0161 59.7249 34.1884 59.9429 34.2865C60.1619 34.3845 60.51 34.4886 60.9869 34.5986C61.4639 34.7086 61.8176 34.8785 62.047 35.1092C62.2764 35.3413 62.3916 35.6367 62.3916 35.9968C62.3916 36.5015 62.1976 36.908 61.8097 37.2179C61.4216 37.5276 60.9184 37.6819 60.3011 37.6819C59.6347 37.6819 59.1452 37.536 58.8325 37.2454C58.5211 36.9547 58.3647 36.5074 58.3647 35.9022H59.4453V35.9442C59.4453 36.2694 59.5229 36.5062 59.6792 36.6569C59.8357 36.8076 60.0569 36.8829 60.3445 36.8829C60.6218 36.8829 60.8466 36.8184 61.02 36.688C61.1946 36.5588 61.2813 36.3806 61.2813 36.1546C61.2813 35.9597 61.2197 35.8197 61.0976 35.7336C60.9745 35.6475 60.793 35.5734 60.5522 35.5123L60.3787 35.4705C59.8275 35.3258 59.4282 35.1786 59.1806 35.0291C58.9342 34.8797 58.7618 34.711 58.6659 34.5244C58.5701 34.3379 58.5221 34.1298 58.5221 33.9013C58.5267 33.3871 58.706 32.9888 59.0585 32.7077C59.4123 32.4266 59.8869 32.2856 60.4814 32.2856C61.0303 32.2856 61.4627 32.4207 61.78 32.6911C62.0961 32.9613 62.2546 33.338 62.2546 33.8224ZM67.0323 34.0652H65.9517C65.9221 33.7663 65.8411 33.5402 65.7076 33.3871C65.5729 33.2328 65.3869 33.1562 65.1485 33.1562C64.789 33.1562 64.5128 33.3297 64.32 33.6777C64.1271 34.0257 64.0313 34.4946 64.0313 35.083C64.0313 35.669 64.1192 36.1116 64.2972 36.4117C64.474 36.7119 64.7331 36.8614 65.0743 36.8614C65.3299 36.8614 65.5421 36.7694 65.7076 36.5828C65.8742 36.3974 65.9563 36.1629 65.9563 35.8807H67.0734C67.0734 36.4178 66.8966 36.8531 66.544 37.1844C66.1902 37.5156 65.7339 37.6819 65.1747 37.6819C64.4638 37.6819 63.9104 37.4511 63.5166 36.9906C63.1219 36.529 62.9246 35.8903 62.9246 35.0758C62.9246 34.2625 63.1287 33.6036 63.5361 33.1C63.9447 32.5953 64.4969 32.3429 65.193 32.3429C65.7166 32.3429 66.1526 32.4973 66.5017 32.807C66.851 33.1155 67.0277 33.5354 67.0323 34.0652ZM70.3404 32.3717L72.0577 37.5599H70.9885L70.6336 36.4416H68.6755L68.3047 37.5599H67.2924L69.0806 32.3717H70.3404ZM68.9494 35.6009H70.3666L69.682 33.3907L68.9494 35.6009ZM73.758 32.3789V36.6772H75.8791V37.5599H72.675V32.3789H73.758ZM79.0924 32.3717L80.8097 37.5599H79.7405L79.3857 36.4416H77.4276L77.0567 37.5599H76.0446L77.8327 32.3717H79.0924ZM77.7015 35.6009H79.1186L78.434 33.3907L77.7015 35.6009ZM84.5479 32.3717V33.2339H83.0748V37.5599H82.0079V33.2339H80.5359V32.3717H84.5479ZM89.3849 34.9167C89.3849 35.4429 89.2935 35.9225 89.1121 36.3567C88.9308 36.792 88.657 37.1221 88.2917 37.3494C87.9266 37.5754 87.5021 37.6891 87.0183 37.6891C86.2698 37.6891 85.6867 37.457 85.269 36.9918C84.8514 36.5266 84.6426 35.8735 84.6426 35.0328C84.6426 34.1705 84.8514 33.4935 85.2679 33.002C85.6845 32.5105 86.2674 32.2641 87.0183 32.2641C87.8045 32.2641 88.3957 32.5152 88.7915 33.0163C89.1864 33.5174 89.3849 34.1501 89.3849 34.9167ZM86.9989 36.8686C87.4553 36.8686 87.7829 36.6916 87.9802 36.3364C88.1787 35.9812 88.2781 35.4992 88.2781 34.8892C88.2781 34.3379 88.1708 33.8941 87.9551 33.5605C87.7406 33.2269 87.4324 33.0593 87.0319 33.0593C86.6155 33.0593 86.2982 33.2232 86.0803 33.5497C85.8612 33.8775 85.753 34.3439 85.753 34.949C85.753 35.5841 85.8578 36.0626 86.0679 36.3854C86.279 36.7083 86.5893 36.8686 86.9989 36.8686ZM92.3072 32.3717C92.8652 32.3717 93.2715 32.5044 93.5282 32.7699C93.7837 33.0342 93.9127 33.3512 93.9127 33.7207C93.9127 34.0413 93.8282 34.308 93.6594 34.5197C93.4905 34.7325 93.2304 34.8905 92.8789 34.9933C93.1562 35.0232 93.3593 35.1081 93.4871 35.2457C93.6148 35.3832 93.7004 35.6235 93.7416 35.968C93.7826 36.3124 93.826 36.6365 93.8727 36.9415C93.9196 37.2466 93.9857 37.4523 94.0701 37.5599H92.8994L92.7762 36.6246C92.7317 36.2777 92.6849 35.9968 92.637 35.7851C92.589 35.5722 92.4248 35.4657 92.144 35.4657H91.1639V37.5599H90.0845V32.3717H92.3072ZM92.0573 34.6392C92.2866 34.6392 92.4681 34.57 92.6016 34.4312C92.7351 34.2912 92.8025 34.1119 92.8025 33.893C92.8025 33.6658 92.7409 33.4923 92.6187 33.3715C92.4955 33.252 92.313 33.1909 92.0699 33.1909H91.1308V34.6392H92.0573ZM44.3763 33.8224V33.8571H43.3562V33.8224C43.3356 33.5832 43.2569 33.3979 43.12 33.265C42.9831 33.1336 42.7936 33.0665 42.5528 33.0665C42.3167 33.0665 42.1215 33.13 41.9674 33.2543C41.8134 33.3798 41.737 33.5521 41.737 33.771C41.737 34.0161 41.8465 34.1884 42.0646 34.2865C42.2836 34.3845 42.6316 34.4886 43.1085 34.5986C43.5856 34.7086 43.9392 34.8785 44.1686 35.1092C44.398 35.3413 44.5133 35.6367 44.5133 35.9968C44.5133 36.5015 44.3192 36.908 43.9313 37.2179C43.5433 37.5276 43.0401 37.6819 42.4228 37.6819C41.7564 37.6819 41.2669 37.536 40.9542 37.2454C40.6427 36.9547 40.4863 36.5074 40.4863 35.9022H41.567V35.9442C41.567 36.2694 41.6446 36.5062 41.8008 36.6569C41.9572 36.8076 42.1785 36.8829 42.466 36.8829C42.7434 36.8829 42.9683 36.8184 43.1416 36.688C43.3162 36.5588 43.4029 36.3806 43.4029 36.1546C43.4029 35.9597 43.3413 35.8197 43.2192 35.7336C43.096 35.6475 42.9146 35.5734 42.6738 35.5123L42.5004 35.4705C41.9492 35.3258 41.5499 35.1786 41.3022 35.0291C41.0558 34.8797 40.8835 34.711 40.7876 34.5244C40.6917 34.3379 40.6438 34.1298 40.6438 33.9013C40.6484 33.3871 40.8275 32.9888 41.1801 32.7077C41.5338 32.4266 42.0085 32.2856 42.603 32.2856C43.1519 32.2856 43.5843 32.4207 43.9016 32.6911C44.2176 32.9613 44.3763 33.338 44.3763 33.8224ZM50.303 33.3775C50.303 33.6275 50.2277 33.8643 50.0783 34.0879C49.9277 34.3128 49.6823 34.5197 49.3446 34.7122L50.343 35.7659C50.4171 35.5698 50.4685 35.37 50.4981 35.1679C50.529 34.9646 50.5437 34.6884 50.5437 34.3379H51.556C51.556 34.7672 51.5171 35.1416 51.4395 35.461C51.362 35.7791 51.2159 36.1211 51.0025 36.4847L52.0078 37.5742H50.7286L50.3441 37.0935C50.0851 37.3063 49.8306 37.4594 49.5785 37.5539C49.3263 37.6484 49.0478 37.6962 48.742 37.6962C48.1897 37.6962 47.7401 37.5563 47.3933 37.2764C47.0464 36.9954 46.873 36.6139 46.873 36.1307C46.873 35.8126 46.9632 35.5136 47.1422 35.2337C47.3214 34.9538 47.577 34.7122 47.9067 34.5113C47.7037 34.3438 47.5542 34.1681 47.4573 33.985C47.3601 33.8021 47.3111 33.6107 47.3111 33.4122C47.3111 33.0665 47.4435 32.7843 47.7094 32.5642C47.9741 32.3454 48.3461 32.2354 48.8253 32.2354C49.2852 32.2354 49.6447 32.3334 49.9036 32.5307C50.1638 32.7281 50.2962 33.0103 50.303 33.3775ZM48.8196 34.1513C48.977 34.0329 49.1004 33.9085 49.1871 33.7806C49.2737 33.6513 49.3172 33.5246 49.3172 33.3979C49.3172 33.2579 49.2737 33.1443 49.1871 33.057C49.1004 32.9697 48.9794 32.9254 48.8253 32.9254C48.6782 32.9254 48.5583 32.9673 48.4648 33.0498C48.3712 33.1323 48.3244 33.2448 48.3244 33.3847C48.3244 33.5007 48.3758 33.6323 48.4784 33.7782C48.5811 33.9241 48.694 34.0485 48.8196 34.1513ZM49.7211 36.5194L48.475 35.1918C48.2925 35.3198 48.1578 35.4538 48.071 35.5924C47.9855 35.7312 47.9433 35.8831 47.9433 36.0458C47.9433 36.2909 48.0243 36.4966 48.1863 36.6605C48.3495 36.8256 48.5583 36.908 48.8117 36.908C48.9566 36.908 49.1095 36.8722 49.2715 36.8016C49.4336 36.7298 49.583 36.6354 49.7211 36.5194ZM98.3697 33.8224V33.8571H97.3496V33.8224C97.3291 33.5832 97.2503 33.3979 97.1135 33.265C96.9766 33.1336 96.7871 33.0665 96.5463 33.0665C96.3102 33.0665 96.115 33.13 95.9609 33.2543C95.807 33.3798 95.7305 33.5521 95.7305 33.771C95.7305 34.0161 95.84 34.1884 96.058 34.2865C96.277 34.3845 96.6251 34.4886 97.102 34.5986C97.579 34.7086 97.9327 34.8785 98.1621 35.1092C98.3915 35.3413 98.5067 35.6367 98.5067 35.9968C98.5067 36.5015 98.3127 36.908 97.9248 37.2179C97.5367 37.5276 97.0335 37.6819 96.4162 37.6819C95.7498 37.6819 95.2604 37.536 94.9476 37.2454C94.6362 36.9547 94.4798 36.5074 94.4798 35.9022H95.5604V35.9442C95.5604 36.2694 95.638 36.5062 95.7943 36.6569C95.9508 36.8076 96.172 36.8829 96.4596 36.8829C96.7369 36.8829 96.9617 36.8184 97.1352 36.688C97.3097 36.5588 97.3964 36.3806 97.3964 36.1546C97.3964 35.9597 97.3348 35.8197 97.2127 35.7336C97.0896 35.6475 96.9081 35.5734 96.6673 35.5123L96.4939 35.4705C95.9426 35.3258 95.5434 35.1786 95.2957 35.0291C95.0493 34.8797 94.8769 34.711 94.781 34.5244C94.6852 34.3379 94.6372 34.1298 94.6372 33.9013C94.6418 33.3871 94.8211 32.9888 95.1736 32.7077C95.5274 32.4266 96.002 32.2856 96.5965 32.2856C97.1454 32.2856 97.5778 32.4207 97.8951 32.6911C98.2112 32.9613 98.3697 33.338 98.3697 33.8224Z" fill="#6E8889"/>
<path d="M9.89028 1.992V11.7581C9.89028 12.8538 10.7665 13.7501 11.8374 13.7501C12.9083 13.7501 13.7844 12.8538 13.7844 11.7581V1.992C13.7844 0.896299 12.9083 0 11.8374 0C10.7665 0 9.89028 0.896299 9.89028 1.992ZM3.89923 16.4297C3.89923 20.769 7.33752 24.2867 11.5789 24.2867C15.8202 24.2867 19.2586 20.769 19.2586 16.4297C19.2586 13.3431 17.5187 10.6729 14.9879 9.38783V5.10551C19.7189 6.59461 23.1577 11.1011 23.1577 16.4297C23.1577 22.9723 17.9737 28.276 11.5789 28.276C5.18414 28.276 0 22.9723 0 16.4297C0 10.9088 3.69145 6.27004 8.68686 4.9559V9.14934C5.87907 10.3182 3.89923 13.1372 3.89923 16.4297ZM79.481 5.58599H83.7716L94.0072 20.1526V5.58599H98.5073V27.7211H94.1837L83.9811 13.2007V27.7211H79.481V5.58599ZM60.9509 5.27765H73.9219V9.40878H65.451V13.3856H73.9219V17.4551H65.451V23.2817H73.9219V27.4127H60.9509V5.27765ZM43.198 5.58599H58.0747V9.74788H52.844V27.7211H48.2447V9.74788H43.198V5.58599ZM40.3032 8.59686L36.9501 11.351C35.7754 9.83001 34.5787 9.06957 33.36 9.06957C32.7644 9.06957 32.279 9.21862 31.904 9.51153C31.5235 9.80951 31.336 10.1435 31.336 10.5135C31.336 10.8834 31.4683 11.2379 31.7386 11.5667C32.1081 12.0087 33.2166 12.954 35.064 14.4082C36.7902 15.7544 37.8381 16.6022 38.2075 16.9515C39.123 17.8148 39.7738 18.6369 40.1598 19.423C40.5403 20.2142 40.7334 21.0724 40.7334 22.0023C40.7334 23.8212 40.0605 25.3164 38.7094 26.5034C37.3637 27.6851 35.6044 28.276 33.4317 28.276C31.7386 28.276 30.266 27.8906 29.0087 27.1199C27.7514 26.3441 26.6704 25.1314 25.777 23.477L29.5878 21.3395C30.7349 23.292 32.0528 24.2683 33.5419 24.2683C34.3195 24.2683 34.9758 24.0576 35.5053 23.6362C36.0346 23.2149 36.2994 22.7269 36.2994 22.177C36.2994 21.6786 36.1008 21.1751 35.6982 20.6716C35.3012 20.1732 34.4187 19.4025 33.0566 18.3696C30.4645 16.4068 28.7937 14.8911 28.0381 13.8224C27.2825 12.7537 26.902 11.6901 26.902 10.6264C26.902 9.09019 27.5307 7.77481 28.7826 6.68034C30.04 5.58081 31.5897 5.03104 33.4317 5.03104C34.6173 5.03104 35.7479 5.2879 36.8178 5.79666C37.8931 6.31038 39.0513 7.24047 40.3032 8.59686Z" fill="#6E8889"/>
</svg>
