<svg width="1920" height="100" viewBox="0 0 1920 100" fill="none" xmlns="http://www.w3.org/2000/svg">
<rect width="1920" height="100" fill="#181B1D"/>
<path d="M130.094 59.5097C130.612 59.4145 131.139 59.3687 131.666 59.3726C132.318 59.3131 132.97 59.4869 133.505 59.8631C133.687 59.9986 133.833 60.1767 133.929 60.3817C134.026 60.5866 134.071 60.8123 134.061 61.0387C134.044 61.3668 133.927 61.6817 133.724 61.9401C133.521 62.1985 133.243 62.3876 132.928 62.4812C133.315 62.5592 133.664 62.7681 133.915 63.0729C134.165 63.3777 134.304 63.7597 134.306 64.1545C134.31 64.4049 134.263 64.6535 134.166 64.8845C134.069 65.1155 133.925 65.3238 133.743 65.496C133.074 65.9797 132.25 66.2004 131.428 66.1163C130.982 66.1213 130.536 66.0948 130.094 66.037V59.5097ZM130.952 62.2504H131.738C132.654 62.2504 133.181 61.7744 133.181 61.1325C133.181 60.3463 132.582 60.0362 131.738 60.0362C131.482 60.0275 131.225 60.0492 130.974 60.1011L130.952 62.2504ZM130.952 65.4528C131.191 65.4856 131.432 65.5 131.673 65.496C132.568 65.496 133.39 65.1642 133.39 64.1978C133.39 63.2313 132.604 62.9068 131.659 62.9068H130.938L130.952 65.4528ZM143.17 62.6976C143.17 64.9984 141.771 66.2173 140.061 66.2173C138.352 66.2173 137.054 64.8469 137.054 62.8274C137.054 60.8079 138.374 59.3149 140.162 59.3149C141.951 59.3149 143.17 60.7142 143.17 62.6976ZM137.977 62.8058C137.977 64.2483 138.756 65.5177 140.141 65.5177C141.526 65.5177 142.304 64.2555 142.304 62.7336C142.304 61.4065 141.583 60.0218 140.141 60.0218C138.698 60.0218 137.977 61.3344 137.977 62.8058ZM146.271 59.5097C146.819 59.4144 147.374 59.3685 147.93 59.3726C148.621 59.3004 149.313 59.4967 149.863 59.9208C150.037 60.0822 150.174 60.2791 150.265 60.4981C150.356 60.7172 150.398 60.9532 150.39 61.1902C150.394 61.5728 150.273 61.9463 150.045 62.2536C149.817 62.561 149.495 62.7853 149.127 62.8923V62.9284C149.396 63.0453 149.629 63.232 149.802 63.4692C149.974 63.7063 150.08 63.9853 150.108 64.2771C150.23 64.9013 150.403 65.5141 150.628 66.1091H149.733C149.534 65.5933 149.384 65.0595 149.286 64.5151C149.091 63.5919 148.731 63.2457 147.952 63.2097H147.137V66.0947H146.271V59.5097ZM147.137 62.5606H148.017C148.94 62.5606 149.524 62.0485 149.524 61.2912C149.524 60.5338 148.904 60.0506 147.988 60.0362C147.702 60.0297 147.416 60.0563 147.137 60.1155V62.5606ZM153.592 66.1091V59.4231H154.537L156.701 62.8058C157.147 63.4999 157.547 64.2227 157.898 64.9695C157.818 64.0752 157.797 63.2602 157.797 62.2216V59.4231H158.605V66.1091H157.739L155.619 62.7192C155.154 62.0006 154.735 61.2539 154.364 60.4834C154.414 61.32 154.436 62.1278 154.436 63.2385V66.1235L153.592 66.1091ZM166.192 59.4231H169.798V60.1444H167.065V62.373H169.589V63.0943H167.065V66.1163H166.199L166.192 59.4231ZM178.72 62.6976C178.72 64.9984 177.321 66.2173 175.619 66.2173C173.917 66.2173 172.611 64.8469 172.611 62.8274C172.611 60.8079 173.931 59.3149 175.713 59.3149C177.494 59.3149 178.72 60.7142 178.72 62.6976ZM173.534 62.8058C173.534 64.2483 174.306 65.5104 175.662 65.5104C177.018 65.5104 177.826 64.2555 177.826 62.7336C177.826 61.4065 177.105 60.0146 175.698 60.0146C174.292 60.0146 173.534 61.3344 173.534 62.8058ZM181.822 59.5097C182.369 59.4147 182.924 59.3688 183.48 59.3726C184.171 59.2996 184.864 59.496 185.413 59.9208C185.587 60.0822 185.724 60.2791 185.815 60.4981C185.906 60.7172 185.948 60.9532 185.94 61.1902C185.945 61.5719 185.825 61.9446 185.598 62.2519C185.372 62.5591 185.051 62.784 184.685 62.8923V62.9284C184.953 63.0466 185.185 63.2336 185.357 63.4705C185.529 63.7074 185.636 63.9857 185.666 64.2771C185.782 64.9016 185.954 65.5147 186.178 66.1091H185.291C185.088 65.5945 184.938 65.0604 184.844 64.5151C184.642 63.5919 184.288 63.2457 183.502 63.2097H182.687V66.0947H181.822V59.5097ZM182.687 62.5606H183.574C184.49 62.5606 185.082 62.0485 185.082 61.2912C185.082 60.5338 184.454 60.0506 183.538 60.0362C183.252 60.0302 182.967 60.0568 182.687 60.1155V62.5606ZM198.865 63.1736C198.821 62.2432 198.756 61.1181 198.771 60.2886C198.54 61.0676 198.259 61.9042 197.927 62.8274L196.744 66.073H196.088L195.006 62.8851C194.689 61.9403 194.422 61.082 194.234 60.2886C194.234 61.1181 194.169 62.2432 194.104 63.2457L193.931 66.1307H193.102L193.571 59.4448H194.674L195.814 62.676C196.088 63.5054 196.319 64.2339 196.484 64.9335H196.521C196.686 64.2555 196.924 63.491 197.242 62.676L198.432 59.4448H199.535L199.954 66.1307H199.11L198.865 63.1736ZM208.904 62.6976C208.904 64.9984 207.505 66.2173 205.803 66.2173C204.101 66.2173 202.795 64.8469 202.795 62.8274C202.795 60.8079 204.115 59.3149 205.904 59.3149C207.693 59.3149 208.904 60.7142 208.904 62.6976ZM203.719 62.8058C203.719 64.2483 204.49 65.5104 205.882 65.5104C207.274 65.5104 208.046 64.2555 208.046 62.7336C208.046 61.4065 207.325 60.0146 205.882 60.0146C204.44 60.0146 203.719 61.3344 203.719 62.8058ZM211.977 59.5097C212.529 59.4144 213.089 59.3686 213.65 59.3726C214.346 59.2996 215.042 59.4958 215.598 59.9208C215.772 60.0818 215.91 60.2785 216.002 60.4975C216.094 60.7165 216.138 60.9527 216.131 61.1902C216.134 61.5734 216.011 61.947 215.782 62.2543C215.553 62.5615 215.23 62.7855 214.862 62.8923V62.9284C215.132 63.045 215.365 63.2314 215.539 63.4685C215.713 63.7056 215.82 63.9847 215.85 64.2771C215.968 64.9021 216.141 65.5153 216.369 66.1091H215.468C215.268 65.5933 215.118 65.0595 215.021 64.5151C214.819 63.5919 214.458 63.2457 213.672 63.2097H212.85V66.0947H211.977V59.5097ZM212.85 62.5606H213.737C214.667 62.5606 215.259 62.0485 215.259 61.2912C215.259 60.5338 214.631 60.0506 213.708 60.0362C213.42 60.0299 213.132 60.0565 212.85 60.1155V62.5606ZM222.796 62.9717H220.17V65.3878H223.091V66.1091H219.305V59.4231H222.911V60.1444H220.141V62.2576H222.796V62.9717Z" fill="#666666"/>
<path d="M130 59.5093C130.521 59.4142 131.05 59.3684 131.58 59.3723C132.229 59.3113 132.879 59.4853 133.412 59.8628C133.596 59.9966 133.743 60.1742 133.841 60.3794C133.94 60.5847 133.985 60.8111 133.974 61.0384C133.957 61.3662 133.839 61.6806 133.636 61.9388C133.433 62.197 133.156 62.3863 132.842 62.4809C133.229 62.5589 133.577 62.7678 133.828 63.0726C134.079 63.3774 134.217 63.7594 134.219 64.1542C134.222 64.4043 134.174 64.6524 134.077 64.8832C133.98 65.1139 133.837 65.3224 133.657 65.4957C132.987 65.9781 132.163 66.1987 131.342 66.116C130.893 66.1212 130.445 66.0947 130 66.0366V59.5093ZM130.865 62.2501H131.652C132.56 62.2501 133.094 61.7741 133.094 61.1321C133.094 60.346 132.503 60.0359 131.652 60.0359C131.395 60.0266 131.138 60.0484 130.887 60.1008L130.865 62.2501ZM130.865 65.4524C131.104 65.4857 131.346 65.5001 131.587 65.4957C132.481 65.4957 133.303 65.1639 133.303 64.1974C133.303 63.231 132.524 62.9064 131.58 62.9064H130.858L130.865 65.4524Z" fill="url(#paint0_linear_311_131)"/>
<path d="M143.076 62.6971C143.076 64.9979 141.677 66.2168 139.974 66.2168C138.272 66.2168 136.967 64.8464 136.967 62.8269C136.967 60.8074 138.287 59.3145 140.068 59.3145C141.85 59.3145 143.076 60.7137 143.076 62.6971ZM137.89 62.8053C137.89 64.2478 138.662 65.5172 140.054 65.5172C141.446 65.5172 142.217 64.255 142.217 62.7332C142.217 61.4061 141.496 60.0213 140.054 60.0213C138.611 60.0213 137.89 61.3339 137.89 62.8053Z" fill="url(#paint1_linear_311_131)"/>
<path d="M146.186 59.5097C146.731 59.4144 147.284 59.3685 147.837 59.3727C148.53 59.3045 149.223 59.5002 149.777 59.9208C149.949 60.0837 150.084 60.2811 150.173 60.4999C150.263 60.7187 150.305 60.954 150.297 61.1902C150.301 61.5719 150.181 61.9447 149.955 62.2519C149.728 62.5591 149.408 62.784 149.042 62.8924V62.9285C149.31 63.0466 149.542 63.2337 149.714 63.4706C149.886 63.7075 149.993 63.9858 150.023 64.2772C150.139 64.9017 150.311 65.5147 150.535 66.1092H149.648C149.448 65.5933 149.298 65.0596 149.2 64.5152C148.998 63.592 148.645 63.2458 147.859 63.2097H147.065V66.0947H146.207L146.186 59.5097ZM147.065 62.5606H147.953C148.876 62.5606 149.46 62.0485 149.46 61.2912C149.46 60.5339 148.833 60.0507 147.924 60.0362C147.636 60.0304 147.348 60.057 147.065 60.1156V62.5606Z" fill="url(#paint2_linear_311_131)"/>
<path d="M153.506 66.1088V59.4229H154.443L156.607 62.8055C157.056 63.4996 157.458 64.2224 157.812 64.9692C157.732 64.0749 157.711 63.2599 157.711 62.2213V59.4229H158.526V66.1088H157.653L155.489 62.719C155.032 61.9978 154.615 61.2513 154.242 60.4831C154.292 61.3197 154.306 62.1275 154.306 63.2383V66.1232L153.506 66.1088Z" fill="url(#paint3_linear_311_131)"/>
<path d="M166.098 59.4229H169.704V60.1441H166.963V62.3727H169.495V63.094H166.963V66.116H166.098V59.4229Z" fill="url(#paint4_linear_311_131)"/>
<path d="M178.634 62.6976C178.634 64.9984 177.235 66.2173 175.525 66.2173C173.816 66.2173 172.518 64.8469 172.518 62.8274C172.518 60.8079 173.837 59.3149 175.626 59.3149C177.415 59.3149 178.634 60.7142 178.634 62.6976ZM173.441 62.8058C173.441 64.2483 174.213 65.5177 175.605 65.5177C176.997 65.5177 177.768 64.2555 177.768 62.7336C177.768 61.4065 177.047 60.0218 175.605 60.0218C174.162 60.0218 173.441 61.3344 173.441 62.8058Z" fill="url(#paint5_linear_311_131)"/>
<path d="M181.734 59.5098C182.282 59.4145 182.837 59.3687 183.393 59.3728C184.084 59.3042 184.774 59.5001 185.326 59.9209C185.5 60.0823 185.637 60.2792 185.728 60.4983C185.819 60.7173 185.861 60.9534 185.853 61.1903C185.857 61.5729 185.736 61.9464 185.508 62.2538C185.28 62.5611 184.958 62.7854 184.591 62.8925V62.9286C184.859 63.0455 185.092 63.2322 185.265 63.4693C185.437 63.7065 185.543 63.9854 185.571 64.2773C185.693 64.9014 185.866 65.5143 186.091 66.1093H185.196C184.997 65.5934 184.847 65.0597 184.749 64.5153C184.554 63.5921 184.194 63.2459 183.408 63.2098H182.6V66.0948H181.734V59.5098ZM182.6 62.5607H183.48C184.403 62.5607 184.987 62.0486 184.987 61.2913C184.987 60.534 184.367 60.0508 183.451 60.0363C183.165 60.0299 182.88 60.0565 182.6 60.1157V62.5607Z" fill="url(#paint6_linear_311_131)"/>
<path d="M198.778 63.1732C198.728 62.2428 198.67 61.1176 198.677 60.2882C198.447 61.0672 198.173 61.9038 197.834 62.827L196.658 66.0726H196.002L194.92 62.8847C194.602 61.9399 194.336 61.0816 194.148 60.2882C194.148 61.1176 194.076 62.2428 194.018 63.2453L193.838 66.1303H193.016L193.484 59.4443H194.581L195.72 62.6755C196.002 63.505 196.232 64.2334 196.398 64.933C196.571 64.2551 196.809 63.4905 197.12 62.6755L198.31 59.4443H199.413L199.824 66.1303H198.98L198.778 63.1732Z" fill="url(#paint7_linear_311_131)"/>
<path d="M208.818 62.6976C208.818 64.9984 207.419 66.2173 205.709 66.2173C204 66.2173 202.709 64.8469 202.709 62.8274C202.709 60.8079 204.029 59.3149 205.81 59.3149C207.592 59.3149 208.818 60.7142 208.818 62.6976ZM203.632 62.8058C203.632 64.2483 204.404 65.5177 205.76 65.5177C207.116 65.5177 207.924 64.2555 207.924 62.7336C207.924 61.4065 207.202 60.0218 205.76 60.0218C204.317 60.0218 203.632 61.3344 203.632 62.8058Z" fill="url(#paint8_linear_311_131)"/>
<path d="M211.92 59.5093C212.468 59.4144 213.023 59.3685 213.579 59.3723C214.269 59.3023 214.961 59.4983 215.512 59.9205C215.685 60.0819 215.822 60.2788 215.913 60.4978C216.004 60.7168 216.047 60.9529 216.038 61.1899C216.042 61.5725 215.921 61.9459 215.694 62.2533C215.466 62.5606 215.143 62.7849 214.776 62.892V62.9281C215.046 63.0446 215.28 63.2311 215.453 63.4682C215.627 63.7053 215.734 63.9844 215.764 64.2768C215.881 64.9013 216.052 65.5143 216.276 66.1088H215.382C215.186 65.5918 215.036 65.0584 214.935 64.5148C214.74 63.5916 214.379 63.2454 213.6 63.2093H212.785V66.0943H211.92V59.5093ZM212.785 62.5602H213.665C214.589 62.5602 215.173 62.0481 215.173 61.2908C215.173 60.5335 214.552 60.0503 213.636 60.0359C213.351 60.0299 213.065 60.0565 212.785 60.1152V62.5602Z" fill="url(#paint9_linear_311_131)"/>
<path d="M222.701 62.9714H220.105V65.3876H222.99V66.1088H219.225V59.4229H222.831V60.1441H220.083V62.2573H222.679L222.701 62.9714Z" fill="url(#paint10_linear_311_131)"/>
<path d="M190.634 34.1147L180.645 41.8465L170.663 34.1147H163.891L177.263 44.4718L163.891 54.829H170.663L180.645 47.0972L190.634 54.829H197.407L184.035 44.4718L197.407 34.1147H190.634Z" fill="#666666"/>
<path d="M130.375 38.536V50.4077C130.374 50.9886 130.488 51.5639 130.71 52.1008C130.931 52.6376 131.257 53.1254 131.668 53.5361C132.079 53.9468 132.566 54.2725 133.103 54.4943C133.64 54.7162 134.215 54.8299 134.796 54.829H160.869V51.064H137.631C137.052 51.0527 136.5 50.8142 136.096 50.3999C135.691 49.9857 135.465 49.429 135.467 48.8498V46.1956H159.023V42.4307H135.467V40.0939C135.467 39.5159 135.693 38.9611 136.098 38.5484C136.503 38.1357 137.053 37.8982 137.631 37.8869H160.848V34.1147H134.796C133.624 34.1147 132.499 34.5806 131.67 35.4097C130.841 36.2388 130.375 37.3634 130.375 38.536ZM200.43 38.536V50.4077C200.43 51.5803 200.896 52.7049 201.725 53.534C202.554 54.3631 203.678 54.829 204.851 54.829H230.924V51.064H207.707C207.417 51.064 207.129 51.0067 206.861 50.8954C206.593 50.784 206.349 50.6208 206.144 50.4151C205.939 50.2094 205.776 49.9652 205.666 49.6966C205.555 49.428 205.499 49.1402 205.5 48.8498V46.1956H229.056V42.4307H205.5V40.0939C205.5 39.804 205.557 39.5171 205.668 39.2493C205.779 38.9815 205.942 38.7382 206.146 38.5333C206.351 38.3283 206.595 38.1658 206.862 38.0549C207.13 37.9439 207.417 37.8869 207.707 37.8869H230.924V34.1147H204.851C203.679 34.1167 202.555 34.5831 201.727 35.4118C200.898 36.2405 200.432 37.364 200.43 38.536ZM293.579 34.1147H267.506V54.829H293.579C294.16 54.8299 294.735 54.7162 295.272 54.4943C295.809 54.2725 296.296 53.9468 296.707 53.5361C297.118 53.1254 297.443 52.6376 297.665 52.1008C297.887 51.5639 298.001 50.9886 298 50.4077V38.536C298 37.3634 297.534 36.2388 296.705 35.4097C295.876 34.5806 294.751 34.1147 293.579 34.1147ZM292.93 48.857C292.93 49.4424 292.697 50.0037 292.283 50.4176C291.869 50.8315 291.308 51.064 290.723 51.064H272.576V37.8869H290.723C291.308 37.8869 291.869 38.1194 292.283 38.5333C292.697 38.9472 292.93 39.5085 292.93 40.0939V48.857ZM233.989 38.536V50.4077C233.989 51.5803 234.455 52.7049 235.284 53.534C236.113 54.3631 237.238 54.829 238.411 54.829H264.484V51.064H241.267C240.976 51.064 240.689 51.0067 240.42 50.8954C240.152 50.784 239.909 50.6208 239.704 50.4151C239.498 50.2094 239.336 49.9652 239.226 49.6966C239.115 49.428 239.059 49.1402 239.06 48.8498V46.1956H262.616V42.4307H239.06V40.0939C239.06 39.804 239.117 39.5171 239.228 39.2493C239.339 38.9815 239.501 38.7382 239.706 38.5333C239.911 38.3283 240.154 38.1658 240.422 38.0549C240.69 37.9439 240.977 37.8869 241.267 37.8869H264.484V34.1147H238.411C237.239 34.1167 236.115 34.5831 235.286 35.4118C234.458 36.2405 233.991 37.364 233.989 38.536Z" fill="#666666"/>
<path d="M190.259 34.1147L180.277 41.8465L170.288 34.1147H163.516L176.888 44.4718L163.516 54.829H170.288L180.277 47.0972L190.259 54.829H197.032L183.66 44.4718L197.032 34.1147H190.259Z" fill="url(#paint11_linear_311_131)"/>
<path d="M130 38.536V50.4077C130 51.5803 130.466 52.7049 131.295 53.534C132.124 54.3631 133.249 54.829 134.421 54.829H160.494V51.064H137.285C136.994 51.065 136.705 51.0084 136.436 50.8974C136.167 50.7865 135.923 50.6234 135.717 50.4176C135.511 50.2118 135.348 49.9674 135.237 49.6983C135.126 49.4292 135.069 49.1409 135.07 48.8498V46.1956H158.626V42.4307H135.07V40.0939C135.07 39.8034 135.128 39.5159 135.239 39.2476C135.35 38.9794 135.514 38.7358 135.719 38.5307C135.925 38.3257 136.169 38.1633 136.438 38.0528C136.706 37.9423 136.994 37.8859 137.285 37.8869H160.494V34.1147H134.421C133.249 34.1167 132.126 34.5831 131.297 35.4118C130.468 36.2405 130.002 37.364 130 38.536Z" fill="url(#paint12_linear_311_131)"/>
<path d="M200.055 38.536V50.4077C200.055 50.9889 200.169 51.5644 200.392 52.1013C200.615 52.6382 200.941 53.1259 201.352 53.5365C201.763 53.9472 202.252 54.2727 202.789 54.4945C203.326 54.7162 203.902 54.8299 204.483 54.829H230.556V51.064H207.339C207.048 51.065 206.76 51.0084 206.491 50.8974C206.222 50.7865 205.977 50.6234 205.771 50.4176C205.566 50.2118 205.403 49.9674 205.292 49.6983C205.181 49.4292 205.124 49.1409 205.125 48.8498V46.1956H228.681V42.4307H205.125V40.0939C205.125 39.8034 205.182 39.5159 205.294 39.2476C205.405 38.9794 205.568 38.7358 205.774 38.5307C205.98 38.3257 206.224 38.1633 206.492 38.0528C206.761 37.9423 207.049 37.8859 207.339 37.8869H230.556V34.1147H204.483C203.31 34.1147 202.185 34.5803 201.354 35.4093C200.524 36.2382 200.057 37.3627 200.055 38.536Z" fill="url(#paint13_linear_311_131)"/>
<path d="M293.204 34.1147H267.131V54.829H293.204C293.785 54.8299 294.361 54.7162 294.898 54.4945C295.435 54.2727 295.924 53.9472 296.335 53.5365C296.746 53.1259 297.073 52.6382 297.295 52.1013C297.518 51.5644 297.632 50.9889 297.632 50.4077V38.536C297.63 37.3627 297.163 36.2382 296.333 35.4093C295.503 34.5803 294.377 34.1147 293.204 34.1147ZM292.562 48.857C292.562 49.1475 292.505 49.435 292.393 49.7033C292.282 49.9715 292.119 50.2151 291.913 50.4202C291.707 50.6252 291.463 50.7876 291.195 50.8981C290.926 51.0086 290.638 51.065 290.348 51.064H272.201V37.8869H290.348C290.638 37.8859 290.926 37.9423 291.195 38.0528C291.463 38.1633 291.707 38.3257 291.913 38.5307C292.119 38.7358 292.282 38.9794 292.393 39.2476C292.505 39.5159 292.562 39.8034 292.562 40.0939V48.857Z" fill="url(#paint14_linear_311_131)"/>
<path d="M233.615 38.536V50.4077C233.615 50.9889 233.73 51.5644 233.952 52.1013C234.175 52.6382 234.501 53.1259 234.913 53.5365C235.324 53.9472 235.812 54.2727 236.35 54.4945C236.887 54.7162 237.462 54.8299 238.044 54.829H264.11V51.064H240.9C240.609 51.065 240.32 51.0084 240.051 50.8974C239.782 50.7865 239.538 50.6234 239.332 50.4176C239.126 50.2118 238.963 49.9674 238.852 49.6983C238.741 49.4292 238.685 49.1409 238.686 48.8498V46.1956H262.242V42.4307H238.686V40.0939C238.686 39.8034 238.743 39.5159 238.854 39.2476C238.966 38.9794 239.129 38.7358 239.335 38.5307C239.54 38.3257 239.784 38.1633 240.053 38.0528C240.322 37.9423 240.609 37.8859 240.9 37.8869H264.11V34.1147H238.044C236.87 34.1147 235.745 34.5803 234.915 35.4093C234.085 36.2382 233.617 37.3627 233.615 38.536Z" fill="url(#paint15_linear_311_131)"/>
<path d="M609.176 44.8H610.312V56H609.032V47.088L604.616 53.648H603.848L599.432 47.088V56H598.152V44.8H599.336L604.264 52.208L609.176 44.8ZM614.989 56C614.093 56 613.447 55.808 613.053 55.424C612.658 55.0293 612.461 54.3787 612.461 53.472V50.144C612.461 49.2373 612.658 48.592 613.053 48.208C613.447 47.8133 614.093 47.616 614.989 47.616H618.733C619.629 47.616 620.274 47.8133 620.669 48.208C621.063 48.592 621.261 49.2373 621.261 50.144V53.472C621.261 54.3787 621.063 55.0293 620.669 55.424C620.274 55.808 619.629 56 618.733 56H614.989ZM615.357 54.928H618.365C618.983 54.928 619.405 54.816 619.629 54.592C619.853 54.3573 619.965 53.9307 619.965 53.312V50.304C619.965 49.6853 619.853 49.264 619.629 49.04C619.405 48.8053 618.983 48.688 618.365 48.688H615.357C614.738 48.688 614.317 48.8053 614.093 49.04C613.869 49.264 613.757 49.6853 613.757 50.304V53.312C613.757 53.9307 613.869 54.3573 614.093 54.592C614.317 54.816 614.738 54.928 615.357 54.928ZM631.821 54.928H632.909V57.92H631.693V56H623.645V57.92H622.413V54.928H622.765C623.277 54.928 623.634 54.832 623.837 54.64C624.04 54.4373 624.157 54.0747 624.189 53.552L624.589 47.616H631.821V54.928ZM625.485 53.52C625.432 54.1173 625.298 54.5867 625.085 54.928H630.541V48.704H625.837L625.485 53.52ZM640.307 47.616C641.203 47.616 641.848 47.8133 642.243 48.208C642.638 48.592 642.835 49.2373 642.835 50.144V51.872H635.491V53.344C635.491 53.9627 635.603 54.384 635.827 54.608C636.051 54.832 636.472 54.944 637.091 54.944H640.291C640.76 54.944 641.091 54.848 641.283 54.656C641.475 54.464 641.571 54.1333 641.571 53.664V53.136H642.835V53.856C642.835 54.592 642.659 55.136 642.307 55.488C641.966 55.8293 641.427 56 640.691 56H636.723C635.827 56 635.182 55.808 634.787 55.424C634.392 55.0293 634.195 54.3787 634.195 53.472V50.144C634.195 49.2373 634.392 48.592 634.787 48.208C635.182 47.8133 635.827 47.616 636.723 47.616H640.307ZM635.491 50.976H641.571V50.224C641.571 49.6053 641.459 49.184 641.235 48.96C641.011 48.736 640.59 48.624 639.971 48.624H637.091C636.472 48.624 636.051 48.736 635.827 48.96C635.603 49.184 635.491 49.6053 635.491 50.224V50.976ZM643.991 56V54.928H644.215C644.727 54.928 645.084 54.832 645.287 54.64C645.49 54.4373 645.607 54.0747 645.639 53.552L646.039 47.616H653.271V56H651.975V48.704H647.271L646.919 53.824C646.866 54.5813 646.663 55.136 646.311 55.488C645.959 55.8293 645.415 56 644.679 56H643.991ZM663.35 47.616H664.438V56H663.174V49.28L656.566 56H655.574V47.616H656.822V54.256L663.35 47.616Z" fill="white"/>
<path d="M674.101 47.1018C674.037 47.1617 674.001 47.2433 674 47.3286C673.999 47.4141 674.036 47.4962 674.101 47.5555L679.756 52.9051C679.82 52.9658 679.906 53 679.996 53C680.086 53 680.173 52.9658 680.236 52.9051L685.892 47.5555C685.96 47.496 685.998 47.4134 686 47.3264C686.001 47.2393 685.966 47.1555 685.901 47.094C685.836 47.0325 685.747 46.9985 685.655 47C685.563 47.0015 685.476 47.0382 685.413 47.1017L679.996 52.2245L674.581 47.1017C674.517 47.0413 674.431 47.0073 674.341 47.0073C674.251 47.0073 674.164 47.0413 674.101 47.1017L674.101 47.1018Z" fill="white"/>
<path d="M790.424 54.832H791.544V57.92H790.264V56H780.568V57.92H779.288V54.832H779.768C780.355 54.832 780.755 54.7307 780.968 54.528C781.181 54.3147 781.304 53.9147 781.336 53.328L781.88 44.8H790.424V54.832ZM782.696 53.2C782.643 53.9147 782.493 54.4587 782.248 54.832H789.08V46H783.16L782.696 53.2ZM800.756 47.616H801.844V56H800.58V49.28L793.972 56H792.98V47.616H794.228V54.256L800.756 47.616ZM803.272 56V54.928H803.496C804.008 54.928 804.366 54.832 804.568 54.64C804.771 54.4373 804.888 54.0747 804.92 53.552L805.32 47.616H812.552V56H811.256V48.704H806.552L806.2 53.824C806.147 54.5813 805.944 55.136 805.592 55.488C805.24 55.8293 804.696 56 803.96 56H803.272ZM820.807 47.616C821.703 47.616 822.348 47.8133 822.743 48.208C823.138 48.592 823.335 49.2373 823.335 50.144V51.872H815.991V53.344C815.991 53.9627 816.103 54.384 816.327 54.608C816.551 54.832 816.972 54.944 817.591 54.944H820.791C821.26 54.944 821.591 54.848 821.783 54.656C821.975 54.464 822.071 54.1333 822.071 53.664V53.136H823.335V53.856C823.335 54.592 823.159 55.136 822.807 55.488C822.466 55.8293 821.927 56 821.191 56H817.223C816.327 56 815.682 55.808 815.287 55.424C814.892 55.0293 814.695 54.3787 814.695 53.472V50.144C814.695 49.2373 814.892 48.592 815.287 48.208C815.682 47.8133 816.327 47.616 817.223 47.616H820.807ZM815.991 50.976H822.071V50.224C822.071 49.6053 821.959 49.184 821.735 48.96C821.511 48.736 821.09 48.624 820.471 48.624H817.591C816.972 48.624 816.551 48.736 816.327 48.96C816.103 49.184 815.991 49.6053 815.991 50.224V50.976ZM831.752 47.616C832.648 47.616 833.293 47.8133 833.688 48.208C834.083 48.592 834.28 49.2373 834.28 50.144V53.472C834.28 54.3787 834.083 55.0293 833.688 55.424C833.293 55.808 832.648 56 831.752 56H830.424C829.624 56 829 55.9413 828.552 55.824C828.104 55.7067 827.619 55.4507 827.096 55.056L826.76 54.816V58.56H825.48V47.616H826.504L826.68 48.864L827.096 48.56C827.619 48.1653 828.104 47.9093 828.552 47.792C829 47.6747 829.624 47.616 830.424 47.616H831.752ZM832.984 53.312V50.304C832.984 49.6853 832.867 49.264 832.632 49.04C832.408 48.8053 831.987 48.688 831.368 48.688H830.04C828.995 48.688 828.163 48.9067 827.544 49.344L826.76 49.904V53.712L827.544 54.272C828.163 54.7093 828.995 54.928 830.04 54.928H831.368C831.987 54.928 832.408 54.816 832.632 54.592C832.867 54.3573 832.984 53.9307 832.984 53.312ZM836.418 47.616H837.698V50.72H842.722C843.426 50.72 843.948 50.8907 844.29 51.232C844.631 51.5627 844.802 52.0853 844.802 52.8V53.92C844.802 54.6453 844.631 55.1733 844.29 55.504C843.959 55.8347 843.436 56 842.722 56H836.418V47.616ZM846.594 56V47.616H847.89V56H846.594ZM837.698 51.68V55.008H842.274C842.732 55.008 843.052 54.9227 843.234 54.752C843.415 54.5707 843.506 54.2507 843.506 53.792V52.896C843.506 52.448 843.415 52.1333 843.234 51.952C843.052 51.7707 842.732 51.68 842.274 51.68H837.698Z" fill="white"/>
<path d="M946.84 56C945.859 56 945.139 55.776 944.68 55.328C944.221 54.8693 943.992 54.144 943.992 53.152V47.648C943.992 46.656 944.221 45.936 944.68 45.488C945.139 45.0293 945.859 44.8 946.84 44.8H951.864C952.845 44.8 953.565 45.0293 954.024 45.488C954.483 45.936 954.712 46.656 954.712 47.648V53.152C954.712 54.144 954.483 54.8693 954.024 55.328C953.565 55.776 952.845 56 951.864 56H946.84ZM947.224 54.832H951.48C952.173 54.832 952.659 54.6933 952.936 54.416C953.224 54.128 953.368 53.6373 953.368 52.944V47.856C953.368 47.1627 953.224 46.6773 952.936 46.4C952.659 46.112 952.173 45.968 951.48 45.968H947.224C946.541 45.968 946.056 46.112 945.768 46.4C945.48 46.6773 945.336 47.1627 945.336 47.856V52.944C945.336 53.6373 945.48 54.128 945.768 54.416C946.056 54.6933 946.541 54.832 947.224 54.832ZM968.18 48.672C968.905 48.672 969.444 48.848 969.796 49.2C970.148 49.5413 970.324 50.08 970.324 50.816V53.856C970.324 54.592 970.148 55.136 969.796 55.488C969.444 55.8293 968.905 56 968.18 56H963.668C962.932 56 962.388 55.8293 962.036 55.488C961.694 55.136 961.524 54.592 961.524 53.856V47.824C961.524 46.8533 961.748 46.1493 962.196 45.712C962.654 45.2747 963.38 45.0293 964.372 44.976L970.004 44.64V45.712L964.5 46.032C963.785 46.0853 963.284 46.2507 962.996 46.528C962.718 46.8053 962.58 47.2853 962.58 47.968V49.392C962.889 48.912 963.476 48.672 964.34 48.672H968.18ZM969.028 53.664V50.992C969.028 50.5227 968.932 50.192 968.74 50C968.548 49.808 968.217 49.712 967.748 49.712H964.084C963.614 49.712 963.284 49.808 963.092 50C962.9 50.192 962.804 50.5227 962.804 50.992V53.664C962.804 54.1333 962.9 54.464 963.092 54.656C963.284 54.848 963.614 54.944 964.084 54.944H967.748C968.217 54.944 968.548 54.848 968.74 54.656C968.932 54.464 969.028 54.1333 969.028 53.664ZM978.737 47.616C979.633 47.616 980.278 47.8133 980.673 48.208C981.067 48.592 981.265 49.2373 981.265 50.144V53.472C981.265 54.3787 981.067 55.0293 980.673 55.424C980.278 55.808 979.633 56 978.737 56H977.409C976.609 56 975.985 55.9413 975.536 55.824C975.089 55.7067 974.603 55.4507 974.081 55.056L973.745 54.816V58.56H972.465V47.616H973.489L973.664 48.864L974.081 48.56C974.603 48.1653 975.089 47.9093 975.536 47.792C975.985 47.6747 976.609 47.616 977.409 47.616H978.737ZM979.969 53.312V50.304C979.969 49.6853 979.851 49.264 979.617 49.04C979.393 48.8053 978.971 48.688 978.353 48.688H977.025C975.979 48.688 975.147 48.9067 974.529 49.344L973.745 49.904V53.712L974.529 54.272C975.147 54.7093 975.979 54.928 977.025 54.928H978.353C978.971 54.928 979.393 54.816 979.617 54.592C979.851 54.3573 979.969 53.9307 979.969 53.312ZM989.354 47.616C990.25 47.616 990.895 47.8133 991.29 48.208C991.685 48.592 991.882 49.2373 991.882 50.144V51.872H984.538V53.344C984.538 53.9627 984.65 54.384 984.874 54.608C985.098 54.832 985.519 54.944 986.138 54.944H989.338C989.807 54.944 990.138 54.848 990.33 54.656C990.522 54.464 990.618 54.1333 990.618 53.664V53.136H991.882V53.856C991.882 54.592 991.706 55.136 991.354 55.488C991.013 55.8293 990.474 56 989.738 56H985.77C984.874 56 984.229 55.808 983.834 55.424C983.439 55.0293 983.242 54.3787 983.242 53.472V50.144C983.242 49.2373 983.439 48.592 983.834 48.208C984.229 47.8133 984.874 47.616 985.77 47.616H989.354ZM984.538 50.976H990.618V50.224C990.618 49.6053 990.506 49.184 990.282 48.96C990.058 48.736 989.637 48.624 989.018 48.624H986.138C985.519 48.624 985.098 48.736 984.874 48.96C984.65 49.184 984.538 49.6053 984.538 50.224V50.976ZM1001.37 47.616H1002.67V56H1001.37V52.208H995.307V56H994.027V47.616H995.307V51.12H1001.37V47.616ZM1013.49 54.928H1014.58V57.92H1013.36V56H1005.32V57.92H1004.08V54.928H1004.44C1004.95 54.928 1005.31 54.832 1005.51 54.64C1005.71 54.4373 1005.83 54.0747 1005.86 53.552L1006.26 47.616H1013.49V54.928ZM1007.16 53.52C1007.1 54.1173 1006.97 54.5867 1006.76 54.928H1012.21V48.704H1007.51L1007.16 53.52ZM1021.98 47.616C1022.88 47.616 1023.52 47.8133 1023.91 48.208C1024.31 48.592 1024.51 49.2373 1024.51 50.144V51.872H1017.16V53.344C1017.16 53.9627 1017.28 54.384 1017.5 54.608C1017.72 54.832 1018.14 54.944 1018.76 54.944H1021.96C1022.43 54.944 1022.76 54.848 1022.95 54.656C1023.15 54.464 1023.24 54.1333 1023.24 53.664V53.136H1024.51V53.856C1024.51 54.592 1024.33 55.136 1023.98 55.488C1023.64 55.8293 1023.1 56 1022.36 56H1018.4C1017.5 56 1016.85 55.808 1016.46 55.424C1016.06 55.0293 1015.87 54.3787 1015.87 53.472V50.144C1015.87 49.2373 1016.06 48.592 1016.46 48.208C1016.85 47.8133 1017.5 47.616 1018.4 47.616H1021.98ZM1017.16 50.976H1023.24V50.224C1023.24 49.6053 1023.13 49.184 1022.91 48.96C1022.68 48.736 1022.26 48.624 1021.64 48.624H1018.76C1018.14 48.624 1017.72 48.736 1017.5 48.96C1017.28 49.184 1017.16 49.6053 1017.16 50.224V50.976Z" fill="white"/>
<path d="M1130.28 56H1128.23L1121.5 50.4V56H1120.15V44.8H1121.5V50.08L1128.15 44.8H1130.22L1123.18 50.224L1130.28 56ZM1133.38 56C1132.48 56 1131.84 55.808 1131.44 55.424C1131.05 55.0293 1130.85 54.3787 1130.85 53.472V50.144C1130.85 49.2373 1131.05 48.592 1131.44 48.208C1131.84 47.8133 1132.48 47.616 1133.38 47.616H1137.12C1138.02 47.616 1138.66 47.8133 1139.06 48.208C1139.45 48.592 1139.65 49.2373 1139.65 50.144V53.472C1139.65 54.3787 1139.45 55.0293 1139.06 55.424C1138.66 55.808 1138.02 56 1137.12 56H1133.38ZM1133.75 54.928H1136.76C1137.37 54.928 1137.8 54.816 1138.02 54.592C1138.24 54.3573 1138.36 53.9307 1138.36 53.312V50.304C1138.36 49.6853 1138.24 49.264 1138.02 49.04C1137.8 48.8053 1137.37 48.688 1136.76 48.688H1133.75C1133.13 48.688 1132.71 48.8053 1132.48 49.04C1132.26 49.264 1132.15 49.6853 1132.15 50.304V53.312C1132.15 53.9307 1132.26 54.3573 1132.48 54.592C1132.71 54.816 1133.13 54.928 1133.75 54.928ZM1149.14 47.616H1150.43V56H1149.14V52.208H1143.07V56H1141.79V47.616H1143.07V51.12H1149.14V47.616ZM1151.85 48.704V47.616H1160.36V48.704H1156.75V56H1155.47V48.704H1151.85ZM1167.46 47.616C1168.36 47.616 1169 47.8133 1169.4 48.208C1169.79 48.592 1169.99 49.2373 1169.99 50.144V56H1168.95L1168.78 54.784L1168.23 55.168C1167.74 55.52 1167.31 55.7493 1166.94 55.856C1166.57 55.952 1166.04 56 1165.34 56H1163.3C1162 56 1161.35 55.3493 1161.35 54.048V53.232C1161.35 51.9307 1162 51.28 1163.3 51.28H1168.7V50.224C1168.7 49.6053 1168.58 49.184 1168.36 48.96C1168.14 48.7253 1167.71 48.608 1167.1 48.608H1164.28C1163.81 48.608 1163.48 48.704 1163.29 48.896C1163.1 49.088 1163 49.4187 1163 49.888V50.272H1161.74V49.76C1161.74 49.024 1161.91 48.4853 1162.25 48.144C1162.6 47.792 1163.14 47.616 1163.88 47.616H1167.46ZM1167.78 54.464L1168.7 53.84V52.144H1163.82C1163.39 52.144 1163.08 52.2347 1162.9 52.416C1162.73 52.5867 1162.65 52.8853 1162.65 53.312V53.872C1162.65 54.3093 1162.73 54.6133 1162.9 54.784C1163.08 54.9547 1163.39 55.04 1163.82 55.04H1165.7C1166.55 55.04 1167.24 54.848 1167.78 54.464ZM1180.73 56H1178.69L1173.53 51.952V56H1172.23V47.616H1173.53V51.664L1178.65 47.616H1180.65L1175.13 51.776L1180.73 56ZM1181.12 48.704V47.616H1189.63V48.704H1186.01V56H1184.73V48.704H1181.12ZM1191.07 47.616H1192.35V50.72H1197.38C1198.08 50.72 1198.6 50.8907 1198.95 51.232C1199.29 51.5627 1199.46 52.0853 1199.46 52.8V53.92C1199.46 54.6453 1199.29 55.1733 1198.95 55.504C1198.62 55.8347 1198.09 56 1197.38 56H1191.07V47.616ZM1201.25 56V47.616H1202.55V56H1201.25ZM1192.35 51.68V55.008H1196.93C1197.39 55.008 1197.71 54.9227 1197.89 54.752C1198.07 54.5707 1198.16 54.2507 1198.16 53.792V52.896C1198.16 52.448 1198.07 52.1333 1197.89 51.952C1197.71 51.7707 1197.39 51.68 1196.93 51.68H1192.35Z" fill="white"/>
<rect x="1500.5" y="23.5" width="289" height="54" stroke="white"/>
<path d="M1535.35 50.144C1536.17 50.4 1536.58 51.0773 1536.58 52.176V53.728C1536.58 54.5067 1536.4 55.0827 1536.02 55.456C1535.65 55.8187 1535.08 56 1534.31 56H1528.14C1527.37 56 1526.8 55.8187 1526.42 55.456C1526.05 55.0827 1525.86 54.5067 1525.86 53.728V52.208H1527.85V53.312C1527.85 53.7173 1527.93 54 1528.09 54.16C1528.25 54.32 1528.53 54.4 1528.94 54.4H1533.45C1533.85 54.4 1534.14 54.32 1534.3 54.16C1534.46 54 1534.54 53.7173 1534.54 53.312V52.016C1534.54 51.6107 1534.46 51.328 1534.3 51.168C1534.14 51.008 1533.85 50.928 1533.45 50.928H1530.34V49.44H1533.29C1533.69 49.44 1533.98 49.36 1534.14 49.2C1534.3 49.04 1534.38 48.7573 1534.38 48.352V47.488C1534.38 47.0827 1534.3 46.8 1534.14 46.64C1533.98 46.48 1533.69 46.4 1533.29 46.4H1529.1C1528.69 46.4 1528.41 46.48 1528.25 46.64C1528.09 46.8 1528.01 47.0827 1528.01 47.488V48.464H1526.02V47.072C1526.02 46.2933 1526.21 45.7227 1526.58 45.36C1526.96 44.9867 1527.53 44.8 1528.3 44.8H1534.15C1534.92 44.8 1535.49 44.9867 1535.86 45.36C1536.24 45.7227 1536.42 46.2933 1536.42 47.072V48.176C1536.42 49.2213 1536.07 49.8773 1535.35 50.144ZM1544.62 47.552C1545.56 47.552 1546.24 47.76 1546.65 48.176C1547.07 48.5813 1547.28 49.2587 1547.28 50.208V56H1545.69L1545.47 54.864L1545.2 55.072C1544.71 55.4773 1544.27 55.7333 1543.9 55.84C1543.54 55.9467 1542.98 56 1542.24 56H1540.3C1538.98 56 1538.32 55.3387 1538.32 54.016V53.136C1538.32 51.8133 1538.98 51.152 1540.3 51.152H1545.34V50.32C1545.34 49.808 1545.24 49.456 1545.04 49.264C1544.85 49.072 1544.49 48.976 1543.97 48.976H1541.66C1541.27 48.976 1540.98 49.056 1540.81 49.216C1540.65 49.376 1540.57 49.6587 1540.57 50.064V50.368H1538.7V49.824C1538.7 49.0453 1538.89 48.4747 1539.26 48.112C1539.63 47.7387 1540.21 47.552 1540.97 47.552H1544.62ZM1544.61 54.176L1545.34 53.632V52.304H1541.21C1540.85 52.304 1540.6 52.3787 1540.46 52.528C1540.32 52.6667 1540.25 52.912 1540.25 53.264V53.712C1540.25 54.0747 1540.32 54.3253 1540.46 54.464C1540.6 54.6027 1540.85 54.672 1541.21 54.672H1542.85C1543.56 54.672 1544.15 54.5067 1544.61 54.176ZM1549.23 56V47.552H1558.19V56H1556.25V49.168H1551.18V56H1549.23ZM1567.75 47.552H1569.38V56H1567.51V49.968L1561.73 56H1560.2V47.552H1562.08V53.456L1567.75 47.552ZM1571.25 53.344V50.208C1571.25 49.2587 1571.46 48.5813 1571.88 48.176C1572.29 47.76 1572.97 47.552 1573.91 47.552H1577.33C1578.27 47.552 1578.95 47.76 1579.37 48.176C1579.78 48.5813 1579.99 49.2587 1579.99 50.208V50.864H1578.1V50.48C1578.1 49.9573 1578.01 49.6 1577.81 49.408C1577.63 49.216 1577.28 49.12 1576.76 49.12H1574.55C1574.03 49.12 1573.67 49.216 1573.48 49.408C1573.3 49.6 1573.21 49.9573 1573.21 50.48V53.072C1573.21 53.5947 1573.3 53.952 1573.48 54.144C1573.67 54.336 1574.03 54.432 1574.55 54.432H1576.76C1577.28 54.432 1577.63 54.336 1577.81 54.144C1578.01 53.952 1578.1 53.5947 1578.1 53.072V52.56H1579.99V53.344C1579.99 54.2933 1579.78 54.976 1579.37 55.392C1578.95 55.7973 1578.27 56 1577.33 56H1573.91C1572.97 56 1572.29 55.7973 1571.88 55.392C1571.46 54.976 1571.25 54.2933 1571.25 53.344ZM1588.03 47.552C1588.97 47.552 1589.64 47.76 1590.06 48.176C1590.48 48.5813 1590.68 49.2587 1590.68 50.208V56H1589.1L1588.88 54.864L1588.6 55.072C1588.11 55.4773 1587.68 55.7333 1587.31 55.84C1586.94 55.9467 1586.39 56 1585.64 56H1583.71C1582.38 56 1581.72 55.3387 1581.72 54.016V53.136C1581.72 51.8133 1582.38 51.152 1583.71 51.152H1588.75V50.32C1588.75 49.808 1588.65 49.456 1588.44 49.264C1588.25 49.072 1587.89 48.976 1587.37 48.976H1585.07C1584.67 48.976 1584.39 49.056 1584.22 49.216C1584.06 49.376 1583.98 49.6587 1583.98 50.064V50.368H1582.11V49.824C1582.11 49.0453 1582.29 48.4747 1582.67 48.112C1583.04 47.7387 1583.61 47.552 1584.38 47.552H1588.03ZM1588.01 54.176L1588.75 53.632V52.304H1584.62C1584.26 52.304 1584.01 52.3787 1583.87 52.528C1583.73 52.6667 1583.66 52.912 1583.66 53.264V53.712C1583.66 54.0747 1583.73 54.3253 1583.87 54.464C1584.01 54.6027 1584.26 54.672 1584.62 54.672H1586.25C1586.97 54.672 1587.55 54.5067 1588.01 54.176ZM1591.72 49.168V47.552H1600.43V49.168H1597.05V56H1595.1V49.168H1591.72ZM1601.7 47.552H1603.65V50.416H1608.19C1608.96 50.416 1609.52 50.592 1609.87 50.944C1610.22 51.296 1610.4 51.856 1610.4 52.624V53.792C1610.4 54.56 1610.22 55.12 1609.87 55.472C1609.52 55.824 1608.96 56 1608.19 56H1601.7V47.552ZM1603.65 51.744V54.608H1607.42C1607.81 54.608 1608.07 54.5333 1608.22 54.384C1608.38 54.224 1608.46 53.952 1608.46 53.568V52.784C1608.46 52.4 1608.38 52.1333 1608.22 51.984C1608.07 51.824 1607.81 51.744 1607.42 51.744H1603.65ZM1611.77 53.344V50.208C1611.77 49.2587 1611.98 48.5813 1612.39 48.176C1612.81 47.76 1613.49 47.552 1614.43 47.552H1617.85C1618.79 47.552 1619.47 47.76 1619.88 48.176C1620.3 48.5813 1620.51 49.2587 1620.51 50.208V50.864H1618.62V50.48C1618.62 49.9573 1618.52 49.6 1618.33 49.408C1618.15 49.216 1617.8 49.12 1617.27 49.12H1615.07C1614.54 49.12 1614.19 49.216 1613.99 49.408C1613.81 49.6 1613.72 49.9573 1613.72 50.48V53.072C1613.72 53.5947 1613.81 53.952 1613.99 54.144C1614.19 54.336 1614.54 54.432 1615.07 54.432H1617.27C1617.8 54.432 1618.15 54.336 1618.33 54.144C1618.52 53.952 1618.62 53.5947 1618.62 53.072V52.56H1620.51V53.344C1620.51 54.2933 1620.3 54.976 1619.88 55.392C1619.47 55.7973 1618.79 56 1617.85 56H1614.43C1613.49 56 1612.81 55.7973 1612.39 55.392C1611.98 54.976 1611.77 54.2933 1611.77 53.344ZM1624.48 47.552H1630.98V56H1629.02V52.896H1626.14L1623.95 56H1621.82L1624.14 52.784C1623.5 52.7307 1623.03 52.528 1622.72 52.176C1622.42 51.824 1622.27 51.296 1622.27 50.592V49.76C1622.27 48.992 1622.45 48.432 1622.8 48.08C1623.15 47.728 1623.71 47.552 1624.48 47.552ZM1629.02 51.616V48.896H1625.25C1624.86 48.896 1624.6 48.976 1624.45 49.136C1624.3 49.2853 1624.22 49.552 1624.22 49.936V50.576C1624.22 50.96 1624.3 51.232 1624.45 51.392C1624.6 51.5413 1624.86 51.616 1625.25 51.616H1629.02ZM1644.81 47.552H1646.75V56H1644.81V52.448H1639.74V56H1637.79V47.552H1639.74V50.848H1644.81V47.552ZM1654.92 47.552C1655.86 47.552 1656.53 47.76 1656.95 48.176C1657.37 48.5813 1657.57 49.2587 1657.57 50.208V56H1655.99L1655.77 54.864L1655.49 55.072C1655 55.4773 1654.57 55.7333 1654.2 55.84C1653.84 55.9467 1653.28 56 1652.53 56H1650.6C1649.28 56 1648.61 55.3387 1648.61 54.016V53.136C1648.61 51.8133 1649.28 51.152 1650.6 51.152H1655.64V50.32C1655.64 49.808 1655.54 49.456 1655.33 49.264C1655.14 49.072 1654.78 48.976 1654.26 48.976H1651.96C1651.56 48.976 1651.28 49.056 1651.11 49.216C1650.95 49.376 1650.87 49.6587 1650.87 50.064V50.368H1649V49.824C1649 49.0453 1649.18 48.4747 1649.56 48.112C1649.93 47.7387 1650.5 47.552 1651.27 47.552H1654.92ZM1654.9 54.176L1655.64 53.632V52.304H1651.51C1651.15 52.304 1650.9 52.3787 1650.76 52.528C1650.62 52.6667 1650.55 52.912 1650.55 53.264V53.712C1650.55 54.0747 1650.62 54.3253 1650.76 54.464C1650.9 54.6027 1651.15 54.672 1651.51 54.672H1653.14C1653.86 54.672 1654.44 54.5067 1654.9 54.176ZM1663.57 49.168V47.552H1672.27V49.168H1668.9V56H1666.94V49.168H1663.57ZM1679.61 47.552C1680.54 47.552 1681.22 47.76 1681.64 48.176C1682.05 48.5813 1682.26 49.2587 1682.26 50.208V52.032H1675.24V53.104C1675.24 53.6267 1675.33 53.984 1675.53 54.176C1675.73 54.368 1676.09 54.464 1676.61 54.464H1679.3C1679.7 54.464 1679.97 54.384 1680.13 54.224C1680.3 54.0533 1680.39 53.7707 1680.39 53.376V53.008H1682.26V53.728C1682.26 54.5067 1682.07 55.0827 1681.7 55.456C1681.33 55.8187 1680.76 56 1679.99 56H1675.96C1675.02 56 1674.34 55.7973 1673.93 55.392C1673.51 54.976 1673.3 54.2933 1673.3 53.344V50.208C1673.3 49.2587 1673.51 48.5813 1673.93 48.176C1674.34 47.76 1675.02 47.552 1675.96 47.552H1679.61ZM1675.24 50.784H1680.39V50.336C1680.39 49.8133 1680.29 49.456 1680.09 49.264C1679.89 49.072 1679.54 48.976 1679.01 48.976H1676.61C1676.09 48.976 1675.73 49.072 1675.53 49.264C1675.33 49.456 1675.24 49.8133 1675.24 50.336V50.784ZM1683.99 53.344V50.208C1683.99 49.2587 1684.2 48.5813 1684.61 48.176C1685.03 47.76 1685.71 47.552 1686.65 47.552H1690.07C1691.01 47.552 1691.69 47.76 1692.1 48.176C1692.52 48.5813 1692.73 49.2587 1692.73 50.208V50.864H1690.84V50.48C1690.84 49.9573 1690.74 49.6 1690.55 49.408C1690.37 49.216 1690.02 49.12 1689.49 49.12H1687.29C1686.76 49.12 1686.41 49.216 1686.21 49.408C1686.03 49.6 1685.94 49.9573 1685.94 50.48V53.072C1685.94 53.5947 1686.03 53.952 1686.21 54.144C1686.41 54.336 1686.76 54.432 1687.29 54.432H1689.49C1690.02 54.432 1690.37 54.336 1690.55 54.144C1690.74 53.952 1690.84 53.5947 1690.84 53.072V52.56H1692.73V53.344C1692.73 54.2933 1692.52 54.976 1692.1 55.392C1691.69 55.7973 1691.01 56 1690.07 56H1686.65C1685.71 56 1685.03 55.7973 1684.61 55.392C1684.2 54.976 1683.99 54.2933 1683.99 53.344ZM1693.76 49.168V47.552H1702.46V49.168H1699.08V56H1697.13V49.168H1693.76ZM1703.49 49.568H1708.67V51.232H1703.49V49.568ZM1719.53 54.432H1720.75V57.92H1718.93V56H1711.52V57.92H1709.69V54.432H1710.22C1710.67 54.432 1710.98 54.3467 1711.15 54.176C1711.32 54.0053 1711.42 53.696 1711.45 53.248L1711.84 47.552H1719.53V54.432ZM1713.41 53.104C1713.35 53.648 1713.25 54.0907 1713.1 54.432H1717.58V49.168H1713.69L1713.41 53.104ZM1728.47 47.552C1729.41 47.552 1730.09 47.76 1730.5 48.176C1730.92 48.5813 1731.13 49.2587 1731.13 50.208V53.344C1731.13 54.2933 1730.92 54.976 1730.5 55.392C1730.09 55.7973 1729.41 56 1728.47 56H1727.3C1726.49 56 1725.87 55.936 1725.43 55.808C1725.01 55.68 1724.52 55.392 1723.98 54.944L1723.96 54.928V58.56H1722.01V47.552H1723.61L1723.83 48.72L1723.98 48.608C1724.52 48.16 1725.01 47.872 1725.43 47.744C1725.87 47.616 1726.49 47.552 1727.3 47.552H1728.47ZM1729.19 53.072V50.48C1729.19 49.9573 1729.1 49.6 1728.9 49.408C1728.71 49.216 1728.35 49.12 1727.83 49.12H1726.68C1725.79 49.12 1725.1 49.3067 1724.6 49.68L1723.96 50.16V53.392L1724.6 53.872C1725.1 54.2453 1725.79 54.432 1726.68 54.432H1727.83C1728.35 54.432 1728.71 54.336 1728.9 54.144C1729.1 53.952 1729.19 53.5947 1729.19 53.072ZM1739.15 47.552C1740.09 47.552 1740.77 47.76 1741.18 48.176C1741.6 48.5813 1741.81 49.2587 1741.81 50.208V56H1740.22L1740 54.864L1739.73 55.072C1739.24 55.4773 1738.81 55.7333 1738.43 55.84C1738.07 55.9467 1737.52 56 1736.77 56H1734.83C1733.51 56 1732.85 55.3387 1732.85 54.016V53.136C1732.85 51.8133 1733.51 51.152 1734.83 51.152H1739.87V50.32C1739.87 49.808 1739.77 49.456 1739.57 49.264C1739.38 49.072 1739.02 48.976 1738.5 48.976H1736.19C1735.8 48.976 1735.52 49.056 1735.34 49.216C1735.18 49.376 1735.1 49.6587 1735.1 50.064V50.368H1733.23V49.824C1733.23 49.0453 1733.42 48.4747 1733.79 48.112C1734.17 47.7387 1734.74 47.552 1735.5 47.552H1739.15ZM1739.14 54.176L1739.87 53.632V52.304H1735.74C1735.38 52.304 1735.13 52.3787 1734.99 52.528C1734.85 52.6667 1734.78 52.912 1734.78 53.264V53.712C1734.78 54.0747 1734.85 54.3253 1734.99 54.464C1735.13 54.6027 1735.38 54.672 1735.74 54.672H1737.38C1738.09 54.672 1738.68 54.5067 1739.14 54.176ZM1746.56 46.784C1745.78 46.784 1745.39 46.3947 1745.39 45.616V44.8H1746.77V45.376C1746.77 45.696 1746.93 45.856 1747.25 45.856H1749.45C1749.77 45.856 1749.93 45.696 1749.93 45.376V44.8H1751.31V45.616C1751.31 46.3947 1750.92 46.784 1750.14 46.784H1746.56ZM1751.31 47.552H1752.94V56H1751.07V49.968L1745.29 56H1743.76V47.552H1745.65V53.456L1751.31 47.552ZM1762.88 51.568C1763.53 51.7387 1763.86 52.256 1763.86 53.12V54.288C1763.86 54.8747 1763.72 55.3067 1763.44 55.584C1763.16 55.8613 1762.73 56 1762.15 56H1754.99V47.552H1761.91C1762.49 47.552 1762.92 47.6907 1763.2 47.968C1763.48 48.2453 1763.62 48.6773 1763.62 49.264V50.112C1763.62 50.88 1763.37 51.3653 1762.88 51.568ZM1756.95 48.928V51.024H1760.91C1761.19 51.024 1761.39 50.9707 1761.51 50.864C1761.62 50.7467 1761.68 50.5493 1761.68 50.272V49.664C1761.68 49.3867 1761.62 49.1947 1761.51 49.088C1761.4 48.9813 1761.2 48.928 1760.91 48.928H1756.95ZM1761.91 53.888V52.976C1761.91 52.7093 1761.85 52.5227 1761.73 52.416C1761.62 52.2987 1761.44 52.24 1761.17 52.24H1756.95V54.624H1761.17C1761.45 54.624 1761.64 54.5707 1761.75 54.464C1761.85 54.3573 1761.91 54.1653 1761.91 53.888Z" fill="white"/>
<defs>
<linearGradient id="paint0_linear_311_131" x1="132.113" y1="59.3723" x2="132.113" y2="66.1665" gradientUnits="userSpaceOnUse">
<stop stop-color="#E3B69F"/>
<stop offset="1" stop-color="#C38A6E"/>
</linearGradient>
<linearGradient id="paint1_linear_311_131" x1="140.025" y1="59.3145" x2="140.025" y2="66.2168" gradientUnits="userSpaceOnUse">
<stop stop-color="#E3B69F"/>
<stop offset="1" stop-color="#C38A6E"/>
</linearGradient>
<linearGradient id="paint2_linear_311_131" x1="148.364" y1="59.3727" x2="148.364" y2="66.1092" gradientUnits="userSpaceOnUse">
<stop stop-color="#E3B69F"/>
<stop offset="1" stop-color="#C38A6E"/>
</linearGradient>
<linearGradient id="paint3_linear_311_131" x1="156.016" y1="59.4229" x2="156.016" y2="66.1088" gradientUnits="userSpaceOnUse">
<stop stop-color="#E3B69F"/>
<stop offset="1" stop-color="#C38A6E"/>
</linearGradient>
<linearGradient id="paint4_linear_311_131" x1="167.901" y1="59.4229" x2="167.901" y2="66.1088" gradientUnits="userSpaceOnUse">
<stop stop-color="#E3B69F"/>
<stop offset="1" stop-color="#C38A6E"/>
</linearGradient>
<linearGradient id="paint5_linear_311_131" x1="175.576" y1="59.3149" x2="175.576" y2="66.2173" gradientUnits="userSpaceOnUse">
<stop stop-color="#E3B69F"/>
<stop offset="1" stop-color="#C38A6E"/>
</linearGradient>
<linearGradient id="paint6_linear_311_131" x1="183.913" y1="59.3728" x2="183.913" y2="66.1093" gradientUnits="userSpaceOnUse">
<stop stop-color="#E3B69F"/>
<stop offset="1" stop-color="#C38A6E"/>
</linearGradient>
<linearGradient id="paint7_linear_311_131" x1="196.377" y1="59.4227" x2="196.377" y2="66.1087" gradientUnits="userSpaceOnUse">
<stop stop-color="#E3B69F"/>
<stop offset="1" stop-color="#C38A6E"/>
</linearGradient>
<linearGradient id="paint8_linear_311_131" x1="205.76" y1="59.3149" x2="205.76" y2="66.2173" gradientUnits="userSpaceOnUse">
<stop stop-color="#E3B69F"/>
<stop offset="1" stop-color="#C38A6E"/>
</linearGradient>
<linearGradient id="paint9_linear_311_131" x1="214.098" y1="59.3723" x2="214.098" y2="66.1088" gradientUnits="userSpaceOnUse">
<stop stop-color="#E3B69F"/>
<stop offset="1" stop-color="#C38A6E"/>
</linearGradient>
<linearGradient id="paint10_linear_311_131" x1="221.121" y1="59.4229" x2="221.121" y2="66.1088" gradientUnits="userSpaceOnUse">
<stop stop-color="#E3B69F"/>
<stop offset="1" stop-color="#C38A6E"/>
</linearGradient>
<linearGradient id="paint11_linear_311_131" x1="180.277" y1="34.1147" x2="180.277" y2="54.829" gradientUnits="userSpaceOnUse">
<stop stop-color="#E3B69F"/>
<stop offset="1" stop-color="#C38A6E"/>
</linearGradient>
<linearGradient id="paint12_linear_311_131" x1="145.247" y1="34.1147" x2="145.247" y2="54.829" gradientUnits="userSpaceOnUse">
<stop stop-color="#E3B69F"/>
<stop offset="1" stop-color="#C38A6E"/>
</linearGradient>
<linearGradient id="paint13_linear_311_131" x1="215.302" y1="34.1147" x2="215.302" y2="54.829" gradientUnits="userSpaceOnUse">
<stop stop-color="#E3B69F"/>
<stop offset="1" stop-color="#C38A6E"/>
</linearGradient>
<linearGradient id="paint14_linear_311_131" x1="282.385" y1="34.1147" x2="282.385" y2="54.829" gradientUnits="userSpaceOnUse">
<stop stop-color="#E3B69F"/>
<stop offset="1" stop-color="#C38A6E"/>
</linearGradient>
<linearGradient id="paint15_linear_311_131" x1="248.862" y1="34.1147" x2="248.862" y2="54.829" gradientUnits="userSpaceOnUse">
<stop stop-color="#E3B69F"/>
<stop offset="1" stop-color="#C38A6E"/>
</linearGradient>
</defs>
</svg>
