<svg width="50" height="31" viewBox="0 0 50 31" fill="none" xmlns="http://www.w3.org/2000/svg">
<g clip-path="url(#clip0_129_32399)">
<path d="M22.9518 19.9708H0.605469L11.7744 0.507812L22.9518 19.9708ZM5.06466 17.3768C9.35589 17.3768 14.2098 17.3768 18.4926 17.3768C16.3428 13.63 13.9158 9.40855 11.7744 5.67872C9.64141 9.40855 7.21447 13.6385 5.06466 17.3768Z" fill="white"/>
<path d="M22.9507 20.4802H0.604351C0.427999 20.4802 0.260045 20.3869 0.16767 20.2259C0.075295 20.0648 0.075295 19.8783 0.16767 19.7173L11.3366 0.254307C11.429 0.0932458 11.597 0 11.7733 0C11.9497 0 12.1176 0.0932458 12.21 0.254307L23.3874 19.7173C23.4797 19.8783 23.4797 20.0648 23.3874 20.2259C23.295 20.3869 23.127 20.4802 22.9507 20.4802ZM1.47771 19.4629H22.0773L11.7733 1.52584L1.47771 19.4629ZM18.4915 17.8862H5.06354C4.88719 17.8862 4.71923 17.793 4.62686 17.6319C4.53448 17.4709 4.53448 17.2759 4.62686 17.1233C6.93623 13.1138 9.31278 8.96008 11.3366 5.42521C11.429 5.26415 11.5886 5.17091 11.7733 5.17091C11.9497 5.17091 12.1176 5.26415 12.21 5.42521C13.0918 6.95953 14.0155 8.57014 14.956 10.1977C16.2997 12.5373 17.6685 14.9109 18.9282 17.1233C19.0205 17.2844 19.0205 17.4709 18.9282 17.6319C18.8358 17.793 18.6678 17.8862 18.4915 17.8862ZM5.9369 16.869H17.6181C16.476 14.8854 15.2752 12.7832 14.0827 10.7063C13.3017 9.34154 12.5207 7.99371 11.7733 6.68827C9.9846 9.82472 7.94395 13.385 5.9369 16.869Z" fill="white"/>
<path d="M23.093 16.3694V5.02734H25.2092V14.2417H29.4165V16.3694H23.093Z" fill="white"/>
<path d="M29.4172 16.5386H23.0937L22.9258 16.369V5.02696L23.0937 4.85742H25.21L25.3779 5.02696V14.0718H29.4172L29.5852 14.2413V16.369L29.4172 16.5386ZM23.2617 16.1995H29.2493V14.4109H25.21L25.042 14.2413V5.1965H23.2617V16.1995Z" fill="white"/>
<path d="M31.3391 16.3694V5.02734H38.3848V7.15504H33.4637V9.55401H38.284V11.6817H33.4637V14.2502H38.3848V16.3779H31.3391V16.3694Z" fill="white"/>
<path d="M38.3862 16.5471H31.3406L31.1726 16.3775V5.02696L31.3406 4.85742H38.3862L38.5542 5.02696V7.15466L38.3862 7.3242H33.6331V9.38408H38.2855L38.4534 9.55362V11.6813L38.2855 11.8509H33.6331V14.0803H38.3862L38.5542 14.2498V16.3775L38.3862 16.5471ZM31.5085 16.208H38.2183V14.4194H33.4652L33.2972 14.2498V11.6813L33.4652 11.5118H38.1175V9.72316H33.4652L33.2972 9.55362V7.15466L33.4652 6.98512H38.2183V5.1965H31.5085V16.208Z" fill="white"/>
<path d="M47.3215 16.3694L44.8274 12.2157L42.3164 16.3694H39.7971L43.4081 10.5543L40.0239 5.02734H42.5432L44.8274 8.90128L47.0779 5.02734H49.6309L46.2466 10.5373L49.8576 16.3694H47.3215Z" fill="white"/>
<path d="M49.8583 16.5386H47.3221L47.1794 16.4538L44.828 12.5375L42.4599 16.4538L42.3171 16.5386H39.7978L39.655 16.2758L43.2073 10.5539L39.8818 5.12021L40.0245 4.85742H42.5438L42.6866 4.94219L44.828 8.5703L46.9359 4.94219L47.0786 4.85742H49.6315L49.7743 5.12021L46.4488 10.5369L50.001 16.2758L49.8583 16.5386ZM47.4145 16.1995H49.5559L46.1045 10.6302V10.4522L49.3292 5.20497H47.171L44.9708 8.98567H44.6853L42.4515 5.1965H40.3268L43.5516 10.4606V10.6387L40.1001 16.191H42.2247L44.6853 12.1221H44.9708L47.4145 16.1995Z" fill="white"/>
<path d="M0 30.2539L0.453477 29.6181C0.77259 29.9657 1.27645 30.2708 1.93147 30.2708C2.60329 30.2708 2.87202 29.9402 2.87202 29.6266C2.87202 28.6348 0.151159 29.2536 0.151159 27.5158C0.151159 26.736 0.831374 26.1426 1.8475 26.1426C2.5781 26.1426 3.15754 26.3715 3.59422 26.7953L3.12395 27.4056C2.76285 27.0411 2.26738 26.8716 1.77192 26.8716C1.29325 26.8716 0.982533 27.1005 0.982533 27.4565C0.982533 28.3296 3.69499 27.7871 3.69499 29.5418C3.69499 30.3217 3.14914 30.9914 1.88949 30.9914C1.03292 30.9998 0.411488 30.7031 0 30.2539Z" fill="white"/>
<path d="M6.1897 28.5676C6.1897 27.1605 7.17223 26.1348 8.57465 26.1348C9.96867 26.1348 10.9596 27.1689 10.9596 28.5676C10.9596 29.9748 9.97707 31.0005 8.57465 31.0005C7.18063 31.0005 6.1897 29.9748 6.1897 28.5676ZM10.1198 28.5676C10.1198 27.5928 9.51519 26.8638 8.57465 26.8638C7.6341 26.8638 7.02947 27.5928 7.02947 28.5676C7.02947 29.534 7.6341 30.2715 8.57465 30.2715C9.51519 30.2715 10.1198 29.534 10.1198 28.5676Z" fill="white"/>
<path d="M13.6963 30.9156V26.2109H16.8874V26.9399H14.5109V28.1606H16.837V28.8896H14.5109V30.9241H13.6963V30.9156Z" fill="white"/>
<path d="M20.6833 30.9156V26.9399H19.2725V26.2109H22.9171V26.9399H21.5063V30.9156H20.6833Z" fill="white"/>
<path d="M29.1227 30.9156L28.2158 27.4486L27.3172 30.9156H26.4439L25.1086 26.2109H26.024L26.9309 29.839L27.8967 26.2109H28.5433L29.509 29.839L30.4076 26.2109H31.323L29.9961 30.9156H29.1227Z" fill="white"/>
<path d="M43.1311 30.9156L42.0982 29.1609H41.2836V30.9156H40.469V26.2109H42.518C43.4418 26.2109 44.038 26.8213 44.038 27.6859C44.038 28.5251 43.4922 28.9744 42.9379 29.0677L44.08 30.9156H43.1311ZM43.2067 27.6859C43.2067 27.2366 42.8707 26.9399 42.4089 26.9399H41.292V28.4319H42.4089C42.8707 28.4319 43.2067 28.1352 43.2067 27.6859Z" fill="white"/>
<path d="M46.8101 30.9156V26.2109H50.0012V26.9399H47.6246V28.1606H49.9508V28.8896H47.6246V30.1951H50.0012V30.9241H46.8101V30.9156Z" fill="white"/>
<path d="M37.8977 30.9143H33.4805C33.3294 30.9143 33.195 30.8296 33.1194 30.7024C33.0438 30.5752 33.0438 30.4142 33.1194 30.2786L34.2195 28.3458L35.328 26.4131C35.4036 26.2859 35.538 26.2012 35.6891 26.2012C35.8403 26.2012 35.9746 26.2859 36.0502 26.4131L37.1587 28.3458L38.2588 30.2786C38.3344 30.4057 38.3344 30.5752 38.2588 30.7024C38.1832 30.8296 38.0489 30.9143 37.8977 30.9143ZM34.2027 30.0666H37.1671L36.4281 28.7697L35.6807 27.4727L34.9333 28.7697L34.2027 30.0666Z" fill="white"/>
</g>
<defs>
<clipPath id="clip0_129_32399">
<rect width="50" height="31" fill="white"/>
</clipPath>
</defs>
</svg>
