<svg width="60" height="60" viewBox="0 0 60 60" fill="none" xmlns="http://www.w3.org/2000/svg">
<g clip-path="url(#clip0_129_32172)">
<g clip-path="url(#clip1_129_32172)">
<path d="M43.6365 37.9067V22.089L30.0006 14.1797L16.3638 22.089V37.9067L30.0006 45.816L43.6365 37.9067Z" fill="#036063"/>
<path d="M55.7535 25.7535C53.6512 25.7535 51.9131 27.2932 51.5777 29.3019H44.5312V21.6106L41.2609 19.7224L45.7472 15.2351C47.4557 16.4621 49.7519 16.2528 51.2127 14.792C52.8684 13.1363 52.8684 10.4424 51.2127 8.78679C49.5537 7.1277 46.868 7.12686 45.208 8.78679C43.7221 10.2727 43.5812 12.589 44.7627 14.2464L40.0104 19.0003L30.6936 13.6208V8.42233C32.7044 8.08866 34.246 6.35044 34.246 4.24645C34.246 1.90498 32.3415 0 30 0C27.6585 0 25.7535 1.90498 25.7535 4.24645C25.7535 6.34765 27.2915 8.08452 29.2982 8.42149V13.6255L19.9857 19.0024L15.2337 14.2503C16.4183 12.5927 16.2786 10.2739 14.7915 8.78679C13.1324 7.1277 10.4467 7.12686 8.78678 8.78679C7.13116 10.4424 7.13116 13.1363 8.78678 14.792C10.2417 16.2469 12.5352 16.4654 14.2485 15.2383L18.735 19.7246L15.4683 21.6106V29.3019H8.42182C8.08638 27.2932 6.34833 25.7535 4.246 25.7535C1.90452 25.7535 0 27.6585 0 30C0 32.3415 1.90452 34.2465 4.246 34.2465C6.34879 34.2465 8.08685 32.7063 8.42206 30.6972H15.4683V38.3894L18.7391 40.2779L14.253 44.7653C12.5405 43.5353 10.2447 43.7501 8.78679 45.208C7.13117 46.8636 7.13117 49.5576 8.78679 51.2132C10.4459 52.8723 13.1316 52.8731 14.7915 51.2132C16.2773 49.7274 16.4183 47.4115 15.2373 45.7541L19.99 41L29.2982 46.3745V51.5785C27.2915 51.9155 25.7535 53.6523 25.7535 55.7535C25.7535 58.095 27.6585 60 30 60C32.3415 60 34.246 58.095 34.246 55.7535C34.246 53.6496 32.7044 51.9113 30.6936 51.5777V46.3792L40.01 40.9998L44.7631 45.7529C43.5813 47.4103 43.7218 49.7271 45.208 51.2132C46.8671 52.8723 49.5528 52.8731 51.2128 51.2132C52.8684 49.5576 52.8684 46.8636 51.2128 45.208C49.7766 43.7719 47.4835 43.5185 45.7476 44.7644L41.2609 40.2776L44.5313 38.3894V30.6972H51.5775C51.9127 32.7063 53.6508 34.2465 55.7535 34.2465C58.095 34.2465 60 32.3415 60 30C60 27.6585 58.095 25.7535 55.7535 25.7535ZM42.6708 37.3156L30 44.6312L17.3288 37.3156V22.6844L30 15.3688L42.6708 22.6844V37.3156Z" fill="#036063"/>
<path fill-rule="evenodd" clip-rule="evenodd" d="M29.8272 28.1117V39.1924C29.8272 39.1924 23.7578 36.5951 21.2142 35.5096L21.207 35.4973V24.4238L21.2142 24.4375L29.8196 28.1203L29.8272 28.1117Z" fill="white"/>
<path fill-rule="evenodd" clip-rule="evenodd" d="M38.4398 24.4238L38.4327 24.4374L29.8267 28.1208V39.1939L38.4327 35.5105L38.4398 35.4969V24.4238Z" fill="white"/>
<path fill-rule="evenodd" clip-rule="evenodd" d="M29.6827 20.7422L21.2041 24.4247V24.4341L29.8264 28.1339L38.4541 24.4248L29.9156 20.7422H29.8264H29.6827V20.7422Z" fill="white"/>
<path fill-rule="evenodd" clip-rule="evenodd" d="M32.4868 21.8555L32.4337 21.875L23.8691 25.5782V30.7792L25.3896 30.0292L26.8896 32.2792L26.8881 26.8748L35.4545 23.1328L32.4868 21.8555Z" fill="#036063"/>
</g>
</g>
<defs>
<clipPath id="clip0_129_32172">
<rect width="60" height="60" fill="white"/>
</clipPath>
<clipPath id="clip1_129_32172">
<rect width="60" height="60" fill="white"/>
</clipPath>
</defs>
</svg>
