<svg width="181" height="25" viewBox="0 0 181 25" fill="none" xmlns="http://www.w3.org/2000/svg">
<path fill-rule="evenodd" clip-rule="evenodd" d="M32.3605 24.152L32.2268 0.233946H40.573V9.04339H56.3344V0.303186H64.2781V24.2196H56.3344V15.5487H40.5055V24.152H32.3605ZM29.8071 6.20037C29.907 5.84761 29.907 5.19338 29.733 4.59658C29.5542 3.99506 29.2047 3.45451 28.7261 2.92551C28.2509 2.39297 27.658 1.87393 26.9525 1.42073C26.2454 0.969094 25.4287 0.584997 24.7889 0.360755C24.1464 0.133496 23.6823 0.0658303 20.7954 0.0312104C17.9007 6.25305e-08 12.5812 0 9.8749 0C7.17349 0 7.08146 -1.21934e-06 6.67886 0.102023C6.26794 0.20103 5.5399 0.405471 4.80854 0.744851C4.08038 1.08292 3.35221 1.55737 2.78043 2.15732C2.20684 2.75412 1.78464 3.47759 1.51085 4.21104C1.2322 4.94435 1.10172 5.68933 1.01302 6.60413C0.924583 7.52051 0.882798 8.6033 0.968034 9.55272C1.05673 10.5021 1.27899 11.313 1.67518 12.0579C2.07149 12.8044 2.64661 13.4818 3.37798 14.001C4.1046 14.5219 4.98747 14.8812 5.57054 15.0856C6.15373 15.29 6.44533 15.3328 8.97114 15.3558C11.5004 15.3807 16.2656 15.3807 18.74 15.3691C21.2127 15.3558 21.39 15.3328 21.5976 15.4464C21.8088 15.5602 22.052 15.8074 22.1825 16.0893C22.3162 16.3727 22.3371 16.6891 22.2486 16.948C22.1615 17.2084 21.9618 17.4112 21.7734 17.5578C21.588 17.7061 21.4124 17.7951 17.9441 17.8429C14.4774 17.8856 7.72439 17.8856 4.29468 17.9105C0.860112 17.9302 0.74719 17.9764 0.792307 18.372C0.836015 18.7675 1.03571 19.5141 1.43203 20.2706C1.82975 21.0271 2.42423 21.7935 3.18777 22.4033C3.94989 23.0132 4.87775 23.4665 5.60591 23.7366C6.33254 24.007 6.86408 24.0975 9.97475 24.1422C13.0886 24.1883 18.7834 24.1883 21.762 24.1537C24.7438 24.1207 25.0081 24.0515 25.5139 23.8388C26.0247 23.6231 26.7753 23.2621 27.4277 22.7874C28.077 22.3126 28.6294 21.7259 29.0259 21.1045C29.4253 20.4833 29.6652 19.8274 29.7894 18.588C29.907 17.3451 29.907 15.514 29.8861 14.4989C29.8683 13.4818 29.8216 13.2792 29.6331 12.9165C29.4463 12.5572 29.1145 12.0364 28.6875 11.5404C28.2509 11.0427 27.7226 10.5678 27.0508 10.1525C26.3775 9.73238 25.5607 9.37307 24.889 9.18004C24.2156 8.98727 23.6823 8.96432 21.1676 8.95448C18.653 8.9411 14.1488 8.94111 11.7759 8.92157C9.40143 8.89823 9.15802 8.8522 8.97114 8.75004C8.78439 8.64789 8.64904 8.4896 8.56355 8.25395C8.47357 8.0166 8.43153 7.70174 8.53138 7.4396C8.62802 7.18087 8.87129 6.97656 9.13559 6.83651C9.39809 6.69803 9.68495 6.62066 12.9052 6.57935C16.1302 6.54158 22.2906 6.54158 25.4929 6.5564C28.6956 6.57279 28.9404 6.60741 29.0791 6.62223C29.2239 6.63875 29.2707 6.63875 29.3899 6.61567C29.5123 6.59246 29.7103 6.54814 29.8071 6.20037ZM145.637 8.84905L148.983 8.87357L157.987 0.235651H169.611L157.423 11.313L171.961 24.2544H160.638L149.745 14.7015H145.637V24.1883H137.687V0.133495H145.637V8.84905ZM173.054 24.3218V0.27014H181.001V24.3218H173.054ZM115.744 14.4971H123.008L119.346 6.97656L115.744 14.4971ZM125.563 19.7481H113.227L111.002 24.3911H102.061L113.848 0.27014H122.327C127.148 0.720198 131.907 16.3496 136.698 24.3911H127.823L125.563 19.7481ZM90.8022 24.2544C85.9808 23.8043 81.2219 8.17304 76.4325 0.133495H85.3057L93.784 17.5479L102.127 0.133495H111.068L99.2806 24.2544H90.8022ZM67.3582 24.1883V0.133495H75.305V24.1883H67.3582Z" fill="#6E8889"/>
</svg>
