<svg width="98" height="117" viewBox="0 0 98 117" fill="none" xmlns="http://www.w3.org/2000/svg">
<path d="M10.253 111.744V101.07H3.23296V111.744H1.73896V99.7381H11.747V111.744H10.253ZM18.2974 111.96C17.6374 111.96 17.0374 111.84 16.4974 111.6C15.9694 111.36 15.5194 111.036 15.1474 110.628C14.7754 110.208 14.4874 109.722 14.2834 109.17C14.0914 108.618 13.9954 108.024 13.9954 107.388C13.9954 106.764 14.0914 106.176 14.2834 105.624C14.4874 105.06 14.7754 104.574 15.1474 104.166C15.5194 103.758 15.9694 103.434 16.4974 103.194C17.0374 102.954 17.6374 102.834 18.2974 102.834C18.9574 102.834 19.5514 102.954 20.0794 103.194C20.6194 103.434 21.0754 103.758 21.4474 104.166C21.8194 104.574 22.1014 105.06 22.2934 105.624C22.4974 106.176 22.5994 106.764 22.5994 107.388C22.5994 108.024 22.4974 108.618 22.2934 109.17C22.1014 109.722 21.8194 110.208 21.4474 110.628C21.0754 111.036 20.6194 111.36 20.0794 111.6C19.5514 111.84 18.9574 111.96 18.2974 111.96ZM18.2974 110.754C18.7654 110.754 19.1734 110.664 19.5214 110.484C19.8814 110.292 20.1814 110.046 20.4214 109.746C20.6734 109.434 20.8594 109.074 20.9794 108.666C21.1114 108.258 21.1774 107.832 21.1774 107.388C21.1774 106.944 21.1114 106.524 20.9794 106.128C20.8594 105.72 20.6734 105.366 20.4214 105.066C20.1814 104.754 19.8814 104.508 19.5214 104.328C19.1734 104.136 18.7654 104.04 18.2974 104.04C17.8294 104.04 17.4154 104.136 17.0554 104.328C16.6954 104.508 16.3894 104.754 16.1374 105.066C15.8974 105.366 15.7114 105.72 15.5794 106.128C15.4594 106.524 15.3994 106.944 15.3994 107.388C15.3994 107.832 15.4594 108.258 15.5794 108.666C15.7114 109.074 15.8974 109.434 16.1374 109.746C16.3894 110.046 16.6954 110.292 17.0554 110.484C17.4154 110.664 17.8294 110.754 18.2974 110.754ZM30.7222 111.744L27.5902 107.838L26.1502 109.26V111.744H24.8002V103.05H26.1502V107.676L30.7222 103.05H32.4322L28.5802 106.992L32.4502 111.744H30.7222ZM33.7763 113.922C33.8723 113.97 33.9923 114.006 34.1363 114.03C34.2803 114.054 34.4063 114.066 34.5143 114.066C34.8143 114.066 35.0663 114 35.2703 113.868C35.4743 113.748 35.6543 113.508 35.8103 113.148L36.3863 111.834L32.7503 103.05H34.2083L37.1063 110.178L39.9863 103.05H41.4623L37.1063 113.508C36.8423 114.144 36.4943 114.594 36.0623 114.858C35.6303 115.122 35.1263 115.26 34.5503 115.272C34.4063 115.272 34.2383 115.26 34.0463 115.236C33.8543 115.212 33.6923 115.182 33.5603 115.146L33.7763 113.922ZM48.7565 111.744V104.238H44.2205V111.744H42.8705V103.05H50.1065V111.744H48.7565ZM58.2381 111.744V110.754C57.5061 111.558 56.5461 111.96 55.3581 111.96C54.9861 111.96 54.6201 111.9 54.2601 111.78C53.9001 111.66 53.5761 111.48 53.2881 111.24C53.0001 110.988 52.7661 110.682 52.5861 110.322C52.4061 109.962 52.3161 109.548 52.3161 109.08C52.3161 108.6 52.4061 108.18 52.5861 107.82C52.7661 107.46 53.0001 107.16 53.2881 106.92C53.5761 106.68 53.9001 106.506 54.2601 106.398C54.6201 106.278 54.9861 106.218 55.3581 106.218C55.9581 106.218 56.4981 106.314 56.9781 106.506C57.4701 106.698 57.8901 106.998 58.2381 107.406V105.84C58.2381 105.252 58.0281 104.802 57.6081 104.49C57.2001 104.166 56.6781 104.004 56.0421 104.004C55.0221 104.004 54.1341 104.406 53.3781 105.21L52.7481 104.274C53.6721 103.314 54.8301 102.834 56.2221 102.834C56.6781 102.834 57.1101 102.888 57.5181 102.996C57.9261 103.104 58.2801 103.278 58.5801 103.518C58.8921 103.746 59.1381 104.046 59.3181 104.418C59.4981 104.79 59.5881 105.24 59.5881 105.768V111.744H58.2381ZM55.8441 110.988C56.3241 110.988 56.7741 110.898 57.1941 110.718C57.6261 110.538 57.9741 110.268 58.2381 109.908V108.27C57.9741 107.91 57.6261 107.64 57.1941 107.46C56.7741 107.28 56.3241 107.19 55.8441 107.19C55.2081 107.19 54.6921 107.37 54.2961 107.73C53.9001 108.078 53.7021 108.534 53.7021 109.098C53.7021 109.65 53.9001 110.106 54.2961 110.466C54.6921 110.814 55.2081 110.988 55.8441 110.988ZM63.8783 111.744V104.238H61.3583V103.05H67.7663V104.238H65.2283V111.744H63.8783ZM73.4605 111.96C72.8125 111.96 72.2185 111.852 71.6785 111.636C71.1385 111.408 70.6705 111.096 70.2745 110.7C69.8905 110.292 69.5845 109.812 69.3565 109.26C69.1405 108.696 69.0325 108.072 69.0325 107.388C69.0325 106.764 69.1405 106.176 69.3565 105.624C69.5725 105.06 69.8665 104.574 70.2385 104.166C70.6225 103.758 71.0725 103.434 71.5885 103.194C72.1165 102.954 72.6925 102.834 73.3165 102.834C73.9765 102.834 74.5645 102.954 75.0805 103.194C75.5965 103.434 76.0345 103.764 76.3945 104.184C76.7545 104.604 77.0245 105.102 77.2045 105.678C77.3965 106.242 77.4925 106.848 77.4925 107.496V107.838H70.4545C70.4785 108.246 70.5685 108.636 70.7245 109.008C70.8805 109.368 71.0905 109.686 71.3545 109.962C71.6305 110.226 71.9545 110.442 72.3265 110.61C72.6985 110.766 73.1185 110.844 73.5865 110.844C74.0905 110.844 74.5765 110.748 75.0445 110.556C75.5125 110.364 75.9205 110.094 76.2685 109.746L76.9165 110.628C76.4845 111.06 75.9805 111.39 75.4045 111.618C74.8285 111.846 74.1805 111.96 73.4605 111.96ZM76.1605 106.848C76.1605 106.524 76.1005 106.194 75.9805 105.858C75.8725 105.51 75.6985 105.198 75.4585 104.922C75.2305 104.634 74.9365 104.4 74.5765 104.22C74.2165 104.04 73.7905 103.95 73.2985 103.95C72.8305 103.95 72.4225 104.04 72.0745 104.22C71.7265 104.4 71.4325 104.628 71.1925 104.904C70.9645 105.18 70.7845 105.492 70.6525 105.84C70.5325 106.176 70.4665 106.512 70.4545 106.848H76.1605ZM78.6531 110.844C79.0611 110.844 79.3971 110.58 79.6611 110.052C79.9251 109.524 80.1411 108.618 80.3091 107.334L80.8671 103.05H86.9151V111.744H85.5651V104.238H82.0551L81.6591 107.496C81.5631 108.312 81.4311 109.002 81.2631 109.566C81.0951 110.13 80.8851 110.592 80.6331 110.952C80.3931 111.3 80.1051 111.558 79.7691 111.726C79.4451 111.882 79.0731 111.96 78.6531 111.96V110.844ZM90.9607 103.05V106.416H94.2187C94.6627 106.416 95.0527 106.488 95.3887 106.632C95.7367 106.776 96.0247 106.974 96.2527 107.226C96.4927 107.466 96.6667 107.748 96.7747 108.072C96.8947 108.384 96.9547 108.72 96.9547 109.08C96.9547 109.44 96.8947 109.782 96.7747 110.106C96.6547 110.43 96.4807 110.712 96.2527 110.952C96.0247 111.192 95.7367 111.384 95.3887 111.528C95.0527 111.672 94.6627 111.744 94.2187 111.744H89.6107V103.05H90.9607ZM90.9607 107.604V110.556H94.0747C94.5667 110.556 94.9387 110.418 95.1907 110.142C95.4427 109.866 95.5687 109.512 95.5687 109.08C95.5687 108.66 95.4427 108.312 95.1907 108.036C94.9507 107.748 94.5787 107.604 94.0747 107.604H90.9607Z" fill="black"/>
<g clip-path="url(#clip0_129_32268)">
<path d="M82.2425 60.873H45.7344C45.6595 60.8735 45.5858 60.891 45.5186 60.9241C45.4514 60.9573 45.3926 61.0054 45.3464 61.0647C45.3003 61.124 45.2681 61.193 45.2522 61.2666C45.2364 61.3402 45.2373 61.4164 45.2548 61.4896L49.2076 77.3925C49.3023 77.7271 49.5934 78.7448 50.6679 78.7448H77.309C78.3875 78.7448 78.6756 77.7261 78.7743 77.3756L82.7211 61.4896C82.7392 61.4165 82.7406 61.3401 82.725 61.2663C82.7094 61.1926 82.6773 61.1233 82.6312 61.0639C82.5851 61.0045 82.5261 60.9564 82.4588 60.9233C82.3914 60.8903 82.3175 60.8731 82.2425 60.873ZM77.8221 77.1195C77.6425 77.7519 77.457 77.7519 77.309 77.7519H50.6679C50.5209 77.7519 50.3364 77.7519 50.1597 77.1353L46.3668 61.8659H81.611L77.8221 77.1195Z" fill="#036063"/>
<path d="M61.5217 74.7725C61.6525 74.7725 61.778 74.7202 61.8705 74.6271C61.9631 74.534 62.015 74.4077 62.015 74.2761V65.3402C62.015 65.2085 61.9631 65.0823 61.8705 64.9892C61.778 64.8961 61.6525 64.8438 61.5217 64.8438C61.3908 64.8438 61.2653 64.8961 61.1728 64.9892C61.0803 65.0823 61.0283 65.2085 61.0283 65.3402V74.2761C61.0283 74.4077 61.0803 74.534 61.1728 74.6271C61.2653 74.7202 61.3908 74.7725 61.5217 74.7725Z" fill="#036063"/>
<path d="M54.6136 74.7725C54.6831 74.7727 54.7518 74.7581 54.8152 74.7296C54.8787 74.7012 54.9355 74.6597 54.9818 74.6076C55.0282 74.5556 55.0632 74.4943 55.0844 74.4278C55.1056 74.3612 55.1126 74.2909 55.105 74.2215L54.1183 65.2856C54.1039 65.1547 54.0384 65.035 53.9363 64.9527C53.8342 64.8704 53.7037 64.8323 53.5736 64.8468C53.4436 64.8612 53.3246 64.9271 53.2428 65.0299C53.161 65.1327 53.1231 65.264 53.1375 65.3948L54.1242 74.3307C54.1376 74.452 54.1948 74.5641 54.2851 74.6456C54.3754 74.7271 54.4923 74.7723 54.6136 74.7725Z" fill="#036063"/>
<path d="M67.4418 74.7725C67.5727 74.7725 67.6982 74.7202 67.7907 74.6271C67.8832 74.534 67.9352 74.4077 67.9352 74.2761V65.3402C67.9352 65.2085 67.8832 65.0823 67.7907 64.9892C67.6982 64.8961 67.5727 64.8438 67.4418 64.8438C67.311 64.8438 67.1855 64.8961 67.093 64.9892C67.0005 65.0823 66.9485 65.2085 66.9485 65.3402V74.2761C66.9485 74.4077 67.0005 74.534 67.093 74.6271C67.1855 74.7202 67.311 74.7725 67.4418 74.7725Z" fill="#036063"/>
<path d="M73.307 74.7695L73.3633 74.7725C73.4846 74.7723 73.6015 74.7271 73.6918 74.6456C73.7821 74.5641 73.8394 74.452 73.8527 74.3307L74.8394 65.3948C74.8538 65.264 74.8159 65.1327 74.7341 65.0299C74.6524 64.9271 74.5333 64.8612 74.4033 64.8468C74.2732 64.8323 74.1428 64.8704 74.0406 64.9527C73.9385 65.035 73.873 65.1547 73.8586 65.2856L72.8719 74.2215C72.8575 74.3522 72.8952 74.4833 72.9768 74.5861C73.0584 74.6889 73.1772 74.7548 73.307 74.7695Z" fill="#036063"/>
<path d="M77.3092 58.8862C77.4038 58.8862 77.4963 58.8588 77.5758 58.8074C77.6553 58.756 77.7184 58.6827 77.7577 58.5962C77.797 58.5097 77.8108 58.4137 77.7974 58.3195C77.784 58.2254 77.744 58.1371 77.6822 58.0651L68.3085 47.1435C68.2212 47.0507 68.1018 46.9953 67.9749 46.9889C67.8481 46.9825 67.7237 47.0255 67.6277 47.109C67.5316 47.1925 67.4712 47.3101 67.459 47.4373C67.4469 47.5645 67.484 47.6915 67.5625 47.7919L76.9363 58.7135C76.9823 58.7677 77.0395 58.8112 77.1039 58.841C77.1683 58.8709 77.2384 58.8863 77.3092 58.8862Z" fill="#036063"/>
<path d="M60.847 47.0843C60.7457 47.0012 60.6158 46.962 60.4857 46.9752C60.3556 46.9884 60.2361 47.053 60.1534 47.1548L51.273 58.0764C51.229 58.1265 51.1956 58.185 51.1746 58.2484C51.1537 58.3118 51.1457 58.3788 51.151 58.4454C51.1564 58.512 51.1751 58.5768 51.206 58.6359C51.2369 58.6951 51.2793 58.7474 51.3307 58.7896C51.3822 58.8319 51.4415 58.8632 51.5053 58.8819C51.5691 58.9005 51.6359 58.9059 51.7018 58.8979C51.7678 58.8899 51.8314 58.8686 51.8889 58.8353C51.9465 58.802 51.9967 58.7573 52.0367 58.7039L60.9171 47.7823C60.9997 47.6804 61.0387 47.5496 61.0256 47.4187C61.0124 47.2879 60.9482 47.1676 60.847 47.0843Z" fill="#036063"/>
<path d="M84.2161 56.9014H80.2692C80.1384 56.9014 80.0129 56.9537 79.9204 57.0468C79.8279 57.1399 79.7759 57.2661 79.7759 57.3978C79.7759 57.5295 79.8279 57.6557 79.9204 57.7488C80.0129 57.8419 80.1384 57.8942 80.2692 57.8942H84.2161C84.3469 57.8942 84.4724 57.8419 84.5649 57.7488C84.6574 57.6557 84.7094 57.5295 84.7094 57.3978C84.7094 57.2661 84.6574 57.1399 84.5649 57.0468C84.4724 56.9537 84.3469 56.9014 84.2161 56.9014Z" fill="#036063"/>
<path d="M56.5883 57.8942H72.3756C72.5065 57.8942 72.632 57.8419 72.7245 57.7488C72.817 57.6557 72.869 57.5295 72.869 57.3978C72.869 57.2661 72.817 57.1399 72.7245 57.0468C72.632 56.9537 72.5065 56.9014 72.3756 56.9014H56.5883C56.4575 56.9014 56.332 56.9537 56.2395 57.0468C56.1469 57.1399 56.095 57.2661 56.095 57.3978C56.095 57.5295 56.1469 57.6557 56.2395 57.7488C56.332 57.8419 56.4575 57.8942 56.5883 57.8942Z" fill="#036063"/>
<path d="M43.7609 57.8942H48.6945C48.8253 57.8942 48.9508 57.8419 49.0433 57.7488C49.1358 57.6557 49.1878 57.5295 49.1878 57.3978C49.1878 57.2661 49.1358 57.1399 49.0433 57.0468C48.9508 56.9537 48.8253 56.9014 48.6945 56.9014H43.7609C43.6301 56.9014 43.5046 56.9537 43.4121 57.0468C43.3196 57.1399 43.2676 57.2661 43.2676 57.3978C43.2676 57.5295 43.3196 57.6557 43.4121 57.7488C43.5046 57.8419 43.6301 57.8942 43.7609 57.8942Z" fill="#036063"/>
</g>
<path d="M32.1846 7.38656C32.1839 9.21238 31.4581 10.9632 30.1666 12.2538C28.8751 13.5444 27.1238 14.2691 25.298 14.2685C23.4722 14.2679 21.7214 13.542 20.4307 12.2506C19.1401 10.9591 18.4154 9.20779 18.416 7.38197C18.4166 5.55615 19.1425 3.80535 20.434 2.51473C21.0735 1.87568 21.8326 1.36884 22.6679 1.02316C23.5033 0.677468 24.3985 0.499699 25.3026 0.5C26.2066 0.500302 27.1018 0.678667 27.9369 1.02491C28.772 1.37116 29.5308 1.8785 30.1698 2.51798C30.8089 3.15745 31.3157 3.91654 31.6614 4.75189C32.0071 5.58724 32.1849 6.4825 32.1846 7.38656Z" stroke="#036063"/>
<path d="M18.4212 49.2167V48.7167H17.9212H13.5V24.6107C13.5 23.4381 13.9658 22.3135 14.7949 21.4844C15.6241 20.6553 16.7486 20.1895 17.9212 20.1895H32.6848C33.8574 20.1895 34.9819 20.6553 35.8111 21.4844C36.6402 22.3135 37.106 23.4381 37.106 24.6107V48.7167H32.6848H32.1848V49.2167V78.2439H27.0333V49.2167V48.7167H26.5333H24.0727H23.5727V49.2167V78.2439H18.4212V49.2167Z" stroke="#036063"/>
<defs>
<clipPath id="clip0_129_32268">
<rect width="41.4417" height="31.772" fill="white" transform="translate(43.2676 46.9727)"/>
</clipPath>
</defs>
</svg>
