<svg width="60" height="60" viewBox="0 0 60 60" fill="none" xmlns="http://www.w3.org/2000/svg">
<path d="M55 48.7826V47.0435V45.3043V34H41V54H55V50.5217V48.7826Z" fill="#036063"/>
<path d="M46 49H45V51H46V49Z" fill="#F2F2F2"/>
<path d="M55 34H41V48H55V34Z" fill="#036063"/>
<path d="M55.1334 33H41.2676C41.0378 33 40.8173 33.0927 40.6548 33.2577C40.4923 33.4228 40.401 33.6466 40.401 33.88V34.7706C39.567 34.7963 38.7348 34.8657 37.9078 34.9782C37.1822 35.0696 36.4653 35.2221 35.7646 35.4341C35.458 35.532 35.1579 35.6496 34.8659 35.7861C33.8479 36.2743 32.938 36.9673 32.1916 37.8233C31.8038 38.25 31.3322 38.5894 30.8072 38.8197C30.2822 39.0499 29.7155 39.1659 29.1437 39.16H23.0688C22.5544 39.1617 22.0469 39.2792 21.5827 39.5041C21.1185 39.729 20.7092 40.0556 20.3842 40.4605C20.0593 40.8653 19.8269 41.3383 19.7037 41.8454C19.5804 42.3524 19.5695 42.8809 19.6717 43.3928C19.746 43.7623 19.8814 44.1164 20.072 44.44H19.8389L9.81915 38.456C9.58832 38.3168 9.34339 38.2032 9.0886 38.1172C8.91797 38.0638 8.74433 38.0209 8.56863 37.9887C7.99868 37.8791 7.41171 37.9017 6.85154 38.0547C6.29137 38.2077 5.77246 38.4872 5.33354 38.8723C4.89462 39.2574 4.54702 39.7383 4.31669 40.2789C4.08635 40.8195 3.97924 41.4059 4.00332 41.9945C4.04519 42.6648 4.25013 43.314 4.59981 43.8841C4.94948 44.4542 5.43296 44.9273 6.00693 45.261L19.1621 53.1186C19.2955 53.1982 19.4475 53.2402 19.6023 53.24H40.401V54.12C40.401 54.3534 40.4923 54.5772 40.6548 54.7423C40.8173 54.9073 41.0378 55 41.2676 55H55.1334C55.3632 55 55.5837 54.9073 55.7462 54.7423C55.9087 54.5772 56 54.3534 56 54.12V50.6H54.2668V53.24H42.1342V34.76H54.2668V45.32H56V33.88C56 33.6466 55.9087 33.4228 55.7462 33.2577C55.5837 33.0927 55.3632 33 55.1334 33ZM40.401 51.48H19.8389L6.88567 43.743C6.56137 43.5595 6.28677 43.2973 6.08629 42.98C5.88582 42.6627 5.76567 42.2999 5.73655 41.9241C5.71983 41.6 5.77689 41.2764 5.90329 40.9783C6.02968 40.6803 6.22202 40.4158 6.46537 40.2054C6.70862 39.9947 6.99505 39.8416 7.30384 39.7573C7.61263 39.6729 7.93604 39.6595 8.25058 39.7179C8.35362 39.7364 8.45549 39.7611 8.55563 39.7918C8.68877 39.8367 8.81687 39.8957 8.93781 39.9678L19.1638 46.075C19.2964 46.1557 19.4478 46.1988 19.6023 46.2H23.1901C23.1962 46.2 23.2014 46.2 23.2066 46.2C23.4234 46.1815 23.6414 46.1815 23.8583 46.2C24.9779 46.3407 26.0142 46.8731 26.7891 47.7057C26.8691 47.7897 26.9647 47.8568 27.0704 47.9029C27.1762 47.949 27.2899 47.9733 27.4049 47.9743C27.52 47.9753 27.6341 47.9531 27.7406 47.9088C27.8471 47.8646 27.9439 47.7992 28.0253 47.7166C28.1066 47.634 28.171 47.5357 28.2146 47.4276C28.2581 47.3194 28.2801 47.2035 28.2791 47.0867C28.2781 46.9698 28.2541 46.8544 28.2087 46.747C28.1633 46.6396 28.0973 46.5425 28.0145 46.4614C26.9552 45.3323 25.5391 44.6169 24.0134 44.44C23.7448 44.4211 23.4752 44.4211 23.2066 44.44C23.2014 44.44 23.1962 44.44 23.1901 44.44C22.7764 44.4496 22.3716 44.3171 22.0413 44.064C21.711 43.8108 21.4745 43.4518 21.3702 43.0452C21.3184 42.7887 21.3233 42.5238 21.3845 42.2694C21.4457 42.0151 21.5618 41.7778 21.7243 41.5745C21.8867 41.3712 22.0916 41.207 22.3241 41.0939C22.5566 40.9807 22.8109 40.9213 23.0688 40.92H29.1437C29.9593 40.9255 30.767 40.7572 31.5145 40.426C32.2621 40.0948 32.9329 39.608 33.4837 38.9972C34.0739 38.3176 34.7942 37.7673 35.6008 37.3798C35.8208 37.2775 36.0469 37.1894 36.2777 37.1158C36.8858 36.933 37.5079 36.8018 38.1374 36.7233C38.8883 36.6205 39.6438 36.5562 40.401 36.5306V51.48Z" fill="#036063"/>
<path d="M28.0002 16.464C30.4252 16.464 32.391 14.5918 32.391 12.2823C32.391 9.97281 30.4252 8.10059 28.0002 8.10059C25.5752 8.10059 23.6094 9.97281 23.6094 12.2823C23.6094 14.5918 25.5752 16.464 28.0002 16.464Z" stroke="#036063" stroke-width="2" stroke-miterlimit="10" stroke-linecap="round" stroke-linejoin="round"/>
<path d="M38.0308 26.7253V32.1387H17.9697V26.7253C17.9697 23.3311 20.8572 20.5811 24.4212 20.5811H31.5793C35.1433 20.5811 38.0308 23.3311 38.0308 26.7253Z" stroke="#036063" stroke-miterlimit="10" stroke-linecap="round" stroke-linejoin="round"/>
<path d="M28.0002 16.464C30.4252 16.464 32.391 14.5918 32.391 12.2823C32.391 9.97281 30.4252 8.10059 28.0002 8.10059C25.5752 8.10059 23.6094 9.97281 23.6094 12.2823C23.6094 14.5918 25.5752 16.464 28.0002 16.464Z" fill="#036063" stroke="#036063" stroke-width="2" stroke-miterlimit="10" stroke-linecap="round" stroke-linejoin="round"/>
<path d="M38.0308 26.7253V32.1387H17.9697V26.7253C17.9697 23.3311 20.8572 20.5811 24.4212 20.5811H31.5793C35.1433 20.5811 38.0308 23.3311 38.0308 26.7253Z" fill="#036063" stroke="#036063" stroke-miterlimit="10" stroke-linecap="round" stroke-linejoin="round"/>
</svg>
