<svg width="167" height="41" viewBox="0 0 167 41" fill="none" xmlns="http://www.w3.org/2000/svg">
<path fill-rule="evenodd" clip-rule="evenodd" d="M55.7096 20.4377C55.5417 18.789 55.817 17.1062 56.5113 15.8476C57.163 14.6658 58.0953 13.9269 59.9141 13.7704C63.9319 13.4248 65.6633 14.9212 65.8228 18.8008C65.9665 22.2985 64.8384 25.1575 61.5104 25.4603C57.8601 25.7925 56.0461 23.7434 55.7096 20.4377ZM71.2926 20.9053C71.7265 16.6477 70.466 13.2603 66.2225 12.054C64.9619 11.6955 63.4444 11.6181 62.0782 11.5891C59.3746 11.5315 56.0063 11.4459 53.8489 12.6197C51.9446 13.6555 50.4801 15.4262 50.1934 18.2801C49.906 21.1399 50.665 24.259 52.2248 25.6039C54.0531 27.1802 56.5124 27.5234 59.4459 27.6907C62.0846 27.8414 65.4841 27.5956 67.6867 26.6277C69.8935 25.658 70.9876 23.8994 71.2926 20.9053Z" fill="#6E8889"/>
<path fill-rule="evenodd" clip-rule="evenodd" d="M47.0364 14.5671L48.5717 11.999H35.4494C33.2241 11.9982 31.6096 12.3599 30.6924 13.7799C29.7402 15.254 29.5103 17.078 29.5088 19.1123C29.5059 22.9544 29.4557 26.4613 34.4144 27.254C34.5171 27.2704 34.6396 27.2856 34.7795 27.2995C37.207 27.5403 44.9275 27.4134 47.3246 27.4134L48.3398 24.9952H39.7072C38.4256 24.9952 36.8209 25.1738 35.8239 24.5036C34.7787 23.8011 35.0624 22.7525 35.0624 20.9828H45.5441L46.7437 18.4486H35.0624C35.0624 14.5601 35.4009 14.5718 39.1652 14.5718L47.0364 14.5671Z" fill="#6E8889"/>
<path fill-rule="evenodd" clip-rule="evenodd" d="M7.34566 24.5703C7.06227 24.736 6.88679 24.8921 6.64774 25.1091C5.25203 26.3564 3.68097 27.8489 2.51042 29.2844C1.40785 30.6369 -0.569067 33.5058 0.155565 36.0968C0.709255 38.0762 3.31184 39.5393 5.56453 40.161C14.331 42.5807 28.5304 38.1804 36.7809 34.8711C37.8774 34.4313 42.8701 32.4352 43.1738 31.8324C42.3333 32.0736 41.4151 32.4564 40.5567 32.7507C37.8303 33.6854 35.0068 34.4445 32.2042 35.102C28.1892 36.0441 23.9262 36.6556 19.6567 36.8135C16.0919 36.9454 9.94905 36.4945 7.48936 34.7113C6.15227 33.742 5.0891 32.2777 5.37983 29.7323C5.69554 26.9682 7.15415 25.1692 7.34566 24.5703Z" fill="#6E8889"/>
<path fill-rule="evenodd" clip-rule="evenodd" d="M28.6677 24.9258L20.8126 24.9292C19.7342 24.9296 18.7436 24.709 18.2769 23.9399C18.0663 23.5925 18.1244 23.4014 18.1246 23.0067L18.1274 11.999H12.3796L12.2133 23.3209C12.1684 24.5892 12.2848 25.6541 12.9716 26.3874C14.2404 27.742 17.4078 27.4134 19.5789 27.4134C22.0819 27.4134 24.6405 27.4134 27.1436 27.4134L28.6677 24.9258Z" fill="#6E8889"/>
<path fill-rule="evenodd" clip-rule="evenodd" d="M46.0684 5.86885C46.7497 5.718 47.5265 5.4292 48.2203 5.23546C53.4846 3.76431 59.3856 2.75271 64.8664 2.92427C67.5804 3.00924 71.8619 3.582 73.6094 5.01187C74.6313 5.84828 75.1726 7.24602 74.8279 9.03191C74.433 11.078 73.5112 12.0763 73.2077 12.8668C74.0732 12.5168 76.519 10.0009 77.0966 9.4479C77.5498 9.0139 78.2637 8.00122 78.6284 7.32481C80.3191 4.18958 78.7567 2.17108 75.5979 0.905108C69.3639 -1.5931 57.4474 1.65601 51.1951 3.71255C48.6694 4.54331 48.2242 4.86263 46.0681 5.7863L45.8345 5.91537L46.0684 5.86885Z" fill="#6E8889"/>
<path fill-rule="evenodd" clip-rule="evenodd" d="M85.6433 0.18457H84.7888V40.6241H85.6433V0.18457Z" fill="#6E8889"/>
<path d="M93.4213 10.0953H91.9893V3.32319H93.4213V10.0953ZM100.773 10.0953H99.3916L96.1846 5.67875V10.0953H94.7525V3.32319H96.2249L99.3412 7.57732V3.32319H100.773V10.0953ZM104.757 10.0953H102.104V3.32319H104.757C105.812 3.32319 106.671 3.63458 107.334 4.25721C107.996 4.87998 108.327 5.69905 108.327 6.71428C108.327 7.72965 107.998 8.54697 107.339 9.16624C106.68 9.78565 105.819 10.0953 104.757 10.0953ZM104.757 8.82622C105.402 8.82622 105.915 8.62307 106.295 8.21703C106.675 7.81086 106.865 7.3099 106.865 6.71428C106.865 6.09165 106.68 5.58222 106.31 5.18626C105.94 4.79031 105.422 4.59226 104.757 4.59226H103.537V8.82622H104.757ZM114.645 9.45558C114.131 9.96326 113.376 10.2171 112.381 10.2171C111.386 10.2171 110.631 9.96165 110.117 9.45061C109.603 8.93956 109.345 8.25414 109.345 7.3946V3.32319H110.798V7.34378C110.798 7.83116 110.935 8.21864 111.211 8.50636C111.487 8.79395 111.877 8.93781 112.381 8.93781C112.885 8.93781 113.274 8.79395 113.546 8.50636C113.818 8.21864 113.954 7.83116 113.954 7.34378V3.32319H115.417V7.38438C115.417 8.25763 115.159 8.94803 114.645 9.45558ZM119.128 10.2171C117.931 10.2171 116.983 9.85839 116.284 9.14083L117.061 8.0444C117.639 8.65359 118.351 8.95812 119.198 8.95812C119.568 8.95812 119.856 8.88538 120.061 8.7399C120.266 8.5943 120.368 8.41669 120.368 8.20681C120.368 8.02409 120.272 7.87176 120.081 7.74995C119.889 7.62814 119.651 7.54007 119.365 7.48589C119.079 7.43184 118.768 7.354 118.432 7.25249C118.096 7.15084 117.785 7.03589 117.499 6.90722C117.213 6.77855 116.975 6.57553 116.783 6.29803C116.591 6.02052 116.496 5.68211 116.496 5.28266C116.496 4.70063 116.728 4.2115 117.192 3.81555C117.655 3.41959 118.274 3.22168 119.047 3.22168C120.116 3.22168 120.99 3.53643 121.669 4.16592L120.873 5.22176C120.341 4.72765 119.689 4.48067 118.916 4.48067C118.614 4.48067 118.378 4.54157 118.21 4.66338C118.042 4.7852 117.958 4.95111 117.958 5.16085C117.958 5.32326 118.054 5.4604 118.245 5.57213C118.437 5.68373 118.676 5.76668 118.961 5.82086C119.247 5.87505 119.557 5.95451 119.889 6.05938C120.222 6.16438 120.531 6.28283 120.817 6.41473C121.103 6.54676 121.342 6.75327 121.533 7.03414C121.725 7.31501 121.821 7.6518 121.821 8.0444C121.821 8.69419 121.59 9.21868 121.13 9.61813C120.669 10.0174 120.002 10.2171 119.128 10.2171ZM125.653 10.0953H124.211V4.59226H122.244V3.32319H127.609V4.59226H125.653V10.0953ZM133.973 10.0953H132.329L131.008 7.68904H129.959V10.0953H128.527V3.32319H131.674C132.366 3.32319 132.916 3.52621 133.323 3.93238C133.729 4.33842 133.933 4.86304 133.933 5.50612C133.933 6.06113 133.79 6.51126 133.504 6.8564C133.218 7.20166 132.87 7.42162 132.46 7.51641L133.973 10.0953ZM131.462 6.41984C131.758 6.41984 132 6.33688 132.188 6.17111C132.376 6.00533 132.47 5.78362 132.47 5.50612C132.47 5.22861 132.376 5.00691 132.188 4.84099C132 4.67522 131.758 4.59226 131.462 4.59226H129.959V6.41984H131.462ZM136.444 10.0953H135.012V3.32319H136.444V10.0953ZM144.048 10.0953H142.414L142.001 8.94803H139.116L138.693 10.0953H137.059L139.661 3.32319H141.456L144.048 10.0953ZM141.607 7.67883L140.558 4.7649L139.51 7.67883H141.607ZM148.949 10.0953H144.673V3.32319H146.105V8.82622H148.949V10.0953ZM98.2622 22.4619H96.6283L96.2149 21.3146H93.3306L92.907 22.4619H91.2732L93.8752 15.6897H95.6703L98.2622 22.4619ZM95.8216 20.0454L94.7727 17.1315L93.7239 20.0454H95.8216ZM104.908 22.4619H103.526L100.319 18.0453V22.4619H98.8874V15.6897H100.36L103.476 19.9439V15.6897H104.908V22.4619ZM108.892 22.4619H106.239V15.6897H108.892C109.947 15.6897 110.806 16.0011 111.468 16.6238C112.131 17.2465 112.462 18.0656 112.462 19.0808C112.462 20.0962 112.132 20.9135 111.474 21.5328C110.815 22.1522 109.954 22.4619 108.892 22.4619ZM108.892 21.1928C109.537 21.1928 110.05 20.9896 110.43 20.5836C110.81 20.1774 111 19.6765 111 19.0808C111 18.4582 110.815 17.9488 110.445 17.5528C110.075 17.1569 109.557 16.9588 108.892 16.9588H107.671V21.1928H108.892ZM118.715 22.4619H116.062V15.6897H118.715C119.77 15.6897 120.629 16.0011 121.291 16.6238C121.953 17.2465 122.285 18.0656 122.285 19.0808C122.285 20.0962 121.955 20.9135 121.296 21.5328C120.637 22.1522 119.777 22.4619 118.715 22.4619ZM118.715 21.1928C119.36 21.1928 119.873 20.9896 120.252 20.5836C120.632 20.1774 120.822 19.6765 120.822 19.0808C120.822 18.4582 120.637 17.9488 120.268 17.5528C119.898 17.1569 119.38 16.9588 118.715 16.9588H117.494V21.1928H118.715ZM126.49 22.5837C125.475 22.5837 124.636 22.2537 123.974 21.5937C123.312 20.9338 122.98 20.0962 122.98 19.0808C122.98 18.0656 123.312 17.228 123.974 16.568C124.636 15.908 125.475 15.578 126.49 15.578C127.512 15.578 128.354 15.9063 129.016 16.5629C129.679 17.2195 130.01 18.0588 130.01 19.0808C130.01 20.1029 129.679 20.9423 129.016 21.5988C128.354 22.2555 127.512 22.5837 126.49 22.5837ZM125.013 20.6749C125.386 21.0946 125.878 21.3044 126.49 21.3044C127.102 21.3044 127.596 21.0946 127.972 20.6749C128.349 20.2553 128.537 19.7239 128.537 19.0808C128.537 18.4378 128.349 17.9064 127.972 17.4868C127.596 17.0672 127.102 16.8573 126.49 16.8573C125.878 16.8573 125.386 17.0672 125.013 17.4868C124.639 17.9064 124.453 18.4378 124.453 19.0808C124.453 19.7239 124.639 20.2553 125.013 20.6749ZM138.31 22.4619H136.867V17.7203L134.971 22.4619H134.346L132.45 17.7203V22.4619H131.018V15.6897H133.025L134.659 19.7815L136.293 15.6897H138.31V22.4619ZM144.401 22.4619H139.641V15.6897H144.401V16.9588H141.073V18.3904H144.33V19.6597H141.073V21.1928H144.401V22.4619ZM147.911 22.5837C146.714 22.5837 145.766 22.225 145.067 21.5074L145.843 20.411C146.421 21.0201 147.134 21.3247 147.981 21.3247C148.351 21.3247 148.638 21.2519 148.843 21.1065C149.048 20.9609 149.151 20.7832 149.151 20.5734C149.151 20.3907 149.055 20.2383 148.864 20.1165C148.672 19.9947 148.433 19.9066 148.148 19.8524C147.862 19.7984 147.551 19.7206 147.215 19.619C146.879 19.5174 146.568 19.4024 146.282 19.2738C145.996 19.1451 145.757 18.9421 145.566 18.6646C145.374 18.3871 145.278 18.0487 145.278 17.6492C145.278 17.0672 145.51 16.5781 145.974 16.1821C146.438 15.7861 147.057 15.5882 147.83 15.5882C148.899 15.5882 149.773 15.903 150.452 16.5325L149.655 17.5883C149.124 17.0942 148.472 16.8472 147.699 16.8472C147.396 16.8472 147.161 16.9081 146.993 17.0299C146.825 17.1518 146.741 17.3177 146.741 17.5274C146.741 17.6898 146.837 17.827 147.028 17.9387C147.22 18.0503 147.458 18.1332 147.744 18.1874C148.03 18.2416 148.339 18.3211 148.672 18.4259C149.005 18.5309 149.314 18.6494 149.6 18.7813C149.886 18.9133 150.124 19.1198 150.316 19.4007C150.507 19.6816 150.603 20.0184 150.603 20.411C150.603 21.0607 150.373 21.5852 149.912 21.9847C149.452 22.384 148.785 22.5837 147.911 22.5837ZM154.436 22.4619H152.993V16.9588H151.027V15.6897H156.392V16.9588H154.436V22.4619ZM158.742 22.4619H157.31V15.6897H158.742V22.4619ZM163.331 22.5837C162.308 22.5837 161.456 22.2571 160.774 21.6039C160.092 20.9508 159.75 20.1097 159.75 19.0808C159.75 18.052 160.092 17.2111 160.774 16.5578C161.456 15.9046 162.308 15.578 163.331 15.578C164.588 15.578 165.526 16.1297 166.144 17.233L164.914 17.8422C164.766 17.5579 164.549 17.3226 164.263 17.1366C163.978 16.9503 163.667 16.8573 163.331 16.8573C162.719 16.8573 162.214 17.0672 161.818 17.4868C161.421 17.9064 161.223 18.4378 161.223 19.0808C161.223 19.7239 161.421 20.2553 161.818 20.6749C162.214 21.0946 162.719 21.3044 163.331 21.3044C163.667 21.3044 163.978 21.2131 164.263 21.0302C164.549 20.8475 164.766 20.6106 164.914 20.3195L166.144 20.9186C165.505 22.0287 164.568 22.5837 163.331 22.5837ZM93.4213 34.8284H91.9893V28.0563H95.1358C95.8417 28.0563 96.3948 28.2644 96.7947 28.6807C97.1948 29.097 97.3949 29.6165 97.3949 30.2392C97.3949 30.8552 97.1931 31.3729 96.7898 31.7927C96.3863 32.2123 95.8351 32.4222 95.1358 32.4222H93.4213V34.8284ZM94.9442 31.153C95.2333 31.153 95.4703 31.07 95.6552 30.9042C95.8401 30.7384 95.9326 30.5167 95.9326 30.2392C95.9326 29.9617 95.8401 29.74 95.6552 29.5741C95.4703 29.4083 95.2333 29.3254 94.9442 29.3254H93.4213V31.153H94.9442ZM103.582 34.1887C103.068 34.6964 102.313 34.9502 101.318 34.9502C100.323 34.9502 99.5681 34.6948 99.0538 34.1837C98.5395 33.6727 98.2823 32.9873 98.2823 32.1277V28.0563H99.7345V32.0769C99.7345 32.5643 99.8723 32.9518 100.148 33.2395C100.424 33.5271 100.814 33.6709 101.318 33.6709C101.822 33.6709 102.211 33.5271 102.483 33.2395C102.755 32.9518 102.891 32.5643 102.891 32.0769V28.0563H104.354V32.1175C104.354 32.9907 104.096 33.6812 103.582 34.1887ZM112.966 34.8284H111.524V30.0869L109.628 34.8284H109.003L107.107 30.0869V34.8284H105.675V28.0563H107.682L109.315 32.148L110.949 28.0563H112.966V34.8284ZM115.729 34.8284H114.297V28.0563H117.444C118.15 28.0563 118.703 28.2644 119.103 28.6807C119.503 29.097 119.703 29.6165 119.703 30.2392C119.703 30.8552 119.501 31.3729 119.098 31.7927C118.694 32.2123 118.143 32.4222 117.444 32.4222H115.729V34.8284ZM117.252 31.153C117.541 31.153 117.778 31.07 117.963 30.9042C118.148 30.7384 118.241 30.5167 118.241 30.2392C118.241 29.9617 118.148 29.74 117.963 29.5741C117.778 29.4083 117.541 29.3254 117.252 29.3254H115.729V31.153H117.252ZM122.98 34.9502C121.784 34.9502 120.836 34.5915 120.137 33.874L120.913 32.7775C121.491 33.3867 122.204 33.6912 123.051 33.6912C123.421 33.6912 123.708 33.6185 123.913 33.473C124.118 33.3274 124.221 33.1498 124.221 32.9399C124.221 32.7572 124.125 32.6049 123.934 32.4831C123.742 32.3613 123.503 32.2732 123.217 32.219C122.932 32.165 122.621 32.0871 122.285 31.9856C121.949 31.884 121.637 31.769 121.352 31.6403C121.066 31.5117 120.827 31.3087 120.636 31.0311C120.444 30.7536 120.348 30.4152 120.348 30.0158C120.348 29.4337 120.58 28.9446 121.044 28.5487C121.508 28.1527 122.127 27.9548 122.9 27.9548C123.969 27.9548 124.843 28.2695 125.522 28.899L124.725 29.9549C124.194 29.4608 123.542 29.2138 122.769 29.2138C122.466 29.2138 122.231 29.2747 122.063 29.3965C121.895 29.5183 121.811 29.6842 121.811 29.894C121.811 30.0564 121.906 30.1935 122.098 30.3053C122.29 30.4168 122.528 30.4998 122.814 30.554C123.1 30.6082 123.409 30.6876 123.742 30.7925C124.075 30.8975 124.384 31.016 124.67 31.1478C124.955 31.2799 125.194 31.4864 125.386 31.7673C125.577 32.0481 125.673 32.3849 125.673 32.7775C125.673 33.4273 125.443 33.9518 124.982 34.3512C124.522 34.7506 123.855 34.9502 122.98 34.9502Z" fill="#6E8889"/>
</svg>
