<svg width="72" height="79" viewBox="0 0 72 79" fill="none" xmlns="http://www.w3.org/2000/svg">
<g clip-path="url(#clip0_129_32270)">
<path d="M69.2425 60.873H32.7344C32.6595 60.8735 32.5858 60.891 32.5186 60.9241C32.4514 60.9573 32.3926 61.0054 32.3464 61.0647C32.3003 61.124 32.2681 61.193 32.2522 61.2666C32.2364 61.3402 32.2373 61.4164 32.2548 61.4896L36.2076 77.3925C36.3023 77.7271 36.5934 78.7448 37.6679 78.7448H64.309C65.3875 78.7448 65.6756 77.7261 65.7743 77.3756L69.7211 61.4896C69.7392 61.4165 69.7406 61.3401 69.725 61.2663C69.7094 61.1926 69.6773 61.1233 69.6312 61.0639C69.5851 61.0045 69.5261 60.9564 69.4588 60.9233C69.3914 60.8903 69.3175 60.8731 69.2425 60.873ZM64.8221 77.1195C64.6425 77.7519 64.457 77.7519 64.309 77.7519H37.6679C37.5209 77.7519 37.3364 77.7519 37.1597 77.1353L33.3668 61.8659H68.611L64.8221 77.1195Z" fill="#036063"/>
<path d="M48.5217 74.7725C48.6525 74.7725 48.778 74.7202 48.8705 74.6271C48.9631 74.534 49.015 74.4077 49.015 74.2761V65.3402C49.015 65.2085 48.9631 65.0823 48.8705 64.9892C48.778 64.8961 48.6525 64.8438 48.5217 64.8438C48.3908 64.8438 48.2653 64.8961 48.1728 64.9892C48.0803 65.0823 48.0283 65.2085 48.0283 65.3402V74.2761C48.0283 74.4077 48.0803 74.534 48.1728 74.6271C48.2653 74.7202 48.3908 74.7725 48.5217 74.7725Z" fill="#036063"/>
<path d="M41.6136 74.7725C41.6831 74.7727 41.7518 74.7581 41.8152 74.7296C41.8787 74.7012 41.9355 74.6597 41.9818 74.6076C42.0282 74.5556 42.0632 74.4943 42.0844 74.4278C42.1056 74.3612 42.1126 74.2909 42.105 74.2215L41.1183 65.2856C41.1039 65.1547 41.0384 65.035 40.9363 64.9527C40.8342 64.8704 40.7037 64.8323 40.5736 64.8468C40.4436 64.8612 40.3246 64.9271 40.2428 65.0299C40.161 65.1327 40.1231 65.264 40.1375 65.3948L41.1242 74.3307C41.1376 74.452 41.1948 74.5641 41.2851 74.6456C41.3754 74.7271 41.4923 74.7723 41.6136 74.7725Z" fill="#036063"/>
<path d="M54.4418 74.7725C54.5727 74.7725 54.6982 74.7202 54.7907 74.6271C54.8832 74.534 54.9352 74.4077 54.9352 74.2761V65.3402C54.9352 65.2085 54.8832 65.0823 54.7907 64.9892C54.6982 64.8961 54.5727 64.8438 54.4418 64.8438C54.311 64.8438 54.1855 64.8961 54.093 64.9892C54.0005 65.0823 53.9485 65.2085 53.9485 65.3402V74.2761C53.9485 74.4077 54.0005 74.534 54.093 74.6271C54.1855 74.7202 54.311 74.7725 54.4418 74.7725Z" fill="#036063"/>
<path d="M60.307 74.7695L60.3633 74.7725C60.4846 74.7723 60.6015 74.7271 60.6918 74.6456C60.7821 74.5641 60.8394 74.452 60.8527 74.3307L61.8394 65.3948C61.8538 65.264 61.8159 65.1327 61.7341 65.0299C61.6524 64.9271 61.5333 64.8612 61.4033 64.8468C61.2732 64.8323 61.1428 64.8704 61.0406 64.9527C60.9385 65.035 60.873 65.1547 60.8586 65.2856L59.8719 74.2215C59.8575 74.3522 59.8952 74.4833 59.9768 74.5861C60.0584 74.6889 60.1772 74.7548 60.307 74.7695Z" fill="#036063"/>
<path d="M64.3092 58.8862C64.4038 58.8862 64.4963 58.8588 64.5758 58.8074C64.6553 58.756 64.7184 58.6827 64.7577 58.5962C64.797 58.5097 64.8108 58.4137 64.7974 58.3195C64.784 58.2254 64.744 58.1371 64.6822 58.0651L55.3085 47.1435C55.2212 47.0507 55.1018 46.9953 54.9749 46.9889C54.8481 46.9825 54.7237 47.0255 54.6277 47.109C54.5316 47.1925 54.4712 47.3101 54.459 47.4373C54.4469 47.5645 54.484 47.6915 54.5625 47.7919L63.9363 58.7135C63.9823 58.7677 64.0395 58.8112 64.1039 58.841C64.1683 58.8709 64.2384 58.8863 64.3092 58.8862Z" fill="#036063"/>
<path d="M47.847 47.0843C47.7457 47.0012 47.6158 46.962 47.4857 46.9752C47.3556 46.9884 47.2361 47.053 47.1534 47.1548L38.273 58.0764C38.229 58.1265 38.1956 58.185 38.1746 58.2484C38.1537 58.3118 38.1457 58.3788 38.151 58.4454C38.1564 58.512 38.1751 58.5768 38.206 58.6359C38.2369 58.6951 38.2793 58.7474 38.3307 58.7896C38.3822 58.8319 38.4415 58.8632 38.5053 58.8819C38.5691 58.9005 38.6359 58.9059 38.7018 58.8979C38.7678 58.8899 38.8314 58.8686 38.8889 58.8353C38.9465 58.802 38.9967 58.7573 39.0367 58.7039L47.9171 47.7823C47.9997 47.6804 48.0387 47.5496 48.0256 47.4187C48.0124 47.2879 47.9482 47.1676 47.847 47.0843Z" fill="#036063"/>
<path d="M71.2161 56.9014H67.2692C67.1384 56.9014 67.0129 56.9537 66.9204 57.0468C66.8279 57.1399 66.7759 57.2661 66.7759 57.3978C66.7759 57.5295 66.8279 57.6557 66.9204 57.7488C67.0129 57.8419 67.1384 57.8942 67.2692 57.8942H71.2161C71.3469 57.8942 71.4724 57.8419 71.5649 57.7488C71.6574 57.6557 71.7094 57.5295 71.7094 57.3978C71.7094 57.2661 71.6574 57.1399 71.5649 57.0468C71.4724 56.9537 71.3469 56.9014 71.2161 56.9014Z" fill="#036063"/>
<path d="M43.5883 57.8942H59.3756C59.5065 57.8942 59.632 57.8419 59.7245 57.7488C59.817 57.6557 59.869 57.5295 59.869 57.3978C59.869 57.2661 59.817 57.1399 59.7245 57.0468C59.632 56.9537 59.5065 56.9014 59.3756 56.9014H43.5883C43.4575 56.9014 43.332 56.9537 43.2395 57.0468C43.1469 57.1399 43.095 57.2661 43.095 57.3978C43.095 57.5295 43.1469 57.6557 43.2395 57.7488C43.332 57.8419 43.4575 57.8942 43.5883 57.8942Z" fill="#036063"/>
<path d="M30.7609 57.8942H35.6945C35.8253 57.8942 35.9508 57.8419 36.0433 57.7488C36.1358 57.6557 36.1878 57.5295 36.1878 57.3978C36.1878 57.2661 36.1358 57.1399 36.0433 57.0468C35.9508 56.9537 35.8253 56.9014 35.6945 56.9014H30.7609C30.6301 56.9014 30.5046 56.9537 30.4121 57.0468C30.3196 57.1399 30.2676 57.2661 30.2676 57.3978C30.2676 57.5295 30.3196 57.6557 30.4121 57.7488C30.5046 57.8419 30.6301 57.8942 30.7609 57.8942Z" fill="#036063"/>
</g>
<path d="M19.1846 7.38656C19.1839 9.21238 18.4581 10.9632 17.1666 12.2538C15.8751 13.5444 14.1238 14.2691 12.298 14.2685C10.4722 14.2679 8.72137 13.542 7.43075 12.2506C6.14013 10.9591 5.41541 9.20779 5.41602 7.38197C5.41662 5.55615 6.14251 3.80535 7.43399 2.51473C8.07347 1.87568 8.83255 1.36884 9.66791 1.02316C10.5033 0.677468 11.3985 0.499699 12.3026 0.5C13.2066 0.500302 14.1018 0.678667 14.9369 1.02491C15.772 1.37116 16.5308 1.8785 17.1698 2.51798C17.8089 3.15745 18.3157 3.91654 18.6614 4.75189C19.0071 5.58724 19.1849 6.4825 19.1846 7.38656Z" fill="#036063"/>
<path d="M5.4212 49.2167V48.7167H4.9212H0.5V24.6107C0.5 23.4381 0.965805 22.3135 1.79494 21.4844C2.62408 20.6553 3.74863 20.1895 4.9212 20.1895H19.6848C20.8574 20.1895 21.9819 20.6553 22.8111 21.4844C23.6402 22.3135 24.106 23.4381 24.106 24.6107V48.7167H19.6848H19.1848V49.2167V78.2439H14.0333V49.2167V48.7167H13.5333H11.0727H10.5727V49.2167V78.2439H5.4212V49.2167Z" fill="#036063"/>
<defs>
<clipPath id="clip0_129_32270">
<rect width="41.4417" height="31.772" fill="white" transform="translate(30.2676 46.9727)"/>
</clipPath>
</defs>
</svg>
