<svg width="72" height="79" fill="none" xmlns="http://www.w3.org/2000/svg"><g clip-path="url(#clip0_129_32270)" fill="#036063"><path d="M69.243 60.873H32.734a.496.496 0 00-.48.617l3.954 15.902c.094.335.385 1.353 1.46 1.353h26.641c1.079 0 1.367-1.019 1.465-1.37l3.947-15.885a.5.5 0 00-.262-.567.493.493 0 00-.216-.05zm-4.42 16.247c-.18.632-.366.632-.514.632H37.668c-.147 0-.332 0-.508-.617l-3.793-15.27H68.61L64.822 77.12z"/><path d="M48.522 74.772a.492.492 0 00.493-.496V65.34a.498.498 0 00-.493-.496.492.492 0 00-.494.496v8.936a.498.498 0 00.494.496zm-6.908 0a.488.488 0 00.368-.164.497.497 0 00.123-.386l-.987-8.936a.497.497 0 00-.544-.44.492.492 0 00-.436.549l.986 8.936a.498.498 0 00.49.441zm12.828 0a.492.492 0 00.493-.496V65.34a.498.498 0 00-.493-.496.492.492 0 00-.493.496v8.936a.498.498 0 00.493.496zm5.865-.002l.056.002a.491.491 0 00.49-.441l.986-8.936a.499.499 0 00-.436-.548.491.491 0 00-.544.439l-.987 8.936a.499.499 0 00.435.547zm4.003-15.884a.49.49 0 00.448-.29.499.499 0 00-.076-.53L55.31 47.143a.492.492 0 00-.85.293.5.5 0 00.103.355l9.374 10.922a.49.49 0 00.373.172zM47.847 47.084a.491.491 0 00-.694.07l-8.88 10.922a.498.498 0 00.429.822.491.491 0 00.335-.194l8.88-10.922a.499.499 0 00-.07-.698zm23.369 9.817H67.27a.492.492 0 00-.493.497.498.498 0 00.493.496h3.947a.492.492 0 00.493-.496.498.498 0 00-.493-.497zm-27.628.993h15.788a.492.492 0 00.493-.496.498.498 0 00-.493-.497H43.588a.492.492 0 00-.493.497.498.498 0 00.493.496zm-12.828 0h4.934a.492.492 0 00.494-.496.498.498 0 00-.494-.497h-4.933a.492.492 0 00-.493.497.498.498 0 00.493.496z"/></g><path d="M19.185 7.387a6.885 6.885 0 11-13.77-.005 6.885 6.885 0 0113.77.005zM5.421 49.217v-.5H.5V24.61a4.421 4.421 0 014.421-4.422h14.764a4.421 4.421 0 014.421 4.422v24.106h-4.921v29.527h-5.152V48.717h-3.46v29.527H5.42V49.217z" fill="#036063"/><defs><clipPath id="clip0_129_32270"><path fill="#fff" transform="translate(30.268 46.973)" d="M0 0h41.442v31.772H0z"/></clipPath></defs></svg>