<svg width="619" height="619" fill="none" xmlns="http://www.w3.org/2000/svg"><rect x="257.707" y="53.711" width="74" height="74" rx="2.5" transform="rotate(-45 257.707 53.71)" stroke="#036063"/><rect x="257.707" y="309.777" width="74" height="74" rx="2.5" transform="rotate(-45 257.707 309.777)" stroke="#036063"/><rect x="289" y="310.213" width="30" height="30" rx="3" transform="rotate(-45 289 310.213)" fill="#036063"/><rect x="257.707" y="565.843" width="74" height="74" rx="2.5" transform="rotate(-45 257.707 565.843)" stroke="#036063"/><rect x="383.707" y="181.033" width="74" height="74" rx="2.5" transform="rotate(-45 383.707 181.033)" stroke="#036063"/><rect x="-.707" width="74" height="74" rx="2.5" transform="scale(-1 1) rotate(-45 100.993 372.56)" stroke="#036063"/><rect x="385.707" y="437.033" width="74" height="74" rx="2.5" transform="rotate(-45 385.707 437.033)" stroke="#036063"/><rect x="-.707" width="74" height="74" rx="2.5" transform="scale(-1 1) rotate(-45 411.012 498.145)" stroke="#036063"/><rect x="512.707" y="310.033" width="74" height="74" rx="2.5" transform="rotate(-45 512.707 310.033)" stroke="#036063"/><rect x="-.707" width="74" height="74" rx="2.5" transform="scale(-1 1) rotate(-45 321.21 281.342)" stroke="#036063"/></svg>