<svg width="109" height="38" fill="none" xmlns="http://www.w3.org/2000/svg"><path fill-rule="evenodd" clip-rule="evenodd" d="M6.209 11.504v4.132H0v-7.8L12.22.62c1.25-.73 3.14-.868 4.434-.123l12.429 7.34v7.8h-6.208v-4.132l-8.333-4.922-8.333 4.922zm8.332 16.572l8.333-4.922v-4.133h6.208v7.8l-12.451 7.355c-1.271.731-3.162.593-4.412-.137L0 26.821v-7.8h6.209v4.133l8.332 4.922z" fill="#6E8889"/><path d="M75.754 26.388c-1.239-.327-2.333-1.007-3.275-2.044a7.827 7.827 0 01-1.647-2.901 14.036 14.036 0 01-.622-3.337v-1.21c0-.162.013-.32.037-.491.07-1.086.277-2.156.62-3.206a7.81 7.81 0 011.612-2.81c.942-1.063 2.036-1.756 3.275-2.084a15.051 15.051 0 013.843-.491l7.19-.033-2.239 3.985H80.27c-1.37.025-2.471.14-3.292.633-.789.476-1.264 1.398-1.311 2.99l11.12-.036-2.239 3.988h-8.881c.047 1.667.48 2.639 1.239 3.043.78.415 1.89.544 3.33.544l6.55-.038-2.238 3.988h-4.951c-1.321 0-2.602-.163-3.843-.49zM58.026 7.782v-4.63L62.95.857v6.924h6.103l-2.238 3.804H62.95v7.72c-.023 1.909.403 3.018 1.276 3.331.875.316 2.076.473 3.613.473h.319l-2.239 3.767h-2.26c-1.866 0-3.268-.53-4.214-1.593-.945-1.064-1.418-2.511-1.418-4.348v-9.35h-3.919l2.24-3.804h1.68zm48.338 1.485c-1.369-.965-3.283-1.46-5.738-1.484H90.421l-2.24 4.21h3.165v14.885h4.923V11.992h.744l3.223.03c1.323 0 2.195.23 2.621.688.424.46.637 1.353.637 2.681v11.487h4.925V14.812c0-2.728-.686-4.579-2.055-5.545zm-60.706 13.73c.045.026 2.724.105 2.724-1.954 0-2.02-2.587-1.85-2.656-1.85l-4.253-.035c-1.982.025-3.546-.252-4.69-.835-1.148-.578-1.732-2.051-1.754-4.42-.025-2.221.567-3.792 1.77-4.713 1.204-.916 2.808-1.376 4.818-1.376l11.486-.034-2.268 4.14-8.238.037c-.154 0-2.47-.082-2.47 1.588 0 1.672 1.62 1.7 2.303 1.7l4.465-.037c1.746.023 3.21.44 4.392 1.25 1.179.809 1.806 2.205 1.878 4.186v.108a7.019 7.019 0 01-1.293 4.222c-.886 1.267-2.157 1.904-3.808 1.904H35.347l2.171-3.88h8.14zm-7.024 7.911v.632H36.07v1.67h2.442v.625H36.07v1.783h2.623v.653h-3.346v-5.363h3.286zm1.934.008v5.355h-.684v-5.355h.684zm4.35 3.617h-2.615v.057c0 .402.09.717.272.943.181.228.439.342.772.342.242 0 .439-.066.59-.197.151-.131.24-.323.265-.573h.68a1.253 1.253 0 01-.459.922c-.281.236-.65.355-1.105.355-.558 0-.98-.167-1.265-.5-.285-.334-.428-.813-.428-1.44 0-.645.15-1.138.45-1.481.3-.343.724-.515 1.272-.515.521 0 .913.15 1.177.45.262.299.394.745.394 1.34v.297zm-.694-.49v-.055c0-.33-.074-.587-.223-.771-.149-.183-.373-.275-.676-.275a.931.931 0 00-.719.302c-.184.202-.276.468-.276.799h1.894zM48 33.738c-.014-.26-.086-.456-.214-.584a.694.694 0 00-.512-.193c-.307 0-.54.117-.702.351-.16.234-.24.587-.24 1.059 0 .497.076.866.228 1.106.152.24.378.36.678.36a.75.75 0 00.556-.211c.142-.141.22-.34.234-.595h.691a1.394 1.394 0 01-.447.964c-.268.249-.61.372-1.02.372-.525 0-.929-.165-1.213-.498-.285-.332-.427-.803-.427-1.412 0-.635.155-1.13.464-1.483a1.5 1.5 0 011.184-.528c.415 0 .753.117 1.016.351.263.234.4.547.415.941h-.69zm2.315-1.21h.814v.51h-.814v2.283c0 .168.04.285.126.353.083.067.203.102.359.102.062 0 .12-.004.177-.01a.971.971 0 00.152-.027v.54a2.317 2.317 0 01-.24.031 3.645 3.645 0 01-.32.013c-.323 0-.56-.058-.707-.175-.147-.116-.221-.315-.221-.598v-2.51h-.646v-.511h.646v-.78l.674-.223v1.003zm3.703-.015v.682a.536.536 0 00-.13-.03 1.694 1.694 0 00-.174-.008c-.344 0-.6.087-.766.26-.166.174-.25.454-.25.84v2.014h-.69v-3.127L52 32.967l-.028-.425h.691l.011.446c0 .121.001.213.004.276a.898.898 0 01.388-.563c.201-.13.453-.196.754-.196l.198.008zm2.362 3.884c-.573 0-1.026-.177-1.356-.531-.33-.354-.496-.845-.496-1.473 0-.593.16-1.065.481-1.417.322-.353.759-.53 1.31-.53.56 0 1.007.18 1.341.542.335.361.502.844.502 1.448 0 .607-.157 1.085-.472 1.435-.313.35-.75.526-1.31.526zm-1.14-1.947c0 .44.107.79.319 1.048.213.258.486.388.821.388.33 0 .59-.127.777-.379.188-.252.282-.6.282-1.042 0-.462-.1-.826-.298-1.095a.957.957 0 00-.814-.402.937.937 0 00-.793.396c-.196.265-.294.628-.294 1.086zm7.183 1.82h-.695v-2.443c0-.261-.08-.462-.24-.603a.879.879 0 00-.602-.213c-.275 0-.5.103-.68.307-.18.205-.27.466-.27.785v2.168h-.683v-3.456c0-.073-.003-.164-.008-.273h.685c.004.153.006.279.006.378v.224a1.17 1.17 0 01.465-.508c.196-.112.43-.168.704-.168.385 0 .7.113.947.337.247.225.37.535.37.928v2.538zm1.999-5.347v.765H63.6v-.765h.822zm-.066 1.62v3.728h-.683v-3.729h.683zm3.403 1.195c-.015-.26-.086-.456-.215-.584a.694.694 0 00-.511-.193c-.308 0-.541.117-.702.351-.161.234-.241.587-.241 1.059 0 .497.076.866.229 1.106.151.24.377.36.677.36.23 0 .415-.07.557-.211.142-.141.219-.34.233-.595h.691a1.394 1.394 0 01-.446.964c-.269.249-.61.372-1.02.372-.525 0-.93-.165-1.214-.498-.284-.332-.427-.803-.427-1.412 0-.635.155-1.13.465-1.483a1.5 1.5 0 011.183-.528c.415 0 .754.117 1.016.351.263.234.4.547.415.941h-.69zm6.67-1.196l-.015.83-.007 2.035v.562c-.005.51-.057.874-.155 1.09a1.08 1.08 0 01-.516.514c-.246.128-.585.19-1.018.19-.36 0-.648-.04-.866-.12a.967.967 0 01-.488-.363c-.108-.161-.167-.4-.179-.72h.727c.02.264.097.451.235.563.137.11.341.165.613.165.344 0 .59-.096.737-.29.148-.192.224-.522.229-.986l.004-.443a.96.96 0 01-.434.464c-.202.114-.457.171-.764.171-.528 0-.915-.172-1.163-.515s-.373-.783-.373-1.32c0-.578.148-1.036.444-1.372.297-.338.689-.507 1.174-.507.253 0 .474.046.664.136.19.09.351.233.484.428l.007-.512h.66zm-.681 1.707c0-.447-.106-.77-.315-.967a1.072 1.072 0 00-.757-.295c-.31 0-.55.119-.72.355-.17.238-.254.574-.254 1.013 0 .426.083.752.251.982.167.23.418.345.75.345.231 0 .421-.05.57-.15.15-.102.265-.24.349-.416.083-.176.126-.465.126-.867zm4.728 1.093c0 .12.005.272.016.46.01.187.024.343.04.469h-.616a1.348 1.348 0 01-.053-.253 2.685 2.685 0 01-.015-.306 1.316 1.316 0 01-.438.498c-.181.12-.412.18-.694.18-.384 0-.692-.102-.927-.304a1 1 0 01-.351-.794 1.2 1.2 0 01.448-.96c.297-.252.763-.378 1.398-.378h.223c.103 0 .21.007.327.022v-.252c0-.223-.023-.384-.07-.482A.546.546 0 0077.51 33a1.001 1.001 0 00-.468-.094c-.212 0-.382.053-.505.161-.125.108-.191.265-.201.47h-.681c.024-.387.16-.668.411-.842.25-.176.59-.264 1.018-.264.39 0 .725.084 1.003.252.277.168.416.447.416.84l-.028 1.82zm-.656-.497l.014-.388-.078-.01-.11-.007-.203-.004c-.436 0-.764.063-.985.19a.612.612 0 00-.333.56c0 .196.07.353.205.473.136.12.32.18.553.18.288 0 .514-.092.677-.273.164-.18.25-.42.26-.721zm4.488-1.27h-.696v-.047c0-.181-.059-.32-.176-.415-.118-.097-.294-.145-.53-.145-.237 0-.42.046-.55.136a.455.455 0 00-.193.397c0 .23.149.38.444.453l.844.214c.322.081.56.203.717.362.156.16.235.376.235.65 0 .352-.131.639-.392.862-.262.221-.65.333-1.162.333-.462 0-.82-.104-1.07-.313-.25-.21-.376-.51-.376-.898h.72c0 .213.068.378.206.496.136.12.336.178.599.178.238 0 .422-.053.553-.155a.523.523 0 00.194-.432c0-.178-.067-.302-.204-.371a2.49 2.49 0 00-.594-.184 4.945 4.945 0 01-.71-.195 1.178 1.178 0 01-.505-.333c-.125-.145-.186-.34-.186-.585 0-.328.13-.599.388-.81.259-.213.604-.32 1.034-.32.401 0 .735.083 1.005.248.27.166.405.422.405.768v.106zm6.08-.431c.132-.234.301-.409.504-.525.205-.115.443-.173.716-.173.412 0 .74.115.98.346.242.23.362.551.362.962v2.517h-.688v-2.466c0-.265-.075-.468-.226-.607-.151-.138-.35-.209-.595-.209a.948.948 0 00-.655.254c-.186.17-.28.442-.28.816v2.212h-.69v-2.472c0-.245-.072-.441-.215-.588-.143-.148-.337-.222-.583-.222a.983.983 0 00-.663.258c-.197.172-.295.433-.295.783v2.24h-.69v-3.23c0-.041-.002-.104-.005-.188l-.01-.309h.692v.541c.13-.22.288-.381.475-.484.189-.102.414-.153.675-.153.305 0 .553.057.745.172.19.114.34.29.446.526zm6.873 1.389h-2.616v.057c0 .402.09.717.272.943.181.228.44.342.772.342.242 0 .439-.066.59-.197.152-.131.24-.323.265-.573h.68a1.253 1.253 0 01-.458.922c-.282.236-.651.355-1.106.355-.558 0-.98-.167-1.265-.5-.285-.334-.428-.813-.428-1.44 0-.645.15-1.138.45-1.481.3-.343.724-.515 1.272-.515.521 0 .913.15 1.177.45.263.299.395.745.395 1.34v.297zm-.695-.49v-.055c0-.33-.074-.587-.223-.771-.148-.183-.373-.275-.676-.275a.93.93 0 00-.719.302c-.184.202-.275.468-.275.799h1.893zm2.461-1.515h.814v.51h-.814v2.283c0 .168.041.285.126.353.083.067.203.102.36.102.06 0 .12-.004.176-.01a.968.968 0 00.152-.027v.54a2.311 2.311 0 01-.24.031 3.646 3.646 0 01-.32.013c-.323 0-.559-.058-.707-.175-.147-.116-.22-.315-.22-.598v-2.51h-.647v-.511h.646v-.78l.674-.223v1.003zm4.689 2.005H99.1v.057c0 .402.09.717.272.943.181.228.44.342.772.342.242 0 .439-.066.59-.197.152-.131.24-.323.265-.573h.68a1.252 1.252 0 01-.458.922c-.282.236-.651.355-1.106.355-.558 0-.979-.167-1.264-.5-.286-.334-.429-.813-.429-1.44 0-.645.15-1.138.45-1.481.3-.343.724-.515 1.272-.515.521 0 .913.15 1.177.45.263.299.395.745.395 1.34v.297zm-.695-.49v-.055c0-.33-.074-.587-.223-.771-.148-.183-.373-.275-.676-.275a.93.93 0 00-.719.302c-.184.202-.275.468-.275.799h1.893zm3.747-1.53v.682a.535.535 0 00-.13-.03 1.718 1.718 0 00-.174-.008c-.344 0-.599.087-.766.26-.166.174-.25.454-.25.84v2.014h-.691v-3.127l-.007-.177-.028-.425h.691l.011.446c0 .121.001.213.004.276a.896.896 0 01.388-.563c.201-.13.453-.196.754-.196l.198.008zm3.357 1.062h-.696v-.047c0-.181-.059-.32-.177-.415-.117-.097-.294-.145-.53-.145-.237 0-.419.046-.549.136a.456.456 0 00-.194.397c0 .23.149.38.445.453l.844.214c.322.081.56.203.716.362.156.16.235.376.235.65 0 .352-.131.639-.392.862-.261.221-.648.333-1.162.333-.462 0-.819-.104-1.069-.313-.251-.21-.376-.51-.376-.898h.72c0 .213.067.378.205.496.137.12.337.178.599.178.238 0 .422-.053.553-.155a.522.522 0 00.195-.432c0-.178-.068-.302-.205-.371a2.482 2.482 0 00-.594-.184 4.952 4.952 0 01-.709-.195 1.17 1.17 0 01-.505-.333c-.125-.145-.187-.34-.187-.585a1 1 0 01.389-.81c.259-.213.603-.32 1.034-.32.401 0 .735.083 1.004.248.27.166.406.422.406.768v.106z" fill="#6E8889"/></svg>