<svg width="180" height="39" fill="none" xmlns="http://www.w3.org/2000/svg"><path d="M25.531 32.475h3.684v4.148h-1.098v-3.262H26.63v3.262h-1.1v-4.148zm6.848 0h1.023v.609a1.532 1.532 0 011.293-.703c.482 0 .89.189 1.227.566.336.378.504.904.504 1.578 0 .693-.17 1.232-.508 1.618-.339.382-.749.574-1.23.574-.23 0-.438-.046-.626-.137a2.1 2.1 0 01-.585-.469v2.09h-1.098v-5.726zm1.086 2.003c0 .467.092.812.277 1.036a.85.85 0 00.676.332.795.795 0 00.637-.305c.169-.206.254-.542.254-1.008 0-.435-.088-.758-.262-.968a.81.81 0 00-.649-.317.84.84 0 00-.668.313c-.177.205-.265.511-.265.917zm5.582.012c0-.364.09-.717.27-1.058.18-.342.433-.602.761-.782.33-.18.7-.27 1.106-.27.627 0 1.142.205 1.543.614.4.406.601.92.601 1.543 0 .628-.203 1.148-.61 1.563-.403.411-.912.617-1.527.617a2.42 2.42 0 01-1.09-.258 1.774 1.774 0 01-.785-.754c-.18-.333-.27-.738-.27-1.215zm1.125.059c0 .411.098.726.293.945a.93.93 0 00.722.328c.287 0 .527-.11.72-.328.195-.219.292-.536.292-.953 0-.406-.097-.719-.293-.938a.92.92 0 00-.718-.328.931.931 0 00-.723.328c-.196.22-.293.534-.293.946zm5.941-2.074h1.36l1.03 2.89 1.04-2.89h1.355v4.148h-.933v-2.73l-1.012 2.73h-.937l-.965-2.73v2.73h-.938v-4.148zm7.899 0h1.097v1.722h1.102c.432 0 .762.031.988.094.23.06.422.193.578.399.16.205.239.447.239.726 0 .401-.138.703-.414.906-.276.2-.69.301-1.243.301h-2.347v-4.148zm1.097 3.453h1.02c.266 0 .458-.042.578-.125.12-.084.18-.219.18-.406 0-.201-.078-.338-.235-.41-.153-.076-.43-.114-.832-.114h-.71v1.055zm3.532-3.453h1.097v4.148h-1.097v-4.148zm4.172 0h1.007v3.261h1.274v-3.261h1.012v3.261h1.269v-3.261h1.012v4.148h-5.575v-4.148zm8.996 0h3.675v4.148h-1.093v-3.258h-1.497v1.863c0 .474-.054.808-.163 1-.11.19-.231.316-.364.375-.133.06-.346.09-.64.09a4.48 4.48 0 01-.692-.07v-.808c.024 0 .085.002.184.007.114.008.203.012.265.012.149 0 .24-.048.274-.145.034-.099.05-.37.05-.816v-2.398zm9.082 2.828l1.093.183c-.14.401-.363.707-.668.918-.302.209-.68.313-1.136.313-.722 0-1.256-.236-1.602-.707-.273-.378-.41-.854-.41-1.43 0-.687.18-1.225.539-1.613.36-.39.814-.586 1.363-.586.618 0 1.105.204 1.461.613.357.406.528 1.03.512 1.871h-2.75c.008.326.096.58.266.762.169.18.38.27.632.27a.672.672 0 00.434-.141c.117-.094.206-.245.266-.453zm.062-1.11c-.008-.317-.09-.558-.246-.722a.752.752 0 00-.57-.25.762.762 0 00-.594.261c-.156.175-.233.412-.23.711h1.64zm3.945-1.718h1.098v1.52h1.57v-1.52h1.102v4.148h-1.102v-1.742h-1.57v1.742h-1.098v-4.148zm6.836 0h1.098v1.52h1.57v-1.52h1.102v4.148h-1.102v-1.742h-1.57v1.742h-1.098v-4.148zm6.887 0h1.098v1.722h1.101c.433 0 .762.031.989.094.229.06.421.193.578.399.159.205.238.447.238.726 0 .401-.138.703-.414.906-.276.2-.69.301-1.242.301h-2.348v-4.148zm1.098 3.453h1.019c.266 0 .459-.042.578-.125.12-.084.18-.219.18-.406 0-.201-.078-.338-.234-.41-.154-.076-.431-.114-.832-.114h-.711v1.055zm3.531-3.453h1.098v4.148h-1.098v-4.148zm4.172 0h1.055v2.605l1.687-2.605h1.078v4.148h-1.054v-2.652l-1.711 2.652h-1.055v-4.148zm2.629-1.684h.535c-.031.354-.156.633-.375.836-.216.2-.497.3-.844.3-.346 0-.629-.1-.847-.3-.217-.203-.34-.482-.372-.836h.536c.018.185.083.325.195.422.112.094.275.14.488.14.214 0 .376-.046.488-.14a.61.61 0 00.196-.422zm12.164 2.91l-1.082.196c-.037-.217-.12-.38-.25-.489a.742.742 0 00-.5-.164.822.822 0 00-.656.285c-.162.188-.243.503-.243.946 0 .492.082.84.246 1.043.167.203.39.304.668.304a.745.745 0 00.512-.175c.133-.12.227-.325.281-.614l1.079.184c-.112.495-.327.868-.645 1.12-.318.253-.743.38-1.277.38-.607 0-1.091-.192-1.453-.574-.36-.383-.54-.913-.54-1.59 0-.685.181-1.218.543-1.598.362-.383.852-.574 1.469-.574.505 0 .906.11 1.203.328.3.216.515.547.645.992zm5.238 1.602l1.094.183c-.141.401-.363.707-.668.918-.302.209-.681.313-1.137.313-.721 0-1.255-.236-1.601-.707-.274-.378-.411-.854-.411-1.43 0-.687.18-1.225.54-1.613.359-.39.813-.586 1.363-.586.617 0 1.104.204 1.461.613.357.406.527 1.03.511 1.871h-2.75c.008.326.097.58.266.762.169.18.38.27.633.27a.675.675 0 00.434-.141c.117-.094.205-.245.265-.453zm.063-1.11c-.008-.317-.09-.558-.246-.722a.755.755 0 00-.571-.25.765.765 0 00-.594.261c-.156.175-.233.412-.23.711h1.641zm3.945-1.718h1.094v1.695c.182-.02.311-.077.386-.168.076-.091.167-.29.274-.598.14-.409.294-.67.461-.785.166-.114.385-.172.656-.172.083 0 .228.007.434.02l.004.726c-.29 0-.474.028-.555.082-.081.058-.168.228-.262.512-.127.383-.311.619-.551.707.347.096.64.397.879.903l.043.081.614 1.145h-1.18l-.547-1.2c-.112-.241-.21-.396-.293-.464-.081-.07-.202-.106-.363-.106v1.77h-1.094v-4.148zm5.559 0h3.753v.886h-1.328v3.262h-1.097v-3.262h-1.328v-.886zm6.05 2.015c0-.364.09-.717.27-1.058a1.85 1.85 0 01.762-.782c.33-.18.699-.27 1.105-.27.628 0 1.142.205 1.543.614.401.406.602.92.602 1.543 0 .628-.204 1.148-.61 1.563-.403.411-.913.617-1.527.617a2.42 2.42 0 01-1.09-.258 1.774 1.774 0 01-.785-.754c-.18-.333-.27-.738-.27-1.215zm1.125.059c0 .411.098.726.293.945a.932.932 0 00.723.328.92.92 0 00.719-.328c.195-.219.293-.536.293-.953 0-.406-.098-.719-.293-.938a.92.92 0 00-.719-.328.932.932 0 00-.723.328c-.195.22-.293.534-.293.946zm5.989-2.074h1.023v.609a1.538 1.538 0 011.293-.703c.482 0 .891.189 1.227.566.335.378.503.904.503 1.578 0 .693-.169 1.232-.507 1.618-.339.382-.749.574-1.231.574-.229 0-.437-.046-.625-.137-.185-.091-.38-.247-.586-.469v2.09h-1.097v-5.726zm1.086 2.003c0 .467.092.812.277 1.036a.85.85 0 00.676.332.794.794 0 00.636-.305c.17-.206.254-.542.254-1.008 0-.435-.087-.758-.261-.968a.811.811 0 00-.649-.317.84.84 0 00-.668.313c-.177.205-.265.511-.265.917z" fill="#fff"/><path fill-rule="evenodd" clip-rule="evenodd" d="M0 .01v24.283h8.865v-4.24h9.25c1.542-.32 4.683-1.412 6.553-3.468 1.927-2.12 3.276-8.48 1.156-11.37C23.166 1.588 20.428.395 17.73.01H0zm8.865 11.95V7.72h7.323c.642.257 1.927 1.08 1.927 2.313s-1.285 1.798-1.927 1.927H8.865zM30.064.012v24.282h8.864v-4.24h6.938l2.506 4.24h8.865l-3.662-6.36c-.064-.128-.154-.423 0-.578a1.36 1.36 0 01.132-.096c.69-.476 3.688-2.546 3.337-7.805-.385-5.782-4.818-8.48-8.672-9.443H30.064zm8.865 11.948h7.709c.514-.128 1.542-.694 1.542-1.927s-1.028-1.927-1.542-2.12h-7.709v4.047zm35.075 12.334c4.432-.192 13.336-3.006 13.49-12.72C87.301 1.94 77.28-.18 74.004.013l-.12.007c-3.368.195-12.042.7-13.756 11.555 0 8.865 8.094 13.105 13.876 12.72zm.065-8.102c1.499-.067 4.508-1.049 4.56-4.435-.065-3.36-3.452-4.1-4.56-4.032l-.04.002c-1.138.068-4.07.245-4.65 4.03 0 3.09 2.736 4.57 4.69 4.435z" fill="#fff"/><path d="M90.578 24.294V.012h9.058V16.2h13.683v8.094h-22.74zm25.438 0V.012h9.636v24.282h-9.636zM128.351.012v24.282h8.094V14.273l17.73 10.021V.012h-8.094V9.84L128.351.012zm28.908 24.282V.012H180V7.72h-13.491v1.928h5.011V8.49l3.469 3.662-3.469 3.276v-1.156h-5.011V16.2H180v8.094h-22.741z" fill="#fff"/></svg>