<svg width="265" height="45" fill="none" xmlns="http://www.w3.org/2000/svg"><g filter="url(#filter0_d_129_32289)"><path fill-rule="evenodd" clip-rule="evenodd" d="M5 5.016v34.4h12.559V33.41h13.105c2.184-.455 6.405-2.226 9.282-4.915 5.247-4.902 4.642-12.013 1.639-16.108-3.766-5.135-7.645-6.825-11.467-7.371H5zm12.557 16.928v-6.007h10.375c.91.364 2.73 1.53 2.73 3.277s-1.82 2.548-2.73 2.73H17.557zM47.59 5.017v34.4h12.56v-6.006h9.828l3.55 6.006h12.558l-5.187-9.01c-.091-.182-.219-.6 0-.819.024-.024.09-.07.186-.136.977-.675 5.225-3.607 4.728-11.058-.546-8.19-6.826-12.012-12.286-13.377H47.59zm12.56 16.927h10.92c.728-.182 2.184-.983 2.184-2.73 0-1.747-1.456-2.73-2.184-3.003H60.15v5.733zm49.689 17.473c6.279-.273 18.893-4.26 19.111-18.02-.273-13.65-14.47-16.653-19.111-16.38l-.17.01c-4.77.278-17.06.995-19.487 16.37 0 12.56 11.466 18.566 19.657 18.02zm.093-11.48c2.123-.095 6.387-1.485 6.461-6.283-.093-4.76-4.892-5.807-6.461-5.712l-.057.004c-1.613.097-5.767.347-6.587 5.708 0 4.38 3.876 6.474 6.644 6.283z" fill="#036063"/><path d="M133.319 39.417v-34.4h12.832V27.95h19.385v11.467h-32.217z" fill="#6D6E70"/><path d="M169.357 39.417v-34.4h13.651v34.4h-13.651z" fill="#7C7D7E"/><path d="M186.831 5.017v34.4h11.466V25.22l25.118 14.197v-34.4h-11.467V18.94L186.831 5.017zm40.953 34.4v-34.4H260v10.92h-19.111v2.73h7.099V17.03l4.914 5.188-4.914 4.641V25.22h-7.099v2.73H260v11.467h-32.216z" fill="#6D6E70"/></g><defs><filter id="filter0_d_129_32289" x="0" y="0" width="265" height="44.451" filterUnits="userSpaceOnUse" color-interpolation-filters="sRGB"><feFlood flood-opacity="0" result="BackgroundImageFix"/><feColorMatrix in="SourceAlpha" values="0 0 0 0 0 0 0 0 0 0 0 0 0 0 0 0 0 0 127 0" result="hardAlpha"/><feOffset/><feGaussianBlur stdDeviation="2.5"/><feComposite in2="hardAlpha" operator="out"/><feColorMatrix values="0 0 0 0 1 0 0 0 0 1 0 0 0 0 1 0 0 0 0.35 0"/><feBlend in2="BackgroundImageFix" result="effect1_dropShadow_129_32289"/><feBlend in="SourceGraphic" in2="effect1_dropShadow_129_32289" result="shape"/></filter></defs></svg>