<svg width="72" height="80" xmlns="http://www.w3.org/2000/svg"><path d="M56.203 79.481V46.226m0 33.255h9.311m-9.311 0h-4.656M1 46.226v33.255h43.231M1 46.226v-3.325m0 3.325h3.99m51.213 0v-7.98m0 7.98L37.58 29.6m18.623 16.627h-3.326m3.326-7.98L46.891 29.6h-9.31m18.622 8.646V4.325M37.58 29.6v3.326m0 13.301v-3.325m0 3.325h3.99m-3.99 0L19.29 29.6m18.29 16.627h-3.325m-14.965 0v-3.325m0 3.325h3.658m-3.658 0L1 29.6m18.29 16.627h-3.658M19.29 29.6h8.979l9.311 8.314M19.29 29.6v3.326m18.29 4.988V36.25m0 1.663v1.663M1 29.598h8.646l9.644 8.646M1 29.6v3.326m18.29 5.32V36.25m0 1.995v1.33m46.224 39.906h5.32L71.5 1h-5.986m0 78.481V8.316m0-7.316h-9.311v3.325M65.514 1v1.995m-9.311 1.33h9.311m0 0v-1.33m0 1.33v1.33m0-2.66h3.326m-3.326 2.66h2.66m-2.66 0v2.661m0 0h1.33M37.58 32.924l15.297 13.302M37.58 32.925v3.325m15.297 9.976h-3.99M37.58 36.25l11.307 9.976m0 0H45.56m-7.98-6.65l7.98 6.65m-7.98-6.65V42.9m7.98 3.325h-3.99M37.58 42.9l3.99 3.325m-22.28-13.3l14.964 13.301M19.29 32.925v3.325m14.965 9.976h-3.326M19.29 36.25l11.64 9.976m0 0h-3.991m-7.649-6.65l7.649 6.65m-7.649-6.65V42.9m7.649 3.325h-3.99M19.29 42.9l3.658 3.325M1 32.925l14.632 13.301M1 32.925v3.325m14.632 9.976h-3.99M1 36.25l10.642 9.976M1 36.25v3.325m10.642 6.651H8.316M1 39.576l7.316 6.65M1 39.576V42.9m7.316 3.325H4.991M1 42.901l3.99 3.325m46.557 33.255h-7.316m7.316 0v-5.32m-7.316 5.32v-8.646h7.316v3.325m0 0h-1.995m2.66-5.32h-8.646m7.316-9.312h-5.986m5.986-1.995h-5.986v-5.321h5.986v5.32zm-25.274 1.995h-5.985m5.985-1.995h-5.985v-5.321h5.985v5.32z" fill="#036063"/><path d="M25.608 74.16h-5.985m5.985-1.995h-5.985v-5.32h5.985v5.32zm12.637-12.637H32.26m5.986-1.995H32.26v-5.321h5.986v5.32zm-.001 16.627H32.26m5.986-1.995H32.26v-5.32h5.986v5.32zM12.972 59.528H6.986m5.986-1.995H6.986v-5.321h5.986v5.32zm0 16.627H6.986m5.986-1.995H6.986v-5.32h5.986v5.32z" fill="#036063"/></svg>