<svg width="167" height="41" fill="none" xmlns="http://www.w3.org/2000/svg"><path fill-rule="evenodd" clip-rule="evenodd" d="M55.71 20.438c-.168-1.649.107-3.332.801-4.59.652-1.182 1.584-1.921 3.403-2.078 4.018-.345 5.75 1.151 5.909 5.03.144 3.498-.985 6.357-4.313 6.66-3.65.332-5.464-1.717-5.8-5.022zm15.583.467c.433-4.257-.827-7.645-5.07-8.851-1.261-.359-2.779-.436-4.145-.465-2.703-.058-6.072-.143-8.23 1.03-1.903 1.037-3.368 2.807-3.655 5.661-.287 2.86.472 5.979 2.032 7.324 1.828 1.576 4.287 1.92 7.22 2.087 2.64.15 6.04-.095 8.242-1.063 2.207-.97 3.3-2.729 3.606-5.723zm-24.257-6.338L48.572 12H35.449c-2.225 0-3.84.36-4.757 1.78-.952 1.475-1.182 3.299-1.183 5.333-.003 3.842-.053 7.35 4.905 8.142.103.016.226.032.365.045 2.428.241 10.148.114 12.546.114l1.015-2.418h-8.633c-1.281 0-2.886.179-3.883-.491-1.045-.703-.762-1.752-.762-3.521h10.482l1.2-2.534H35.062c0-3.889.339-3.877 4.103-3.877l7.871-.005zM7.346 24.57c-.284.166-.46.322-.698.54-1.396 1.246-2.967 2.739-4.138 4.174-1.102 1.353-3.08 4.222-2.354 6.813.553 1.98 3.156 3.442 5.409 4.064 8.766 2.42 22.965-1.98 31.216-5.29 1.096-.44 6.09-2.436 6.393-3.039-.84.242-1.759.624-2.617.919-2.727.934-5.55 1.694-8.353 2.351-4.015.942-8.278 1.554-12.547 1.712-3.565.131-9.708-.32-12.168-2.103-1.337-.969-2.4-2.433-2.11-4.979.317-2.764 1.775-4.563 1.967-5.162z" fill="#6E8889"/><path fill-rule="evenodd" clip-rule="evenodd" d="M28.668 24.926l-7.855.003c-1.079 0-2.07-.22-2.536-.99-.21-.346-.153-.538-.152-.932l.002-11.008H12.38l-.167 11.322c-.045 1.268.072 2.333.759 3.066 1.268 1.355 4.436 1.026 6.607 1.026h7.565l1.524-2.487zm17.4-19.057c.682-.151 1.459-.44 2.152-.634 5.265-1.47 11.166-2.482 16.646-2.31 2.714.084 6.996.657 8.743 2.087 1.022.836 1.564 2.234 1.219 4.02-.395 2.046-1.317 3.044-1.62 3.835.865-.35 3.311-2.866 3.889-3.42.453-.433 1.167-1.446 1.531-2.122 1.691-3.135.129-5.154-3.03-6.42-6.234-2.498-18.15.751-24.403 2.808-2.526.83-2.97 1.15-5.127 2.073l-.233.13.233-.047zM85.643.185h-.854v40.44h.854V.184z" fill="#6E8889"/><path d="M93.421 10.095H91.99V3.323h1.432v6.772zm7.352 0h-1.381L96.185 5.68v4.416h-1.433V3.323h1.473l3.116 4.254V3.323h1.432v6.772zm3.984 0h-2.653V3.323h2.653c1.055 0 1.914.312 2.577.934.662.623.993 1.442.993 2.457 0 1.016-.329 1.833-.988 2.452-.659.62-1.52.93-2.582.93zm0-1.269c.645 0 1.158-.203 1.538-.609.38-.406.57-.907.57-1.503 0-.622-.185-1.132-.555-1.528-.37-.396-.888-.594-1.553-.594h-1.22v4.234h1.22zm9.888.63c-.514.507-1.269.761-2.264.761-.995 0-1.75-.255-2.264-.766-.514-.511-.772-1.197-.772-2.056V3.323h1.453v4.02c0 .488.137.876.413 1.163.276.288.666.432 1.17.432.504 0 .893-.144 1.165-.432.272-.287.408-.675.408-1.162v-4.02h1.463v4.06c0 .874-.258 1.564-.772 2.072zm4.483.761c-1.197 0-2.145-.359-2.844-1.076l.777-1.097c.578.61 1.29.914 2.137.914.37 0 .658-.073.863-.218.205-.146.307-.323.307-.533 0-.183-.096-.335-.287-.457a2.033 2.033 0 00-.716-.264 9.08 9.08 0 01-1.866-.579 1.722 1.722 0 01-.716-.609c-.192-.277-.287-.616-.287-1.015 0-.582.232-1.072.696-1.467.463-.396 1.082-.594 1.855-.594 1.069 0 1.943.314 2.622.944l-.796 1.056c-.532-.494-1.184-.741-1.957-.741-.302 0-.538.06-.706.182a.582.582 0 00-.252.498c0 .162.096.3.287.411.192.112.431.195.716.249.286.054.596.134.928.238.333.105.642.224.928.356a1.742 1.742 0 011.004 1.63c0 .65-.231 1.174-.691 1.573-.461.4-1.128.6-2.002.6zm6.525-.122h-1.442V4.592h-1.967V3.323h5.365v1.27h-1.956v5.502zm8.32 0h-1.644l-1.321-2.406h-1.049v2.406h-1.432V3.323h3.147c.692 0 1.242.203 1.649.61.406.405.61.93.61 1.573 0 .555-.143 1.005-.429 1.35a1.881 1.881 0 01-1.044.66l1.513 2.58zm-2.511-3.675c.296 0 .538-.083.726-.249.188-.166.282-.387.282-.665 0-.277-.094-.5-.282-.665-.188-.166-.43-.249-.726-.249h-1.503V6.42h1.503zm4.982 3.675h-1.432V3.323h1.432v6.772zm7.604 0h-1.634l-.413-1.147h-2.885l-.423 1.147h-1.634l2.602-6.772h1.795l2.592 6.772zm-2.441-2.416l-1.049-2.914-1.048 2.914h2.097zm7.342 2.416h-4.276V3.323h1.432v5.503h2.844v1.27zM98.262 22.462h-1.634l-.413-1.147H93.33l-.424 1.147h-1.634l2.602-6.772h1.795l2.592 6.772zm-2.44-2.417l-1.05-2.914-1.048 2.914h2.098zm9.086 2.417h-1.382l-3.207-4.417v4.417h-1.432V15.69h1.473l3.116 4.254V15.69h1.432v6.772zm3.984 0h-2.653V15.69h2.653c1.055 0 1.914.311 2.576.934.663.623.994 1.442.994 2.457s-.33 1.832-.988 2.452c-.659.62-1.52.929-2.582.929zm0-1.27c.645 0 1.158-.202 1.538-.608.38-.407.57-.907.57-1.503 0-.623-.185-1.132-.555-1.528-.37-.396-.888-.594-1.553-.594h-1.221v4.234h1.221zm9.823 1.27h-2.653V15.69h2.653c1.055 0 1.914.311 2.576.934.662.623.994 1.442.994 2.457s-.33 1.832-.989 2.452c-.659.62-1.519.929-2.581.929zm0-1.27c.645 0 1.158-.202 1.537-.608.38-.407.57-.907.57-1.503 0-.623-.185-1.132-.554-1.528-.37-.396-.888-.594-1.553-.594h-1.221v4.234h1.221zm7.775 1.392c-1.015 0-1.854-.33-2.516-.99-.662-.66-.994-1.498-.994-2.513s.332-1.853.994-2.513c.662-.66 1.501-.99 2.516-.99 1.022 0 1.864.328 2.526.985.663.657.994 1.496.994 2.518 0 1.022-.331 1.861-.994 2.518-.662.657-1.504.985-2.526.985zm-1.477-1.91c.373.42.865.63 1.477.63.612 0 1.106-.21 1.482-.63.377-.419.565-.95.565-1.593s-.188-1.175-.565-1.594c-.376-.42-.87-.63-1.482-.63s-1.104.21-1.477.63c-.374.42-.56.95-.56 1.594 0 .643.186 1.174.56 1.594zm13.297 1.788h-1.443V17.72l-1.896 4.742h-.625l-1.896-4.742v4.742h-1.432V15.69h2.007l1.634 4.092 1.634-4.092h2.017v6.772zm6.091 0h-4.76V15.69h4.76v1.269h-3.328v1.431h3.257v1.27h-3.257v1.533h3.328v1.269zm3.51.122c-1.197 0-2.145-.359-2.844-1.077l.776-1.096c.578.61 1.291.914 2.138.914.37 0 .657-.073.862-.218.205-.146.308-.324.308-.534 0-.182-.096-.335-.287-.457a2.04 2.04 0 00-.716-.264 9.043 9.043 0 01-1.866-.578 1.717 1.717 0 01-.716-.61c-.192-.277-.288-.615-.288-1.015 0-.582.232-1.07.696-1.467.464-.396 1.083-.594 1.856-.594 1.069 0 1.943.315 2.622.944l-.797 1.056c-.531-.494-1.183-.74-1.956-.74-.303 0-.538.06-.706.182a.582.582 0 00-.252.497c0 .163.096.3.287.412.192.111.43.194.716.248.286.055.595.134.928.239.333.105.642.223.928.355.286.132.524.339.716.62.191.28.287.617.287 1.01 0 .65-.23 1.174-.691 1.574-.46.399-1.127.599-2.001.599zm6.525-.122h-1.443v-5.503h-1.966v-1.27h5.365v1.27h-1.956v5.503zm4.306 0h-1.432V15.69h1.432v6.772zm4.589.122c-1.023 0-1.875-.327-2.557-.98-.682-.653-1.024-1.494-1.024-2.523 0-1.029.342-1.87 1.024-2.523.682-.653 1.534-.98 2.557-.98 1.257 0 2.195.552 2.813 1.655l-1.23.61a1.859 1.859 0 00-.651-.706 1.67 1.67 0 00-.932-.28c-.612 0-1.117.21-1.513.63-.397.42-.595.95-.595 1.594 0 .643.198 1.174.595 1.594.396.42.901.63 1.513.63.336 0 .647-.092.932-.275a1.81 1.81 0 00.651-.71l1.23.599c-.639 1.11-1.576 1.665-2.813 1.665zm-69.91 12.244H91.99v-6.772h3.147c.706 0 1.259.208 1.659.625.4.416.6.935.6 1.558 0 .616-.202 1.134-.605 1.554-.404.42-.955.63-1.654.63H93.42v2.405zm1.523-3.675c.29 0 .526-.083.711-.249.185-.166.278-.387.278-.665 0-.277-.093-.499-.278-.665-.185-.166-.422-.249-.71-.249H93.42v1.828h1.523zm8.638 3.036c-.514.507-1.269.761-2.264.761-.995 0-1.75-.255-2.264-.766-.514-.511-.772-1.197-.772-2.056v-4.072h1.453v4.02c0 .488.137.876.413 1.163.276.288.666.432 1.17.432.504 0 .893-.144 1.165-.431.272-.288.408-.676.408-1.163v-4.02h1.463v4.06c0 .874-.258 1.564-.772 2.072zm9.384.64h-1.442v-4.742l-1.896 4.741h-.625l-1.896-4.741v4.741h-1.432v-6.772h2.007l1.633 4.092 1.634-4.092h2.017v6.772zm2.763 0h-1.432v-6.773h3.147c.706 0 1.259.208 1.659.625.4.416.6.935.6 1.558 0 .616-.202 1.134-.605 1.554-.404.42-.955.63-1.654.63h-1.715v2.405zm1.523-3.676c.289 0 .526-.083.711-.249.185-.166.278-.387.278-.665 0-.277-.093-.499-.278-.665-.185-.166-.422-.249-.711-.249h-1.523v1.828h1.523zm5.728 3.797c-1.196 0-2.144-.358-2.843-1.076l.776-1.096c.578.609 1.291.913 2.138.913.37 0 .657-.073.862-.218.205-.146.308-.323.308-.533 0-.183-.096-.335-.287-.457a2.039 2.039 0 00-.717-.264 9.12 9.12 0 01-1.865-.579 1.715 1.715 0 01-.716-.609c-.192-.277-.288-.616-.288-1.015 0-.582.232-1.071.696-1.467.464-.396 1.083-.594 1.856-.594 1.069 0 1.943.315 2.622.944l-.797 1.056c-.531-.494-1.183-.741-1.956-.741-.303 0-.538.06-.706.183a.582.582 0 00-.252.497c0 .162.095.3.287.411.192.112.43.195.716.249.286.054.595.134.928.239.333.105.642.223.928.355.285.132.524.338.716.62.191.28.287.617.287 1.01 0 .65-.23 1.174-.691 1.573-.46.4-1.127.6-2.002.6z" fill="#6E8889"/></svg>