<svg width="50" height="31" fill="none" xmlns="http://www.w3.org/2000/svg"><g clip-path="url(#clip0_129_32399)" fill="#fff"><path d="M22.952 19.97H.605L11.775.509 22.951 19.97zM5.065 17.378h13.428c-2.15-3.747-4.577-7.968-6.719-11.698-2.133 3.73-4.56 7.96-6.71 11.698z"/><path d="M22.95 20.48H.605a.503.503 0 01-.436-.254.501.501 0 010-.509L11.337.254a.503.503 0 01.873 0l11.177 19.463a.502.502 0 010 .509.503.503 0 01-.436.254zM1.479 19.463h20.6L11.772 1.526 1.478 19.463zm17.013-1.577H5.064a.503.503 0 01-.437-.254.501.501 0 010-.509c2.31-4.01 4.686-8.163 6.71-11.698a.503.503 0 01.873 0c.882 1.535 1.806 3.145 2.746 4.773 1.344 2.34 2.713 4.713 3.972 6.925a.502.502 0 010 .509.503.503 0 01-.437.254zM5.937 16.87h11.681c-1.142-1.984-2.343-4.086-3.535-6.163-.781-1.364-1.562-2.712-2.31-4.018A2631.746 2631.746 0 015.937 16.87zm17.156-.5V5.026h2.116v9.215h4.207v2.127h-6.323z"/><path d="M29.417 16.539h-6.323l-.168-.17V5.027l.168-.17h2.116l.168.17v9.045h4.04l.167.17v2.127l-.168.17zm-6.155-.34h5.987v-1.788H25.21l-.168-.17V5.197h-1.78V16.2zm8.078.171V5.026h7.045v2.128h-4.921v2.399h4.82v2.128h-4.82v2.568h4.92v2.128H31.34v-.009z"/><path d="M38.386 16.547h-7.045l-.168-.17V5.028l.168-.17h7.045l.168.17v2.128l-.168.17h-4.753v2.06h4.652l.168.169v2.127l-.168.17h-4.652v2.23h4.753l.168.169v2.128l-.168.17zm-6.878-.339h6.71v-1.789h-4.753l-.168-.17v-2.568l.168-.17h4.652V9.724h-4.652l-.168-.17V7.156l.168-.17h4.753V5.197h-6.71v11.011zm15.814.162l-2.495-4.154-2.51 4.153h-2.52l3.611-5.815-3.384-5.527h2.52l2.283 3.874 2.25-3.874h2.554l-3.384 5.51 3.61 5.832h-2.535z"/><path d="M49.858 16.539h-2.536l-.143-.085-2.351-3.917-2.368 3.917-.143.085h-2.52l-.142-.263 3.552-5.722-3.325-5.434.143-.263h2.519l.143.085 2.141 3.628 2.108-3.628.143-.085h2.553l.142.263-3.325 5.417L50 16.276l-.143.263zm-2.444-.34h2.142l-3.451-5.569v-.178l3.224-5.247h-2.158l-2.2 3.78h-.286l-2.233-3.788h-2.125l3.225 5.264v.178L40.1 16.19h2.125l2.46-4.069h.286l2.444 4.078zM0 30.254l.453-.636c.32.348.823.653 1.478.653.672 0 .941-.33.941-.644 0-.992-2.72-.373-2.72-2.111 0-.78.68-1.373 1.696-1.373.73 0 1.31.229 1.746.652l-.47.61c-.361-.364-.857-.533-1.352-.533-.479 0-.79.229-.79.584 0 .874 2.713.331 2.713 2.086 0 .78-.546 1.45-1.806 1.45-.856.008-1.478-.29-1.889-.739zm6.19-1.686c0-1.408.982-2.433 2.385-2.433 1.394 0 2.385 1.034 2.385 2.433 0 1.407-.983 2.432-2.385 2.432-1.394 0-2.385-1.025-2.385-2.432zm3.93 0c0-.975-.605-1.704-1.545-1.704s-1.546.729-1.546 1.704c0 .966.605 1.703 1.546 1.703.94 0 1.545-.737 1.545-1.703zm3.576 2.348V26.21h3.191v.729h-2.376v1.22h2.326v.73h-2.326v2.034h-.815v-.008zm6.987 0V26.94h-1.41v-.73h3.644v.73h-1.41v3.976h-.824zm8.44 0l-.907-3.467-.899 3.467h-.873l-1.335-4.705h.915l.907 3.628.966-3.628h.646l.966 3.628.899-3.628h.915l-1.327 4.705h-.873zm14.008 0l-1.033-1.755h-.814v1.755h-.815V26.21h2.049c.924 0 1.52.61 1.52 1.475 0 .84-.546 1.288-1.1 1.382l1.142 1.848h-.949zm.076-3.23c0-.45-.336-.746-.798-.746h-1.117v1.492h1.117c.462 0 .798-.297.798-.746zm3.603 3.23V26.21h3.191v.729h-2.376v1.22h2.326v.73h-2.326v1.305H50v.73h-3.19v-.01zm-8.912-.002H33.48a.423.423 0 01-.36-.635l1.1-1.933 1.108-1.933a.423.423 0 01.361-.212c.151 0 .286.085.361.212l1.109 1.933 1.1 1.933a.424.424 0 01-.361.635zm-3.695-.847h2.964l-.739-1.297-.747-1.297-.748 1.297-.73 1.297z"/></g><defs><clipPath id="clip0_129_32399"><path fill="#fff" d="M0 0h50v31H0z"/></clipPath></defs></svg>