<svg width="1920" height="100" fill="none" xmlns="http://www.w3.org/2000/svg"><path fill="#181B1D" d="M0 0h1920v100H0z"/><path d="M130.094 59.51a8.36 8.36 0 011.572-.137 2.761 2.761 0 011.839.49 1.392 1.392 0 01.556 1.176 1.591 1.591 0 01-1.133 1.442 1.719 1.719 0 011.378 1.673 1.81 1.81 0 01-.563 1.342 3.366 3.366 0 01-2.315.62 9.472 9.472 0 01-1.334-.079V59.51zm.858 2.74h.786c.916 0 1.443-.476 1.443-1.117 0-.787-.599-1.097-1.443-1.097a3.234 3.234 0 00-.764.065l-.022 2.15zm0 3.203a4.7 4.7 0 00.721.043c.895 0 1.717-.332 1.717-1.298 0-.967-.786-1.291-1.731-1.291h-.721l.014 2.546zm12.218-2.755c0 2.3-1.399 3.52-3.109 3.52-1.709 0-3.007-1.371-3.007-3.39 0-2.02 1.32-3.513 3.108-3.513 1.789 0 3.008 1.4 3.008 3.383zm-5.193.108c0 1.442.779 2.712 2.164 2.712 1.385 0 2.163-1.263 2.163-2.784 0-1.328-.721-2.712-2.163-2.712-1.443 0-2.164 1.312-2.164 2.784zm8.294-3.296a9.281 9.281 0 011.659-.137 2.705 2.705 0 011.933.548 1.652 1.652 0 01.527 1.27 1.754 1.754 0 01-1.263 1.701v.036a1.65 1.65 0 01.981 1.35c.122.623.295 1.236.52 1.831h-.895a8.723 8.723 0 01-.447-1.594c-.195-.923-.555-1.27-1.334-1.305h-.815v2.885h-.866V59.51zm.866 3.05h.88c.923 0 1.507-.512 1.507-1.269 0-.757-.62-1.24-1.536-1.255a3.698 3.698 0 00-.851.08v2.445zm6.455 3.55v-6.687h.945l2.164 3.383a18.83 18.83 0 011.197 2.163c-.08-.894-.101-1.709-.101-2.747v-2.799h.808v6.686h-.866l-2.12-3.39a20.428 20.428 0 01-1.255-2.236c.05.837.072 1.645.072 2.756v2.885l-.844-.015zm12.6-6.687h3.606v.721h-2.733v2.229h2.524v.721h-2.524v3.022h-.866l-.007-6.693zm12.528 3.275c0 2.3-1.399 3.52-3.101 3.52s-3.008-1.371-3.008-3.39c0-2.02 1.32-3.513 3.102-3.513 1.781 0 3.007 1.4 3.007 3.383zm-5.186.108c0 1.442.772 2.704 2.128 2.704s2.164-1.255 2.164-2.776c0-1.328-.721-2.72-2.128-2.72-1.406 0-2.164 1.32-2.164 2.792zm8.288-3.296a9.318 9.318 0 011.658-.137 2.697 2.697 0 011.933.548 1.652 1.652 0 01.527 1.27 1.748 1.748 0 01-1.255 1.701v.036a1.656 1.656 0 01.981 1.35c.116.624.288 1.237.512 1.831h-.887a8.089 8.089 0 01-.447-1.594c-.202-.923-.556-1.27-1.342-1.305h-.815v2.885h-.865V59.51zm.865 3.05h.887c.916 0 1.508-.512 1.508-1.269 0-.757-.628-1.24-1.544-1.255a3.76 3.76 0 00-.851.08v2.445zm16.178.614c-.044-.93-.109-2.056-.094-2.885a47.288 47.288 0 01-.844 2.538l-1.183 3.246h-.656l-1.082-3.188c-.317-.945-.584-1.803-.772-2.596 0 .83-.065 1.954-.13 2.957l-.173 2.885h-.829l.469-6.686h1.103l1.14 3.231c.274.83.505 1.558.67 2.257h.037c.165-.678.403-1.442.721-2.257l1.19-3.231h1.103l.419 6.686h-.844l-.245-2.957zm10.039-.476c0 2.3-1.399 3.52-3.101 3.52s-3.008-1.371-3.008-3.39c0-2.02 1.32-3.513 3.109-3.513s3 1.4 3 3.383zm-5.185.108c0 1.442.771 2.704 2.163 2.704s2.164-1.255 2.164-2.776c0-1.328-.721-2.72-2.164-2.72-1.442 0-2.163 1.32-2.163 2.792zm8.258-3.296a9.44 9.44 0 011.673-.137 2.736 2.736 0 011.948.548 1.664 1.664 0 01.533 1.27 1.758 1.758 0 01-1.269 1.701v.036a1.652 1.652 0 01.988 1.35c.118.624.291 1.237.519 1.831h-.901a8.58 8.58 0 01-.447-1.594c-.202-.923-.563-1.27-1.349-1.305h-.822v2.885h-.873V59.51zm.873 3.05h.887c.93 0 1.522-.512 1.522-1.269 0-.757-.628-1.24-1.551-1.255a3.786 3.786 0 00-.858.08v2.445zm9.946.412h-2.626v2.416h2.921v.721h-3.786v-6.686h3.606v.721h-2.77v2.114h2.655v.714z" fill="#666"/><path d="M130 59.51a8.453 8.453 0 011.58-.138 2.728 2.728 0 011.832.49 1.366 1.366 0 01.562 1.176 1.59 1.59 0 01-1.132 1.443 1.716 1.716 0 011.377 1.673 1.824 1.824 0 01-.562 1.342 3.383 3.383 0 01-2.315.62 9.51 9.51 0 01-1.342-.08V59.51zm.865 2.74h.787c.908 0 1.442-.476 1.442-1.118 0-.786-.591-1.096-1.442-1.096a3.181 3.181 0 00-.765.065l-.022 2.15zm0 3.202c.239.034.481.048.722.044.894 0 1.716-.332 1.716-1.299 0-.966-.779-1.29-1.723-1.29h-.722l.007 2.545z" fill="url(#paint0_linear_311_131)"/><path d="M143.076 62.697c0 2.3-1.399 3.52-3.102 3.52-1.702 0-3.007-1.37-3.007-3.39s1.32-3.512 3.101-3.512c1.782 0 3.008 1.399 3.008 3.382zm-5.186.108c0 1.443.772 2.712 2.164 2.712 1.392 0 2.163-1.262 2.163-2.784 0-1.327-.721-2.712-2.163-2.712-1.443 0-2.164 1.313-2.164 2.784z" fill="url(#paint1_linear_311_131)"/><path d="M146.186 59.51a9.184 9.184 0 011.651-.137 2.761 2.761 0 011.94.548 1.666 1.666 0 01.52 1.27 1.755 1.755 0 01-1.255 1.702v.035a1.655 1.655 0 01.981 1.35c.116.624.288 1.237.512 1.831h-.887a8.66 8.66 0 01-.448-1.594c-.202-.923-.555-1.27-1.341-1.305h-.794v2.885h-.858l-.021-6.585zm.879 3.05h.888c.923 0 1.507-.512 1.507-1.269 0-.757-.627-1.24-1.536-1.255a3.853 3.853 0 00-.859.08v2.445z" fill="url(#paint2_linear_311_131)"/><path d="M153.506 66.109v-6.686h.937l2.164 3.383a18.84 18.84 0 011.205 2.163c-.08-.894-.101-1.71-.101-2.748v-2.798h.815v6.686h-.873l-2.164-3.39a22.716 22.716 0 01-1.247-2.236c.05.837.064 1.645.064 2.755v2.885l-.8-.014z" fill="url(#paint3_linear_311_131)"/><path d="M166.098 59.423h3.606v.721h-2.741v2.229h2.532v.721h-2.532v3.022h-.865v-6.693z" fill="url(#paint4_linear_311_131)"/><path d="M178.634 62.698c0 2.3-1.399 3.52-3.109 3.52-1.709 0-3.007-1.371-3.007-3.39 0-2.02 1.319-3.513 3.108-3.513 1.789 0 3.008 1.4 3.008 3.383zm-5.193.108c0 1.442.772 2.712 2.164 2.712 1.392 0 2.163-1.263 2.163-2.784 0-1.328-.721-2.712-2.163-2.712-1.443 0-2.164 1.312-2.164 2.784z" fill="url(#paint5_linear_311_131)"/><path d="M181.734 59.51a9.281 9.281 0 011.659-.137 2.74 2.74 0 011.933.548 1.651 1.651 0 01.527 1.27 1.754 1.754 0 01-1.262 1.701v.037a1.644 1.644 0 01.98 1.349c.122.623.295 1.236.52 1.831h-.895a8.725 8.725 0 01-.447-1.594c-.195-.923-.555-1.27-1.341-1.305h-.808v2.885h-.866V59.51zm.866 3.05h.88c.923 0 1.507-.511 1.507-1.269 0-.757-.62-1.24-1.536-1.255a3.709 3.709 0 00-.851.08v2.445z" fill="url(#paint6_linear_311_131)"/><path d="M198.778 63.173c-.05-.93-.108-2.055-.101-2.885a41.04 41.04 0 01-.843 2.539l-1.176 3.246h-.656l-1.082-3.188c-.318-.945-.584-1.803-.772-2.597 0 .83-.072 1.955-.13 2.957l-.18 2.885h-.822l.468-6.686h1.097l1.139 3.231c.282.83.512 1.558.678 2.258.173-.678.411-1.443.722-2.258l1.19-3.23h1.103l.411 6.685h-.844l-.202-2.957z" fill="url(#paint7_linear_311_131)"/><path d="M208.818 62.698c0 2.3-1.399 3.52-3.109 3.52-1.709 0-3-1.371-3-3.39 0-2.02 1.32-3.513 3.101-3.513 1.782 0 3.008 1.4 3.008 3.383zm-5.186.108c0 1.442.772 2.712 2.128 2.712s2.164-1.263 2.164-2.784c0-1.328-.722-2.712-2.164-2.712-1.443 0-2.128 1.312-2.128 2.784z" fill="url(#paint8_linear_311_131)"/><path d="M211.92 59.51a9.346 9.346 0 011.659-.138c.69-.07 1.382.126 1.933.548a1.662 1.662 0 01.526 1.27 1.756 1.756 0 01-1.262 1.702v.036a1.644 1.644 0 01.988 1.349 10.9 10.9 0 00.512 1.832h-.894a9.279 9.279 0 01-.447-1.594c-.195-.923-.556-1.27-1.335-1.306h-.815v2.885h-.865V59.51zm.865 3.05h.88c.924 0 1.508-.512 1.508-1.27 0-.757-.621-1.24-1.537-1.254a3.765 3.765 0 00-.851.08v2.444z" fill="url(#paint9_linear_311_131)"/><path d="M222.701 62.971h-2.596v2.417h2.885v.72h-3.765v-6.685h3.606v.721h-2.748v2.113h2.596l.022.714z" fill="url(#paint10_linear_311_131)"/><path d="M190.634 34.115l-9.989 7.731-9.982-7.731h-6.772l13.372 10.357-13.372 10.357h6.772l9.982-7.732 9.989 7.732h6.773l-13.372-10.357 13.372-10.357h-6.773zm-60.259 4.421v11.872a4.411 4.411 0 002.728 4.086 4.414 4.414 0 001.693.335h26.073v-3.765h-23.238a2.205 2.205 0 01-2.164-2.214v-2.654h23.556V42.43h-23.556v-2.337a2.206 2.206 0 012.164-2.207h23.217v-3.772h-26.052a4.422 4.422 0 00-4.421 4.421zm70.055 0v11.872a4.422 4.422 0 004.421 4.421h26.073v-3.765h-23.217a2.208 2.208 0 01-2.207-2.214v-2.654h23.556V42.43H205.5v-2.337a2.205 2.205 0 012.207-2.207h23.217v-3.772h-26.073a4.427 4.427 0 00-4.421 4.421zm93.149-4.421h-26.073v20.714h26.073A4.414 4.414 0 00298 50.408V38.536a4.422 4.422 0 00-4.421-4.421zm-.649 14.742a2.207 2.207 0 01-2.207 2.207h-18.147V37.887h18.147a2.206 2.206 0 012.207 2.207v8.763zm-58.941-10.321v11.872a4.422 4.422 0 004.422 4.421h26.073v-3.765h-23.217a2.213 2.213 0 01-1.563-.649 2.197 2.197 0 01-.644-1.565v-2.654h23.556V42.43H239.06v-2.337a2.205 2.205 0 012.207-2.207h23.217v-3.772h-26.073a4.431 4.431 0 00-4.422 4.421z" fill="#666"/><path d="M190.259 34.115l-9.982 7.731-9.989-7.731h-6.772l13.372 10.357-13.372 10.357h6.772l9.989-7.732 9.982 7.732h6.773L183.66 44.472l13.372-10.357h-6.773z" fill="url(#paint11_linear_311_131)"/><path d="M130 38.536v11.872a4.422 4.422 0 004.421 4.421h26.073v-3.765h-23.209a2.207 2.207 0 01-2.215-2.214v-2.654h23.556V42.43H135.07v-2.337a2.214 2.214 0 01.649-1.563 2.209 2.209 0 011.566-.644h23.209v-3.772h-26.073A4.43 4.43 0 00130 38.536z" fill="url(#paint12_linear_311_131)"/><path d="M200.055 38.536v11.872a4.414 4.414 0 001.297 3.128 4.421 4.421 0 003.131 1.293h26.073v-3.765h-23.217a2.203 2.203 0 01-2.047-1.366 2.205 2.205 0 01-.167-.848v-2.654h23.556V42.43h-23.556v-2.337a2.196 2.196 0 01.649-1.563 2.215 2.215 0 011.565-.644h23.217v-3.772h-26.073a4.43 4.43 0 00-4.428 4.421z" fill="url(#paint13_linear_311_131)"/><path d="M293.204 34.115h-26.073v20.714h26.073a4.422 4.422 0 004.428-4.421V38.536a4.43 4.43 0 00-4.428-4.421zm-.642 14.742a2.196 2.196 0 01-.649 1.563 2.215 2.215 0 01-1.565.644h-18.147V37.887h18.147a2.21 2.21 0 012.045 1.36 2.2 2.2 0 01.169.847v8.763z" fill="url(#paint14_linear_311_131)"/><path d="M233.615 38.536v11.872a4.417 4.417 0 002.735 4.087 4.419 4.419 0 001.694.334h26.066v-3.765H240.9a2.207 2.207 0 01-2.214-2.214v-2.654h23.556V42.43h-23.556v-2.337a2.213 2.213 0 01.649-1.563 2.194 2.194 0 011.565-.644h23.21v-3.772h-26.066a4.427 4.427 0 00-4.429 4.421z" fill="url(#paint15_linear_311_131)"/><path d="M609.176 44.8h1.136V56h-1.28v-8.912l-4.416 6.56h-.768l-4.416-6.56V56h-1.28V44.8h1.184l4.928 7.408 4.912-7.408zm5.813 11.2c-.896 0-1.542-.192-1.936-.576-.395-.395-.592-1.045-.592-1.952v-3.328c0-.907.197-1.552.592-1.936.394-.395 1.04-.592 1.936-.592h3.744c.896 0 1.541.197 1.936.592.394.384.592 1.03.592 1.936v3.328c0 .907-.198 1.557-.592 1.952-.395.384-1.04.576-1.936.576h-3.744zm.368-1.072h3.008c.618 0 1.04-.112 1.264-.336.224-.235.336-.661.336-1.28v-3.008c0-.619-.112-1.04-.336-1.264-.224-.235-.646-.352-1.264-.352h-3.008c-.619 0-1.04.117-1.264.352-.224.224-.336.645-.336 1.264v3.008c0 .619.112 1.045.336 1.28.224.224.645.336 1.264.336zm16.464 0h1.088v2.992h-1.216V56h-8.048v1.92h-1.232v-2.992h.352c.512 0 .869-.096 1.072-.288.203-.203.32-.565.352-1.088l.4-5.936h7.232v7.312zm-6.336-1.408c-.053.597-.187 1.067-.4 1.408h5.456v-6.224h-4.704l-.352 4.816zm14.822-5.904c.896 0 1.541.197 1.936.592.395.384.592 1.03.592 1.936v1.728h-7.344v1.472c0 .619.112 1.04.336 1.264.224.224.645.336 1.264.336h3.2c.469 0 .8-.096.992-.288.192-.192.288-.523.288-.992v-.528h1.264v.72c0 .736-.176 1.28-.528 1.632-.341.341-.88.512-1.616.512h-3.968c-.896 0-1.541-.192-1.936-.576-.395-.395-.592-1.045-.592-1.952v-3.328c0-.907.197-1.552.592-1.936.395-.395 1.04-.592 1.936-.592h3.584zm-4.816 3.36h6.08v-.752c0-.619-.112-1.04-.336-1.264-.224-.224-.645-.336-1.264-.336h-2.88c-.619 0-1.04.112-1.264.336-.224.224-.336.645-.336 1.264v.752zm8.5 5.024v-1.072h.224c.512 0 .869-.096 1.072-.288.203-.203.32-.565.352-1.088l.4-5.936h7.232V56h-1.296v-7.296h-4.704l-.352 5.12c-.053.757-.256 1.312-.608 1.664-.352.341-.896.512-1.632.512h-.688zm19.359-8.384h1.088V56h-1.264v-6.72L656.566 56h-.992v-8.384h1.248v6.64l6.528-6.64zm10.751-.514a.303.303 0 000 .454l5.655 5.35a.349.349 0 00.48 0l5.656-5.35a.313.313 0 00.108-.23.314.314 0 00-.099-.232.35.35 0 00-.488.008l-5.417 5.123-5.415-5.123a.35.35 0 00-.48 0zm116.323 7.73h1.12v3.088h-1.28V56h-9.696v1.92h-1.28v-3.088h.48c.587 0 .987-.101 1.2-.304.213-.213.336-.613.368-1.2l.544-8.528h8.544v10.032zm-7.728-1.632c-.053.715-.203 1.259-.448 1.632h6.832V46h-5.92l-.464 7.2zm18.06-5.584h1.088V56h-1.264v-6.72L793.972 56h-.992v-8.384h1.248v6.64l6.528-6.64zM803.272 56v-1.072h.224c.512 0 .87-.096 1.072-.288.203-.203.32-.565.352-1.088l.4-5.936h7.232V56h-1.296v-7.296h-4.704l-.352 5.12c-.053.757-.256 1.312-.608 1.664-.352.341-.896.512-1.632.512h-.688zm17.535-8.384c.896 0 1.541.197 1.936.592.395.384.592 1.03.592 1.936v1.728h-7.344v1.472c0 .619.112 1.04.336 1.264.224.224.645.336 1.264.336h3.2c.469 0 .8-.096.992-.288.192-.192.288-.523.288-.992v-.528h1.264v.72c0 .736-.176 1.28-.528 1.632-.341.341-.88.512-1.616.512h-3.968c-.896 0-1.541-.192-1.936-.576-.395-.395-.592-1.045-.592-1.952v-3.328c0-.907.197-1.552.592-1.936.395-.395 1.04-.592 1.936-.592h3.584zm-4.816 3.36h6.08v-.752c0-.619-.112-1.04-.336-1.264-.224-.224-.645-.336-1.264-.336h-2.88c-.619 0-1.04.112-1.264.336-.224.224-.336.645-.336 1.264v.752zm15.761-3.36c.896 0 1.541.197 1.936.592.395.384.592 1.03.592 1.936v3.328c0 .907-.197 1.557-.592 1.952-.395.384-1.04.576-1.936.576h-1.328c-.8 0-1.424-.059-1.872-.176-.448-.117-.933-.373-1.456-.768l-.336-.24v3.744h-1.28V47.616h1.024l.176 1.248.416-.304c.523-.395 1.008-.65 1.456-.768.448-.117 1.072-.176 1.872-.176h1.328zm1.232 5.696v-3.008c0-.619-.117-1.04-.352-1.264-.224-.235-.645-.352-1.264-.352h-1.328c-1.045 0-1.877.219-2.496.656l-.784.56v3.808l.784.56c.619.437 1.451.656 2.496.656h1.328c.619 0 1.04-.112 1.264-.336.235-.235.352-.661.352-1.28zm3.434-5.696h1.28v3.104h5.024c.704 0 1.226.17 1.568.512.341.33.512.853.512 1.568v1.12c0 .725-.171 1.253-.512 1.584-.331.33-.854.496-1.568.496h-6.304v-8.384zM846.594 56v-8.384h1.296V56h-1.296zm-8.896-4.32v3.328h4.576c.458 0 .778-.085.96-.256.181-.181.272-.501.272-.96v-.896c0-.448-.091-.763-.272-.944-.182-.181-.502-.272-.96-.272h-4.576zM946.84 56c-.981 0-1.701-.224-2.16-.672-.459-.459-.688-1.184-.688-2.176v-5.504c0-.992.229-1.712.688-2.16.459-.459 1.179-.688 2.16-.688h5.024c.981 0 1.701.23 2.16.688.459.448.688 1.168.688 2.16v5.504c0 .992-.229 1.717-.688 2.176-.459.448-1.179.672-2.16.672h-5.024zm.384-1.168h4.256c.693 0 1.179-.139 1.456-.416.288-.288.432-.779.432-1.472v-5.088c0-.693-.144-1.179-.432-1.456-.277-.288-.763-.432-1.456-.432h-4.256c-.683 0-1.168.144-1.456.432-.288.277-.432.763-.432 1.456v5.088c0 .693.144 1.184.432 1.472.288.277.773.416 1.456.416zm20.956-6.16c.725 0 1.264.176 1.616.528.352.341.528.88.528 1.616v3.04c0 .736-.176 1.28-.528 1.632-.352.341-.891.512-1.616.512h-4.512c-.736 0-1.28-.17-1.632-.512-.342-.352-.512-.896-.512-1.632v-6.032c0-.97.224-1.675.672-2.112.458-.437 1.184-.683 2.176-.736l5.632-.336v1.072l-5.504.32c-.715.053-1.216.219-1.504.496-.278.277-.416.757-.416 1.44v1.424c.309-.48.896-.72 1.76-.72h3.84zm.848 4.992v-2.672c0-.47-.096-.8-.288-.992-.192-.192-.523-.288-.992-.288h-3.664c-.47 0-.8.096-.992.288-.192.192-.288.523-.288.992v2.672c0 .47.096.8.288.992.192.192.522.288.992.288h3.664c.469 0 .8-.096.992-.288.192-.192.288-.523.288-.992zm9.709-6.048c.896 0 1.541.197 1.936.592.394.384.592 1.03.592 1.936v3.328c0 .907-.198 1.557-.592 1.952-.395.384-1.04.576-1.936.576h-1.328c-.8 0-1.424-.059-1.873-.176-.447-.117-.933-.373-1.455-.768l-.336-.24v3.744h-1.28V47.616h1.024l.175 1.248.417-.304c.522-.395 1.008-.65 1.455-.768.449-.117 1.073-.176 1.873-.176h1.328zm1.232 5.696v-3.008c0-.619-.118-1.04-.352-1.264-.224-.235-.646-.352-1.264-.352h-1.328c-1.046 0-1.878.219-2.496.656l-.784.56v3.808l.784.56c.618.437 1.45.656 2.496.656h1.328c.618 0 1.04-.112 1.264-.336.234-.235.352-.661.352-1.28zm9.385-5.696c.896 0 1.541.197 1.936.592.395.384.592 1.03.592 1.936v1.728h-7.344v1.472c0 .619.112 1.04.336 1.264.224.224.645.336 1.264.336h3.2c.469 0 .8-.096.992-.288.192-.192.288-.523.288-.992v-.528h1.264v.72c0 .736-.176 1.28-.528 1.632-.341.341-.88.512-1.616.512h-3.968c-.896 0-1.541-.192-1.936-.576-.395-.395-.592-1.045-.592-1.952v-3.328c0-.907.197-1.552.592-1.936.395-.395 1.04-.592 1.936-.592h3.584zm-4.816 3.36h6.08v-.752c0-.619-.112-1.04-.336-1.264-.224-.224-.645-.336-1.264-.336h-2.88c-.619 0-1.04.112-1.264.336-.224.224-.336.645-.336 1.264v.752zm16.832-3.36h1.3V56h-1.3v-3.792h-6.063V56h-1.28v-8.384h1.28v3.504h6.063v-3.504zm12.12 7.312h1.09v2.992h-1.22V56h-8.04v1.92h-1.24v-2.992h.36c.51 0 .87-.096 1.07-.288.2-.203.32-.565.35-1.088l.4-5.936h7.23v7.312zm-6.33-1.408c-.06.597-.19 1.067-.4 1.408h5.45v-6.224h-4.7l-.35 4.816zm14.82-5.904c.9 0 1.54.197 1.93.592.4.384.6 1.03.6 1.936v1.728h-7.35v1.472c0 .619.12 1.04.34 1.264.22.224.64.336 1.26.336h3.2c.47 0 .8-.096.99-.288.2-.192.29-.523.29-.992v-.528h1.27v.72c0 .736-.18 1.28-.53 1.632-.34.341-.88.512-1.62.512h-3.96c-.9 0-1.55-.192-1.94-.576-.4-.395-.59-1.045-.59-1.952v-3.328c0-.907.19-1.552.59-1.936.39-.395 1.04-.592 1.94-.592h3.58zm-4.82 3.36h6.08v-.752c0-.619-.11-1.04-.33-1.264-.23-.224-.65-.336-1.27-.336h-2.88c-.62 0-1.04.112-1.26.336-.22.224-.34.645-.34 1.264v.752zM1130.28 56h-2.05l-6.73-5.6V56h-1.35V44.8h1.35v5.28l6.65-5.28h2.07l-7.04 5.424 7.1 5.776zm3.1 0c-.9 0-1.54-.192-1.94-.576-.39-.395-.59-1.045-.59-1.952v-3.328c0-.907.2-1.552.59-1.936.4-.395 1.04-.592 1.94-.592h3.74c.9 0 1.54.197 1.94.592.39.384.59 1.03.59 1.936v3.328c0 .907-.2 1.557-.59 1.952-.4.384-1.04.576-1.94.576h-3.74zm.37-1.072h3.01c.61 0 1.04-.112 1.26-.336.22-.235.34-.661.34-1.28v-3.008c0-.619-.12-1.04-.34-1.264-.22-.235-.65-.352-1.26-.352h-3.01c-.62 0-1.04.117-1.27.352-.22.224-.33.645-.33 1.264v3.008c0 .619.11 1.045.33 1.28.23.224.65.336 1.27.336zm15.39-7.312h1.29V56h-1.29v-3.792h-6.07V56h-1.28v-8.384h1.28v3.504h6.07v-3.504zm2.71 1.088v-1.088h8.51v1.088h-3.61V56h-1.28v-7.296h-3.62zm15.61-1.088c.9 0 1.54.197 1.94.592.39.384.59 1.03.59 1.936V56h-1.04l-.17-1.216-.55.384c-.49.352-.92.581-1.29.688-.37.096-.9.144-1.6.144h-2.04c-1.3 0-1.95-.65-1.95-1.952v-.816c0-1.301.65-1.952 1.95-1.952h5.4v-1.056c0-.619-.12-1.04-.34-1.264-.22-.235-.65-.352-1.26-.352h-2.82c-.47 0-.8.096-.99.288-.19.192-.29.523-.29.992v.384h-1.26v-.512c0-.736.17-1.275.51-1.616.35-.352.89-.528 1.63-.528h3.58zm.32 6.848l.92-.624v-1.696h-4.88c-.43 0-.74.09-.92.272-.17.17-.25.47-.25.896v.56c0 .437.08.741.25.912.18.17.49.256.92.256h1.88c.85 0 1.54-.192 2.08-.576zM1180.73 56h-2.04l-5.16-4.048V56h-1.3v-8.384h1.3v4.048l5.12-4.048h2l-5.52 4.16 5.6 4.224zm.39-7.296v-1.088h8.51v1.088h-3.62V56h-1.28v-7.296h-3.61zm9.95-1.088h1.28v3.104h5.03c.7 0 1.22.17 1.57.512.34.33.51.853.51 1.568v1.12c0 .725-.17 1.253-.51 1.584-.33.33-.86.496-1.57.496h-6.31v-8.384zM1201.25 56v-8.384h1.3V56h-1.3zm-8.9-4.32v3.328h4.58c.46 0 .78-.085.96-.256.18-.181.27-.501.27-.96v-.896c0-.448-.09-.763-.27-.944-.18-.181-.5-.272-.96-.272h-4.58z" fill="#fff"/><path stroke="#fff" d="M1500.5 23.5h289v54h-289z"/><path d="M1535.35 50.144c.82.256 1.23.933 1.23 2.032v1.552c0 .779-.18 1.355-.56 1.728-.37.363-.94.544-1.71.544h-6.17c-.77 0-1.34-.181-1.72-.544-.37-.373-.56-.95-.56-1.728v-1.52h1.99v1.104c0 .405.08.688.24.848.16.16.44.24.85.24h4.51c.4 0 .69-.08.85-.24.16-.16.24-.443.24-.848v-1.296c0-.405-.08-.688-.24-.848-.16-.16-.45-.24-.85-.24h-3.11V49.44h2.95c.4 0 .69-.08.85-.24.16-.16.24-.443.24-.848v-.864c0-.405-.08-.688-.24-.848-.16-.16-.45-.24-.85-.24h-4.19c-.41 0-.69.08-.85.24-.16.16-.24.443-.24.848v.976h-1.99v-1.392c0-.779.19-1.35.56-1.712.38-.373.95-.56 1.72-.56h5.85c.77 0 1.34.187 1.71.56.38.363.56.933.56 1.712v1.104c0 1.045-.35 1.701-1.07 1.968zm9.27-2.592c.94 0 1.62.208 2.03.624.42.405.63 1.083.63 2.032V56h-1.59l-.22-1.136-.27.208c-.49.405-.93.661-1.3.768-.36.107-.92.16-1.66.16h-1.94c-1.32 0-1.98-.661-1.98-1.984v-.88c0-1.323.66-1.984 1.98-1.984h5.04v-.832c0-.512-.1-.864-.3-1.056-.19-.192-.55-.288-1.07-.288h-2.31c-.39 0-.68.08-.85.24-.16.16-.24.443-.24.848v.304h-1.87v-.544c0-.779.19-1.35.56-1.712.37-.373.95-.56 1.71-.56h3.65zm-.01 6.624l.73-.544v-1.328h-4.13c-.36 0-.61.075-.75.224-.14.139-.21.384-.21.736v.448c0 .363.07.613.21.752.14.139.39.208.75.208h1.64c.71 0 1.3-.165 1.76-.496zm4.62 1.824v-8.448h8.96V56h-1.94v-6.832h-5.07V56h-1.95zm18.52-8.448h1.63V56h-1.87v-6.032L1561.73 56h-1.53v-8.448h1.88v5.904l5.67-5.904zm3.5 5.792v-3.136c0-.95.21-1.627.63-2.032.41-.416 1.09-.624 2.03-.624h3.42c.94 0 1.62.208 2.04.624.41.405.62 1.083.62 2.032v.656h-1.89v-.384c0-.523-.09-.88-.29-1.072-.18-.192-.53-.288-1.05-.288h-2.21c-.52 0-.88.096-1.07.288-.18.192-.27.55-.27 1.072v2.592c0 .523.09.88.27 1.072.19.192.55.288 1.07.288h2.21c.52 0 .87-.096 1.05-.288.2-.192.29-.55.29-1.072v-.512h1.89v.784c0 .95-.21 1.632-.62 2.048-.42.405-1.1.608-2.04.608h-3.42c-.94 0-1.62-.203-2.03-.608-.42-.416-.63-1.099-.63-2.048zm16.78-5.792c.94 0 1.61.208 2.03.624.42.405.62 1.083.62 2.032V56h-1.58l-.22-1.136-.28.208c-.49.405-.92.661-1.29.768-.37.107-.92.16-1.67.16h-1.93c-1.33 0-1.99-.661-1.99-1.984v-.88c0-1.323.66-1.984 1.99-1.984h5.04v-.832c0-.512-.1-.864-.31-1.056-.19-.192-.55-.288-1.07-.288h-2.3c-.4 0-.68.08-.85.24-.16.16-.24.443-.24.848v.304h-1.87v-.544c0-.779.18-1.35.56-1.712.37-.373.94-.56 1.71-.56h3.65zm-.02 6.624l.74-.544v-1.328h-4.13c-.36 0-.61.075-.75.224-.14.139-.21.384-.21.736v.448c0 .363.07.613.21.752.14.139.39.208.75.208h1.63c.72 0 1.3-.165 1.76-.496zm3.71-5.008v-1.616h8.71v1.616h-3.38V56h-1.95v-6.832h-3.38zm9.98-1.616h1.95v2.864h4.54c.77 0 1.33.176 1.68.528.35.352.53.912.53 1.68v1.168c0 .768-.18 1.328-.53 1.68-.35.352-.91.528-1.68.528h-6.49v-8.448zm1.95 4.192v2.864h3.77c.39 0 .65-.075.8-.224.16-.16.24-.432.24-.816v-.784c0-.384-.08-.65-.24-.8-.15-.16-.41-.24-.8-.24h-3.77zm8.12 1.6v-3.136c0-.95.21-1.627.62-2.032.42-.416 1.1-.624 2.04-.624h3.42c.94 0 1.62.208 2.03.624.42.405.63 1.083.63 2.032v.656h-1.89v-.384c0-.523-.1-.88-.29-1.072-.18-.192-.53-.288-1.06-.288h-2.2c-.53 0-.88.096-1.08.288-.18.192-.27.55-.27 1.072v2.592c0 .523.09.88.27 1.072.2.192.55.288 1.08.288h2.2c.53 0 .88-.096 1.06-.288.19-.192.29-.55.29-1.072v-.512h1.89v.784c0 .95-.21 1.632-.63 2.048-.41.405-1.09.608-2.03.608h-3.42c-.94 0-1.62-.203-2.04-.608-.41-.416-.62-1.099-.62-2.048zm12.71-5.792h6.5V56h-1.96v-3.104h-2.88L1623.95 56h-2.13l2.32-3.216c-.64-.053-1.11-.256-1.42-.608-.3-.352-.45-.88-.45-1.584v-.832c0-.768.18-1.328.53-1.68.35-.352.91-.528 1.68-.528zm4.54 4.064v-2.72h-3.77c-.39 0-.65.08-.8.24-.15.15-.23.416-.23.8v.64c0 .384.08.656.23.816.15.15.41.224.8.224h3.77zm15.79-4.064h1.94V56h-1.94v-3.552h-5.07V56h-1.95v-8.448h1.95v3.296h5.07v-3.296zm10.11 0c.94 0 1.61.208 2.03.624.42.405.62 1.083.62 2.032V56h-1.58l-.22-1.136-.28.208c-.49.405-.92.661-1.29.768-.36.107-.92.16-1.67.16h-1.93c-1.32 0-1.99-.661-1.99-1.984v-.88c0-1.323.67-1.984 1.99-1.984h5.04v-.832c0-.512-.1-.864-.31-1.056-.19-.192-.55-.288-1.07-.288h-2.3c-.4 0-.68.08-.85.24-.16.16-.24.443-.24.848v.304H1649v-.544c0-.779.18-1.35.56-1.712.37-.373.94-.56 1.71-.56h3.65zm-.02 6.624l.74-.544v-1.328h-4.13c-.36 0-.61.075-.75.224-.14.139-.21.384-.21.736v.448c0 .363.07.613.21.752.14.139.39.208.75.208h1.63c.72 0 1.3-.165 1.76-.496zm8.67-5.008v-1.616h8.7v1.616h-3.37V56h-1.96v-6.832h-3.37zm16.04-1.616c.93 0 1.61.208 2.03.624.41.405.62 1.083.62 2.032v1.824h-7.02v1.072c0 .523.09.88.29 1.072.2.192.56.288 1.08.288h2.69c.4 0 .67-.08.83-.24.17-.17.26-.453.26-.848v-.368h1.87v.72c0 .779-.19 1.355-.56 1.728-.37.363-.94.544-1.71.544h-4.03c-.94 0-1.62-.203-2.03-.608-.42-.416-.63-1.099-.63-2.048v-3.136c0-.95.21-1.627.63-2.032.41-.416 1.09-.624 2.03-.624h3.65zm-4.37 3.232h5.15v-.448c0-.523-.1-.88-.3-1.072-.2-.192-.55-.288-1.08-.288h-2.4c-.52 0-.88.096-1.08.288-.2.192-.29.55-.29 1.072v.448zm8.75 2.56v-3.136c0-.95.21-1.627.62-2.032.42-.416 1.1-.624 2.04-.624h3.42c.94 0 1.62.208 2.03.624.42.405.63 1.083.63 2.032v.656h-1.89v-.384c0-.523-.1-.88-.29-1.072-.18-.192-.53-.288-1.06-.288h-2.2c-.53 0-.88.096-1.08.288-.18.192-.27.55-.27 1.072v2.592c0 .523.09.88.27 1.072.2.192.55.288 1.08.288h2.2c.53 0 .88-.096 1.06-.288.19-.192.29-.55.29-1.072v-.512h1.89v.784c0 .95-.21 1.632-.63 2.048-.41.405-1.09.608-2.03.608h-3.42c-.94 0-1.62-.203-2.04-.608-.41-.416-.62-1.099-.62-2.048zm9.77-4.176v-1.616h8.7v1.616h-3.38V56h-1.95v-6.832h-3.37zm9.73.4h5.18v1.664h-5.18v-1.664zm16.04 4.864h1.22v3.488h-1.82V56h-7.41v1.92h-1.83v-3.488h.53c.45 0 .76-.085.93-.256.17-.17.27-.48.3-.928l.39-5.696h7.69v6.88zm-6.12-1.328c-.06.544-.16.987-.31 1.328h4.48v-5.264h-3.89l-.28 3.936zm15.06-5.552c.94 0 1.62.208 2.03.624.42.405.63 1.083.63 2.032v3.136c0 .95-.21 1.632-.63 2.048-.41.405-1.09.608-2.03.608h-1.17c-.81 0-1.43-.064-1.87-.192-.42-.128-.91-.416-1.45-.864l-.02-.016v3.632h-1.95V47.552h1.6l.22 1.168.15-.112c.54-.448 1.03-.736 1.45-.864.44-.128 1.06-.192 1.87-.192h1.17zm.72 5.52V50.48c0-.523-.09-.88-.29-1.072-.19-.192-.55-.288-1.07-.288h-1.15c-.89 0-1.58.187-2.08.56l-.64.48v3.232l.64.48c.5.373 1.19.56 2.08.56h1.15c.52 0 .88-.096 1.07-.288.2-.192.29-.55.29-1.072zm9.96-5.52c.94 0 1.62.208 2.03.624.42.405.63 1.083.63 2.032V56h-1.59l-.22-1.136-.27.208c-.49.405-.92.661-1.3.768-.36.107-.91.16-1.66.16h-1.94c-1.32 0-1.98-.661-1.98-1.984v-.88c0-1.323.66-1.984 1.98-1.984h5.04v-.832c0-.512-.1-.864-.3-1.056-.19-.192-.55-.288-1.07-.288h-2.31c-.39 0-.67.08-.85.24-.16.16-.24.443-.24.848v.304h-1.87v-.544c0-.779.19-1.35.56-1.712.38-.373.95-.56 1.71-.56h3.65zm-.01 6.624l.73-.544v-1.328h-4.13c-.36 0-.61.075-.75.224-.14.139-.21.384-.21.736v.448c0 .363.07.613.21.752.14.139.39.208.75.208h1.64c.71 0 1.3-.165 1.76-.496zm7.42-7.392c-.78 0-1.17-.39-1.17-1.168V44.8h1.38v.576c0 .32.16.48.48.48h2.2c.32 0 .48-.16.48-.48V44.8h1.38v.816c0 .779-.39 1.168-1.17 1.168h-3.58zm4.75.768h1.63V56h-1.87v-6.032L1745.29 56h-1.53v-8.448h1.89v5.904l5.66-5.904zm11.57 4.016c.65.17.98.688.98 1.552v1.168c0 .587-.14 1.019-.42 1.296-.28.277-.71.416-1.29.416h-7.16v-8.448h6.92c.58 0 1.01.139 1.29.416.28.277.42.71.42 1.296v.848c0 .768-.25 1.253-.74 1.456zm-5.93-2.64v2.096h3.96c.28 0 .48-.053.6-.16.11-.117.17-.315.17-.592v-.608c0-.277-.06-.47-.17-.576-.11-.107-.31-.16-.6-.16h-3.96zm4.96 4.96v-.912c0-.267-.06-.453-.18-.56-.11-.117-.29-.176-.56-.176h-4.22v2.384h4.22c.28 0 .47-.053.58-.16.1-.107.16-.299.16-.576z" fill="#fff"/><defs><linearGradient id="paint0_linear_311_131" x1="132.113" y1="59.372" x2="132.113" y2="66.166" gradientUnits="userSpaceOnUse"><stop stop-color="#E3B69F"/><stop offset="1" stop-color="#C38A6E"/></linearGradient><linearGradient id="paint1_linear_311_131" x1="140.025" y1="59.315" x2="140.025" y2="66.217" gradientUnits="userSpaceOnUse"><stop stop-color="#E3B69F"/><stop offset="1" stop-color="#C38A6E"/></linearGradient><linearGradient id="paint2_linear_311_131" x1="148.364" y1="59.373" x2="148.364" y2="66.109" gradientUnits="userSpaceOnUse"><stop stop-color="#E3B69F"/><stop offset="1" stop-color="#C38A6E"/></linearGradient><linearGradient id="paint3_linear_311_131" x1="156.016" y1="59.423" x2="156.016" y2="66.109" gradientUnits="userSpaceOnUse"><stop stop-color="#E3B69F"/><stop offset="1" stop-color="#C38A6E"/></linearGradient><linearGradient id="paint4_linear_311_131" x1="167.901" y1="59.423" x2="167.901" y2="66.109" gradientUnits="userSpaceOnUse"><stop stop-color="#E3B69F"/><stop offset="1" stop-color="#C38A6E"/></linearGradient><linearGradient id="paint5_linear_311_131" x1="175.576" y1="59.315" x2="175.576" y2="66.217" gradientUnits="userSpaceOnUse"><stop stop-color="#E3B69F"/><stop offset="1" stop-color="#C38A6E"/></linearGradient><linearGradient id="paint6_linear_311_131" x1="183.913" y1="59.373" x2="183.913" y2="66.109" gradientUnits="userSpaceOnUse"><stop stop-color="#E3B69F"/><stop offset="1" stop-color="#C38A6E"/></linearGradient><linearGradient id="paint7_linear_311_131" x1="196.377" y1="59.423" x2="196.377" y2="66.109" gradientUnits="userSpaceOnUse"><stop stop-color="#E3B69F"/><stop offset="1" stop-color="#C38A6E"/></linearGradient><linearGradient id="paint8_linear_311_131" x1="205.76" y1="59.315" x2="205.76" y2="66.217" gradientUnits="userSpaceOnUse"><stop stop-color="#E3B69F"/><stop offset="1" stop-color="#C38A6E"/></linearGradient><linearGradient id="paint9_linear_311_131" x1="214.098" y1="59.372" x2="214.098" y2="66.109" gradientUnits="userSpaceOnUse"><stop stop-color="#E3B69F"/><stop offset="1" stop-color="#C38A6E"/></linearGradient><linearGradient id="paint10_linear_311_131" x1="221.121" y1="59.423" x2="221.121" y2="66.109" gradientUnits="userSpaceOnUse"><stop stop-color="#E3B69F"/><stop offset="1" stop-color="#C38A6E"/></linearGradient><linearGradient id="paint11_linear_311_131" x1="180.277" y1="34.115" x2="180.277" y2="54.829" gradientUnits="userSpaceOnUse"><stop stop-color="#E3B69F"/><stop offset="1" stop-color="#C38A6E"/></linearGradient><linearGradient id="paint12_linear_311_131" x1="145.247" y1="34.115" x2="145.247" y2="54.829" gradientUnits="userSpaceOnUse"><stop stop-color="#E3B69F"/><stop offset="1" stop-color="#C38A6E"/></linearGradient><linearGradient id="paint13_linear_311_131" x1="215.302" y1="34.115" x2="215.302" y2="54.829" gradientUnits="userSpaceOnUse"><stop stop-color="#E3B69F"/><stop offset="1" stop-color="#C38A6E"/></linearGradient><linearGradient id="paint14_linear_311_131" x1="282.385" y1="34.115" x2="282.385" y2="54.829" gradientUnits="userSpaceOnUse"><stop stop-color="#E3B69F"/><stop offset="1" stop-color="#C38A6E"/></linearGradient><linearGradient id="paint15_linear_311_131" x1="248.862" y1="34.115" x2="248.862" y2="54.829" gradientUnits="userSpaceOnUse"><stop stop-color="#E3B69F"/><stop offset="1" stop-color="#C38A6E"/></linearGradient></defs></svg>