<svg width="181" height="25" fill="none" xmlns="http://www.w3.org/2000/svg"><path fill-rule="evenodd" clip-rule="evenodd" d="M32.36 24.152L32.227.234h8.346v8.81h15.761V.303h7.944V24.22h-7.944v-8.671H40.505v8.603H32.36zM29.808 6.2c.1-.352.1-1.007-.074-1.603-.179-.602-.528-1.142-1.007-1.671a8.634 8.634 0 00-1.773-1.505A11.087 11.087 0 0024.788.36c-.643-.228-1.107-.295-3.994-.33C17.901 0 12.581 0 9.875 0 7.173 0 7.08 0 6.679.102c-.411.099-1.14.303-1.87.643-.729.338-1.457.812-2.029 1.412a6.005 6.005 0 00-1.27 2.054c-.278.733-.408 1.478-.497 2.393-.088.917-.13 2-.045 2.949.089.95.311 1.76.707 2.505A5.612 5.612 0 003.378 14c.727.52 1.61.88 2.193 1.085.583.204.874.247 3.4.27 2.53.025 7.295.025 9.769.013 2.473-.013 2.65-.036 2.858.077.21.114.454.361.585.643.133.284.154.6.066.859-.087.26-.287.463-.476.61-.185.148-.36.237-3.829.285-3.467.043-10.22.043-13.65.067-3.434.02-3.547.066-3.502.462.044.395.244 1.142.64 1.899a6.835 6.835 0 001.756 2.132c.762.61 1.69 1.064 2.418 1.334.727.27 1.258.36 4.369.405 3.114.046 8.808.046 11.787.012 2.982-.033 3.246-.102 3.752-.315.51-.216 1.261-.577 1.914-1.052a6.367 6.367 0 001.598-1.682c.4-.622.64-1.278.763-2.517.118-1.243.118-3.074.097-4.09-.018-1.016-.064-1.219-.253-1.582a7.636 7.636 0 00-.945-1.376 7.167 7.167 0 00-1.637-1.387 9.103 9.103 0 00-2.162-.973c-.673-.193-1.207-.216-3.721-.226-2.515-.013-7.02-.013-9.392-.032-2.375-.024-2.618-.07-2.805-.172a.872.872 0 01-.407-.496c-.09-.237-.132-.552-.033-.814.097-.26.34-.463.605-.603.262-.139.549-.216 3.77-.258 3.224-.037 9.385-.037 12.587-.023 3.203.017 3.447.051 3.586.066a.807.807 0 00.31-.006c.123-.024.321-.068.418-.416zm115.83 2.649l3.346.025 9.004-8.638h11.624l-12.188 11.077 14.538 12.941h-11.323l-10.893-9.553h-4.108v9.487h-7.95V.133h7.95V8.85zm27.417 15.473V.27h7.947v24.052h-7.947zm-57.31-9.825h7.264l-3.662-7.52-3.602 7.52zm9.819 5.251h-12.336l-2.225 4.643h-8.941L113.848.271h8.479c4.821.45 9.58 16.079 14.371 24.12h-8.875l-2.26-4.643zm-34.76 4.506c-4.822-.45-9.581-16.081-14.37-24.12h8.873l8.478 17.414L102.127.133h8.941L99.281 24.254h-8.479zm-23.445-.066V.133h7.947v24.055h-7.947z" fill="#6E8889"/></svg>