<svg width="500" height="77" fill="none" xmlns="http://www.w3.org/2000/svg"><g filter="url(#filter0_d_129_31969)" fill="#fff"><path fill-rule="evenodd" clip-rule="evenodd" d="M5 5.83v66.103h24.133V60.39h25.182c4.197-.874 12.309-4.277 17.837-9.443 10.081-9.42 8.919-23.084 3.148-30.953C68.064 10.128 60.61 6.879 53.266 5.83H5zm24.13 32.53V26.817h19.936c1.749.7 5.246 2.938 5.246 6.296 0 3.357-3.497 4.896-5.246 5.246H29.13zM86.84 5.832v66.103h24.133V60.393h18.887l6.82 11.542h24.132l-9.967-17.313c-.175-.35-.42-1.154 0-1.574.047-.047.171-.133.358-.262 1.878-1.296 10.039-6.93 9.085-21.247-1.049-15.74-13.116-23.084-23.608-25.707H86.84zm24.134 32.527h20.985c1.399-.35 4.197-1.889 4.197-5.247 0-3.357-2.798-5.246-4.197-5.77h-20.985v11.017zm95.481 33.575c12.066-.524 36.304-8.184 36.724-34.625-.525-26.231-27.805-32.002-36.724-31.477l-.326.019c-9.167.534-32.782 1.912-37.447 31.458 0 24.133 22.034 35.675 37.773 34.625zm.178-22.057c4.079-.183 12.272-2.854 12.414-12.073-.178-9.147-9.399-11.16-12.414-10.976l-.11.006c-3.099.187-11.081.667-12.658 10.97 0 8.415 7.448 12.44 12.768 12.073z"/><path d="M251.574 71.935V5.832h24.658v44.069h37.248v22.034h-61.906zm69.249 0V5.832h26.231v66.103h-26.231zm33.576-66.103v66.103h22.035v-27.28l48.265 27.28V5.832h-22.034v26.756L354.399 5.832zm78.696 66.103V5.832H495v20.985h-36.723v5.246h13.64v-3.148l9.443 9.968-9.443 8.919v-3.148h-13.64V49.9H495v22.035h-61.905z"/></g><defs><filter id="filter0_d_129_31969" x="0" y=".8" width="500" height="76.2" filterUnits="userSpaceOnUse" color-interpolation-filters="sRGB"><feFlood flood-opacity="0" result="BackgroundImageFix"/><feColorMatrix in="SourceAlpha" values="0 0 0 0 0 0 0 0 0 0 0 0 0 0 0 0 0 0 127 0" result="hardAlpha"/><feOffset/><feGaussianBlur stdDeviation="2.5"/><feComposite in2="hardAlpha" operator="out"/><feColorMatrix values="0 0 0 0 1 0 0 0 0 1 0 0 0 0 1 0 0 0 0.35 0"/><feBlend in2="BackgroundImageFix" result="effect1_dropShadow_129_31969"/><feBlend in="SourceGraphic" in2="effect1_dropShadow_129_31969" result="shape"/></filter></defs></svg>