<svg width="60" height="60" fill="none" xmlns="http://www.w3.org/2000/svg"><path d="M55 48.783V34H41v20h14v-5.218z" fill="#036063"/><path d="M46 49h-1v2h1v-2z" fill="#F2F2F2"/><path d="M55 34H41v14h14V34z" fill="#036063"/><path d="M55.133 33H41.268a.86.86 0 00-.613.258.887.887 0 00-.254.622v.89c-.834.026-1.666.096-2.493.208a13.02 13.02 0 00-2.143.456 7.533 7.533 0 00-.9.352 8.326 8.326 0 00-2.673 2.037c-.388.427-.86.766-1.385.997a4.038 4.038 0 01-1.663.34h-6.075a3.433 3.433 0 00-1.486.344 3.487 3.487 0 00-1.199.957 3.582 3.582 0 00-.712 2.932c.074.37.21.723.4 1.047h-.233l-10.02-5.984a3.716 3.716 0 00-.73-.339 4.391 4.391 0 00-.52-.128 3.795 3.795 0 00-1.717.066c-.56.153-1.08.432-1.518.817a3.909 3.909 0 00-1.017 1.407 3.964 3.964 0 00-.314 1.715c.042.67.247 1.32.597 1.89.35.57.833 1.043 1.407 1.377l13.155 7.858c.134.08.286.121.44.121h20.799v.88c0 .233.091.457.254.622a.86.86 0 00.613.258h13.865a.86.86 0 00.613-.258.887.887 0 00.254-.622V50.6h-1.733v2.64H42.134V34.76h12.133v10.56H56V33.88a.887.887 0 00-.254-.622.86.86 0 00-.613-.258zM40.401 51.48H19.839L6.886 43.743a2.267 2.267 0 01-.8-.763c-.2-.317-.32-.68-.35-1.056a2.14 2.14 0 01.167-.946 2.143 2.143 0 013.035-1.01l10.226 6.107c.132.08.284.124.438.125h3.605c.216-.019.434-.019.651 0 1.12.14 2.156.673 2.931 1.506a.868.868 0 00.616.268.854.854 0 00.62-.257.883.883 0 00.254-.63.892.892 0 00-.264-.626 6.517 6.517 0 00-4.002-2.021 5.747 5.747 0 00-.806 0h-.017a1.819 1.819 0 01-1.149-.376 1.868 1.868 0 01-.67-1.019 1.797 1.797 0 01.353-1.47 1.745 1.745 0 011.345-.655h6.075a5.755 5.755 0 002.37-.494 5.835 5.835 0 001.97-1.429c.59-.68 1.31-1.23 2.117-1.617.22-.102.446-.19.677-.264a11.33 11.33 0 011.86-.393c.75-.102 1.506-.167 2.263-.192V51.48z" fill="#036063"/><path d="M28 16.464c2.425 0 4.391-1.872 4.391-4.182 0-2.31-1.966-4.181-4.39-4.181-2.426 0-4.392 1.872-4.392 4.181 0 2.31 1.966 4.182 4.391 4.182z" stroke="#036063" stroke-width="2" stroke-miterlimit="10" stroke-linecap="round" stroke-linejoin="round"/><path d="M38.03 26.725v5.414H17.97v-5.414c0-3.394 2.887-6.144 6.451-6.144h7.158c3.564 0 6.452 2.75 6.452 6.144z" stroke="#036063" stroke-miterlimit="10" stroke-linecap="round" stroke-linejoin="round"/><path d="M28 16.464c2.425 0 4.391-1.872 4.391-4.182 0-2.31-1.966-4.181-4.39-4.181-2.426 0-4.392 1.872-4.392 4.181 0 2.31 1.966 4.182 4.391 4.182z" fill="#036063" stroke="#036063" stroke-width="2" stroke-miterlimit="10" stroke-linecap="round" stroke-linejoin="round"/><path d="M38.03 26.725v5.414H17.97v-5.414c0-3.394 2.887-6.144 6.451-6.144h7.158c3.564 0 6.452 2.75 6.452 6.144z" fill="#036063" stroke="#036063" stroke-miterlimit="10" stroke-linecap="round" stroke-linejoin="round"/></svg>