<svg width="60" height="60" fill="none" xmlns="http://www.w3.org/2000/svg"><g clip-path="url(#clip0_129_32172)"><g clip-path="url(#clip1_129_32172)"><path d="M43.636 37.907V22.089l-13.635-7.91-13.637 7.91v15.818L30 45.816l13.635-7.91z" fill="#036063"/><path d="M55.754 25.753c-2.103 0-3.84 1.54-4.176 3.549H44.53V21.61l-3.27-1.889 4.486-4.487a4.22 4.22 0 005.466-.443 4.251 4.251 0 000-6.005 4.244 4.244 0 00-6.005 0c-1.486 1.486-1.627 3.802-.445 5.46L40.01 19l-9.316-5.38V8.423c2.01-.333 3.552-2.072 3.552-4.176A4.25 4.25 0 0030 0a4.251 4.251 0 00-4.247 4.246c0 2.102 1.538 3.839 3.545 4.175v5.205l-9.312 5.376-4.752-4.752c1.184-1.657 1.045-3.976-.443-5.463a4.244 4.244 0 00-6.004 0 4.251 4.251 0 000 6.005 4.22 4.22 0 005.461.446l4.487 4.487-3.267 1.886v7.69H8.422c-.336-2.008-2.074-3.547-4.176-3.547A4.25 4.25 0 000 30a4.25 4.25 0 004.246 4.246c2.103 0 3.84-1.54 4.176-3.549h7.046v7.692l3.271 1.889-4.486 4.487a4.22 4.22 0 00-5.466.443 4.251 4.251 0 000 6.005 4.244 4.244 0 006.004 0c1.486-1.486 1.627-3.802.446-5.459L19.99 41l9.308 5.374v5.204c-2.006.337-3.544 2.074-3.544 4.175A4.251 4.251 0 0030 60a4.25 4.25 0 004.246-4.246c0-2.104-1.542-3.843-3.552-4.176v-5.199L40.01 41l4.753 4.754c-1.182 1.657-1.041 3.974.445 5.46a4.244 4.244 0 006.005 0 4.251 4.251 0 000-6.005 4.22 4.22 0 00-5.465-.444l-4.487-4.486 3.27-1.889v-7.692h7.047c.335 2.01 2.073 3.55 4.175 3.55A4.251 4.251 0 0060 30a4.251 4.251 0 00-4.246-4.247zM42.67 37.316L30 44.63l-12.671-7.315V22.684L30 15.37l12.67 7.315v14.632z" fill="#036063"/><path fill-rule="evenodd" clip-rule="evenodd" d="M29.827 28.112v11.08s-6.07-2.597-8.613-3.682l-.007-.013V24.424l.007.014 8.606 3.682.007-.008z" fill="#fff"/><path fill-rule="evenodd" clip-rule="evenodd" d="M38.44 24.424l-.007.013-8.606 3.684v11.073l8.606-3.684.007-.013V24.424z" fill="#fff"/><path fill-rule="evenodd" clip-rule="evenodd" d="M29.683 20.742l-8.479 3.683v.01l8.622 3.699 8.628-3.71-8.538-3.682h-.233z" fill="#fff"/><path fill-rule="evenodd" clip-rule="evenodd" d="M32.487 21.855l-.053.02-8.565 3.703v5.201l1.52-.75 1.5 2.25v-5.404l8.566-3.742-2.968-1.277z" fill="#036063"/></g></g><defs><clipPath id="clip0_129_32172"><path fill="#fff" d="M0 0h60v60H0z"/></clipPath><clipPath id="clip1_129_32172"><path fill="#fff" d="M0 0h60v60H0z"/></clipPath></defs></svg>