<svg width="60" height="60" fill="none" xmlns="http://www.w3.org/2000/svg"><path d="M43.636 37.909V22.09l-13.635-7.91-13.637 7.91v15.818L30 45.818l13.635-7.91z" fill="#036063"/><path d="M54.817 25.908c-2.026 0-3.7 1.484-4.024 3.42h-6.79v-7.412l-3.152-1.82 4.324-4.324a4.066 4.066 0 005.266-.427 4.097 4.097 0 000-5.787 4.09 4.09 0 00-5.786 0c-1.432 1.432-1.568 3.664-.43 5.261L39.647 19.4l-8.978-5.184v-5.01c1.938-.32 3.424-1.996 3.424-4.023A4.096 4.096 0 0030 1.09a4.097 4.097 0 00-4.092 4.092c0 2.025 1.482 3.698 3.416 4.023v5.015l-8.974 5.181-4.58-4.58c1.142-1.596 1.008-3.83-.425-5.264a4.09 4.09 0 00-5.787 0 4.097 4.097 0 000 5.787 4.067 4.067 0 005.263.43l4.324 4.323-3.148 1.818v7.411h-6.79c-.324-1.935-1.999-3.42-4.025-3.42A4.096 4.096 0 001.091 30a4.096 4.096 0 004.091 4.092c2.027 0 3.702-1.484 4.025-3.42h6.79v7.412l3.151 1.82-4.322 4.324a4.066 4.066 0 00-5.268.427 4.097 4.097 0 000 5.787 4.09 4.09 0 005.787 0c1.431-1.432 1.567-3.664.43-5.26l4.579-4.582 8.97 5.179v5.015c-1.934.325-3.416 1.998-3.416 4.023A4.097 4.097 0 0030 58.909a4.096 4.096 0 004.092-4.092c0-2.028-1.486-3.703-3.424-4.024v-5.01l8.978-5.183 4.58 4.58c-1.139 1.597-1.003 3.83.429 5.262a4.09 4.09 0 005.786 0 4.097 4.097 0 000-5.787 4.067 4.067 0 00-5.266-.428l-4.324-4.323 3.152-1.82v-7.412h6.79c.323 1.936 1.998 3.42 4.024 3.42A4.097 4.097 0 0058.909 30a4.097 4.097 0 00-4.092-4.092zM42.21 37.05L30 44.099l-12.21-7.05V22.95L30 15.9l12.21 7.05v14.1z" fill="#036063"/><path d="M30 26.878a2.509 2.509 0 100-5.018 2.509 2.509 0 000 5.018z" stroke="#fff" stroke-width="2" stroke-miterlimit="10" stroke-linecap="round" stroke-linejoin="round"/><path d="M35.732 33.035v3.248H24.269v-3.248a3.686 3.686 0 013.686-3.686h4.09a3.686 3.686 0 013.687 3.686z" stroke="#fff" stroke-miterlimit="10" stroke-linecap="round" stroke-linejoin="round"/><path d="M30 26.878a2.509 2.509 0 100-5.018 2.509 2.509 0 000 5.018z" fill="#fff" stroke="#fff" stroke-width="2" stroke-miterlimit="10" stroke-linecap="round" stroke-linejoin="round"/><path d="M35.732 33.035v3.248H24.269v-3.248a3.686 3.686 0 013.686-3.686h4.09a3.686 3.686 0 013.687 3.686z" fill="#fff" stroke="#fff" stroke-miterlimit="10" stroke-linecap="round" stroke-linejoin="round"/></svg>