<svg width="75" height="38" fill="none" xmlns="http://www.w3.org/2000/svg"><path d="M48.62 7.876c1.161 1.007 2.305 2.206 3.176 3.43v.036l-.141-.037c-6.288-4.728-13.587-7.295-21.91-6.678-4.376.582-8.892 2.127-11.22 6.462-1.401-2.05-2.403-4.27-2.611-6.823C24.15-4.2 41.176 1.497 48.62 7.876zM12.031 9.717l-5.222.072c-.607.134-1.295.296-1.587.975-.544 1.3-.286 2.938-.353 4.44l.07.108h5.822v3.285H4.939l-.07.072v19.023H.035L0 12.136c.099-1.888.723-3.99 2.646-4.657.744-.263 1.552-.376 2.364-.47h7.021v2.708zM66.65 28.56c.063.343.257.657.564.866.367.112.734.23 1.165.18v2.527l-3.634-.036c-.882-.144-1.764-.599-2.223-1.48a4.193 4.193 0 01-.423-1.588l-.036-22.02h4.552l.035 21.55zm8.22-17.255l-4.55.036-.036-4.295.035-.036h4.552v4.295zm-51.653 3.213c1.432 2.314 1.354 5.266 1.34 8.194h-6.739l-.07.072c.074 1.899-.057 3.888.388 5.631.187.433.564.92 1.058.975.565.025 1.14-.072 1.412-.614.19-.4.215-.866.247-1.335l3.21-.037c.075 1.578-.342 3.137-1.658 4.08-1.817 1.032-4.678 1.212-6.457-.037-2.508-2.007-2.748-5.176-2.928-8.266-.021-3.263.162-6.436 2.152-8.844 1.538-1.772 4.255-2.09 6.351-1.263.646.289 1.288.798 1.694 1.444zm12.489-1.516l.035 3.899c.014.032-.017.05-.035.072-1.214-.556-3.017-.628-4.27-.108l-.14.144v15.125h-4.552l-.035-19.24h3.775c.085.296.141.603.318.867 1.29-1.102 3.32-1.463 4.904-.759zm10.514 0l.036 3.898c.014.033-.018.051-.036.073-1.224-.563-3.09-.646-4.34-.073l-.07.073v15.124l-4.551.036-.036-19.24H41c.038.297.19.556.282.83.243-.068.406-.324.635-.432 1.192-.697 3.013-.92 4.304-.29zm12.068 2.129c.988 1.86 1.287 4.007 1.376 6.245l-.036.036c.05 3.036-.007 6.118-1.481 8.555-1.24 1.964-3.342 2.512-5.54 2.31-2.008-.137-3.87-1.913-4.446-3.826-.966-2.765-.974-6.158-.67-9.241.35-2.45 1.182-5.234 3.74-6.209 2.526-.805 5.62-.375 7.057 2.13zM74.87 32.133h-4.55l-.036-19.167.035-.072h4.552v19.24z" fill="#6E8889"/><path d="M54.442 16.142c.444 1.451.314 3.155.388 4.765l-.035 5.27c-.173 1.116.032 2.48-.988 3.14-.374.077-.794.052-1.059-.252-.32-.303-.388-.707-.458-1.119l-.142-2.057-.07-4.62c.084-1.72-.085-3.549.423-5.09.17-.307.473-.574.812-.614.476-.05.875.162 1.129.577zm-34.295-.216c.441.513.459 1.206.53 1.877.02.722.102 1.422.07 2.166-.942.069-1.927.021-2.893.036l-.071-.072c.067-1.25-.032-2.567.353-3.682.127-.343.48-.588.811-.65.445 0 .91-.054 1.2.325z" fill="#001817"/></svg>