<svg width="20" height="20" fill="none" xmlns="http://www.w3.org/2000/svg"><path d="M10 7.397a2.609 2.609 0 00-2.603 2.604A2.609 2.609 0 0010 12.604a2.609 2.609 0 002.604-2.603A2.609 2.609 0 0010 7.397zm7.809 2.604c0-1.079.01-2.147-.051-3.223-.06-1.25-.346-2.36-1.26-3.274-.916-.916-2.023-1.199-3.273-1.26-1.078-.06-2.147-.05-3.223-.05-1.078 0-2.146-.01-3.223.05-1.25.061-2.359.346-3.273 1.26-.916.916-1.2 2.024-1.26 3.274-.06 1.078-.05 2.146-.05 3.223 0 1.076-.01 2.146.05 3.222.06 1.25.346 2.36 1.26 3.274.916.916 2.023 1.199 3.273 1.26 1.079.06 2.147.05 3.223.05 1.078 0 2.146.01 3.223-.05 1.25-.061 2.36-.346 3.273-1.26.916-.916 1.2-2.024 1.26-3.274.062-1.076.05-2.144.05-3.222zM10 14.006a4 4 0 01-4.006-4.005A4 4 0 0110 5.995 4 4 0 0114.006 10 4 4 0 0110 14.006zm4.17-7.24a.934.934 0 110-1.87.934.934 0 110 1.87z" fill="#036063"/></svg>