<svg width="98" height="117" fill="none" xmlns="http://www.w3.org/2000/svg"><path d="M10.253 111.744V101.07h-7.02v10.674H1.739V99.738h10.008v12.006h-1.494zm8.044.216c-.66 0-1.26-.12-1.8-.36a4.097 4.097 0 01-1.35-.972 4.559 4.559 0 01-.864-1.458 5.388 5.388 0 01-.288-1.782c0-.624.096-1.212.288-1.764.204-.564.492-1.05.864-1.458a4.097 4.097 0 011.35-.972c.54-.24 1.14-.36 1.8-.36.66 0 1.254.12 1.782.36.54.24.996.564 1.368.972.372.408.654.894.846 1.458.204.552.306 1.14.306 1.764a5.1 5.1 0 01-.306 1.782 4.309 4.309 0 01-.846 1.458 4.05 4.05 0 01-1.368.972c-.528.24-1.122.36-1.782.36zm0-1.206c.468 0 .876-.09 1.224-.27.36-.192.66-.438.9-.738.252-.312.438-.672.558-1.08.132-.408.198-.834.198-1.278 0-.444-.066-.864-.198-1.26a2.901 2.901 0 00-.558-1.062 2.568 2.568 0 00-.9-.738c-.348-.192-.756-.288-1.224-.288-.468 0-.882.096-1.242.288-.36.18-.666.426-.918.738-.24.3-.426.654-.558 1.062-.12.396-.18.816-.18 1.26 0 .444.06.87.18 1.278.132.408.318.768.558 1.08.252.3.558.546.918.738.36.18.774.27 1.242.27zm12.425.99l-3.132-3.906-1.44 1.422v2.484H24.8v-8.694h1.35v4.626l4.572-4.626h1.71l-3.852 3.942 3.87 4.752h-1.728zm3.054 2.178c.096.048.216.084.36.108.144.024.27.036.378.036.3 0 .552-.066.756-.198.204-.12.384-.36.54-.72l.576-1.314-3.636-8.784h1.458l2.898 7.128 2.88-7.128h1.476l-4.356 10.458c-.264.636-.612 1.086-1.044 1.35-.432.264-.936.402-1.512.414-.144 0-.312-.012-.504-.036a3.561 3.561 0 01-.486-.09l.216-1.224zm14.98-2.178v-7.506h-4.535v7.506h-1.35v-8.694h7.235v8.694h-1.35zm9.482 0v-.99c-.732.804-1.692 1.206-2.88 1.206-.372 0-.738-.06-1.098-.18-.36-.12-.684-.3-.972-.54a2.968 2.968 0 01-.702-.918c-.18-.36-.27-.774-.27-1.242 0-.48.09-.9.27-1.26a2.727 2.727 0 011.674-1.422c.36-.12.726-.18 1.098-.18.6 0 1.14.096 1.62.288.492.192.912.492 1.26.9v-1.566c0-.588-.21-1.038-.63-1.35-.408-.324-.93-.486-1.566-.486-1.02 0-1.908.402-2.664 1.206l-.63-.936c.924-.96 2.082-1.44 3.474-1.44.456 0 .888.054 1.296.162a2.84 2.84 0 011.062.522c.312.228.558.528.738.9.18.372.27.822.27 1.35v5.976h-1.35zm-2.394-.756c.48 0 .93-.09 1.35-.27.432-.18.78-.45 1.044-.81v-1.638a2.42 2.42 0 00-1.044-.81 3.39 3.39 0 00-1.35-.27c-.636 0-1.152.18-1.548.54-.396.348-.594.804-.594 1.368 0 .552.198 1.008.594 1.368.396.348.912.522 1.548.522zm8.034.756v-7.506h-2.52v-1.188h6.408v1.188h-2.538v7.506h-1.35zm9.582.216a4.757 4.757 0 01-1.781-.324 4.361 4.361 0 01-1.404-.936 4.69 4.69 0 01-.919-1.44 5.195 5.195 0 01-.323-1.872c0-.624.108-1.212.323-1.764.217-.564.51-1.05.883-1.458a4.361 4.361 0 011.35-.972 4.126 4.126 0 011.728-.36c.66 0 1.248.12 1.764.36s.953.57 1.313.99c.36.42.63.918.81 1.494.193.564.289 1.17.289 1.818v.342h-7.038c.023.408.114.798.27 1.17.156.36.366.678.63.954.275.264.6.48.971.648a3.23 3.23 0 001.26.234c.505 0 .99-.096 1.459-.288a3.694 3.694 0 001.224-.81l.647.882a4.41 4.41 0 01-1.511.99c-.576.228-1.225.342-1.945.342zm2.7-5.112c0-.324-.06-.654-.18-.99a2.575 2.575 0 00-.522-.936 2.57 2.57 0 00-.882-.702c-.36-.18-.785-.27-1.277-.27-.469 0-.877.09-1.225.27a2.95 2.95 0 00-.882.684 3.29 3.29 0 00-.54.936c-.12.336-.186.672-.198 1.008h5.707zm2.493 3.996c.408 0 .744-.264 1.008-.792s.48-1.434.648-2.718l.558-4.284h6.048v8.694h-1.35v-7.506h-3.51l-.396 3.258c-.096.816-.228 1.506-.396 2.07-.168.564-.378 1.026-.63 1.386-.24.348-.528.606-.864.774a2.542 2.542 0 01-1.116.234v-1.116zm12.308-7.794v3.366h3.258c.444 0 .834.072 1.17.216.348.144.636.342.864.594.24.24.414.522.522.846.12.312.18.648.18 1.008s-.06.702-.18 1.026c-.12.324-.294.606-.522.846a2.48 2.48 0 01-.864.576 2.95 2.95 0 01-1.17.216H89.61v-8.694h1.35zm0 4.554v2.952h3.114c.492 0 .864-.138 1.116-.414.252-.276.378-.63.378-1.062 0-.42-.126-.768-.378-1.044-.24-.288-.612-.432-1.116-.432H90.96z" fill="#000"/><g clip-path="url(#clip0_129_32268)" fill="#036063"><path d="M82.243 60.873H45.734a.496.496 0 00-.48.617l3.954 15.902c.094.335.385 1.353 1.46 1.353h26.641c1.079 0 1.367-1.019 1.465-1.37l3.947-15.885a.5.5 0 00-.262-.567.493.493 0 00-.216-.05zm-4.42 16.247c-.18.632-.366.632-.514.632H50.668c-.147 0-.332 0-.508-.617l-3.793-15.27H81.61L77.822 77.12z"/><path d="M61.522 74.772a.492.492 0 00.493-.496V65.34a.498.498 0 00-.493-.496.492.492 0 00-.494.496v8.936a.498.498 0 00.494.496zm-6.908 0a.488.488 0 00.368-.164.497.497 0 00.123-.386l-.987-8.936a.497.497 0 00-.544-.44.492.492 0 00-.436.549l.986 8.936a.498.498 0 00.49.441zm12.828 0a.492.492 0 00.493-.496V65.34a.498.498 0 00-.493-.496.492.492 0 00-.493.496v8.936a.498.498 0 00.493.496zm5.865-.002l.056.002a.491.491 0 00.49-.441l.986-8.936a.499.499 0 00-.436-.548.491.491 0 00-.544.439l-.987 8.936a.499.499 0 00.435.547zm4.003-15.884a.49.49 0 00.448-.29.499.499 0 00-.076-.53l-9.374-10.922a.492.492 0 00-.849.293.5.5 0 00.103.355l9.374 10.922a.49.49 0 00.373.172zM60.847 47.084a.491.491 0 00-.694.07l-8.88 10.922a.498.498 0 00.429.822.491.491 0 00.335-.194l8.88-10.922a.499.499 0 00-.07-.698zm23.369 9.817H80.27a.492.492 0 00-.493.497.498.498 0 00.493.496h3.947a.492.492 0 00.493-.496.498.498 0 00-.493-.497zm-27.628.993h15.788a.492.492 0 00.493-.496.498.498 0 00-.493-.497H56.588a.492.492 0 00-.493.497.498.498 0 00.493.496zm-12.828 0h4.934a.492.492 0 00.494-.496.498.498 0 00-.494-.497h-4.933a.492.492 0 00-.493.497.498.498 0 00.493.496z"/></g><path d="M32.185 7.387a6.885 6.885 0 11-13.77-.005 6.885 6.885 0 0113.77.005zm-13.764 41.83v-.5H13.5V24.61a4.421 4.421 0 014.421-4.422h14.764a4.421 4.421 0 014.421 4.422v24.106h-4.921v29.527h-5.152V48.717h-3.46v29.527H18.42V49.217z" stroke="#036063"/><defs><clipPath id="clip0_129_32268"><path fill="#fff" transform="translate(43.268 46.973)" d="M0 0h41.442v31.772H0z"/></clipPath></defs></svg>